%TF.GenerationSoftware,KiCad,Pcbnew,5.1.10-88a1d61d58~88~ubuntu16.04.1*%
%TF.CreationDate,2021-09-03T12:29:31+02:00*%
%TF.ProjectId,80mrx,38306d72-782e-46b6-9963-61645f706362,rev?*%
%TF.SameCoordinates,Original*%
%TF.FileFunction,Copper,L2,Bot*%
%TF.FilePolarity,Positive*%
%FSLAX46Y46*%
G04 Gerber Fmt 4.6, Leading zero omitted, Abs format (unit mm)*
G04 Created by KiCad (PCBNEW 5.1.10-88a1d61d58~88~ubuntu16.04.1) date 2021-09-03 12:29:31*
%MOMM*%
%LPD*%
G01*
G04 APERTURE LIST*
%TA.AperFunction,ComponentPad*%
%ADD10C,2.200000*%
%TD*%
%TA.AperFunction,ComponentPad*%
%ADD11R,1.700000X1.700000*%
%TD*%
%TA.AperFunction,ComponentPad*%
%ADD12O,1.700000X1.700000*%
%TD*%
%TA.AperFunction,ComponentPad*%
%ADD13C,3.500000*%
%TD*%
%TA.AperFunction,Conductor*%
%ADD14C,0.254000*%
%TD*%
%TA.AperFunction,Conductor*%
%ADD15C,0.100000*%
%TD*%
G04 APERTURE END LIST*
D10*
%TO.P,J1,1*%
%TO.N,Net-(C18-Pad2)*%
X156972000Y-96988000D03*
%TO.P,J1,2*%
X156972000Y-99488000D03*
%TO.P,J1,3*%
X156972000Y-104488000D03*
%TO.P,J1,4*%
X156972000Y-106988000D03*
%TO.P,J1,5*%
%TO.N,GND*%
X161972000Y-101988000D03*
%TD*%
D11*
%TO.P,AE1,1*%
%TO.N,Net-(AE1-Pad1)*%
X128016000Y-83566000D03*
%TD*%
D12*
%TO.P,BT1,2*%
%TO.N,GND*%
X162560000Y-92964000D03*
D11*
%TO.P,BT1,1*%
%TO.N,+6V*%
X162560000Y-90424000D03*
%TD*%
%TO.P,L1,1*%
%TO.N,Net-(C1-Pad1)*%
X128016000Y-93726000D03*
D12*
%TO.P,L1,2*%
%TO.N,GND*%
X128016000Y-96266000D03*
%TD*%
D13*
%TO.P,RV1,1*%
%TO.N,+6V*%
X149098000Y-85598000D03*
%TO.P,RV1,2*%
%TO.N,Net-(C4-Pad1)*%
X154178000Y-85598000D03*
%TO.P,RV1,3*%
%TO.N,GND*%
X159258000Y-85598000D03*
%TD*%
D14*
%TO.N,GND*%
X164440001Y-109195000D02*
X125755000Y-109195000D01*
X125755000Y-104317117D01*
X155237000Y-104317117D01*
X155237000Y-104658883D01*
X155303675Y-104994081D01*
X155434463Y-105309831D01*
X155624337Y-105593998D01*
X155768339Y-105738000D01*
X155624337Y-105882002D01*
X155434463Y-106166169D01*
X155303675Y-106481919D01*
X155237000Y-106817117D01*
X155237000Y-107158883D01*
X155303675Y-107494081D01*
X155434463Y-107809831D01*
X155624337Y-108093998D01*
X155866002Y-108335663D01*
X156150169Y-108525537D01*
X156465919Y-108656325D01*
X156801117Y-108723000D01*
X157142883Y-108723000D01*
X157478081Y-108656325D01*
X157793831Y-108525537D01*
X158077998Y-108335663D01*
X158319663Y-108093998D01*
X158509537Y-107809831D01*
X158640325Y-107494081D01*
X158707000Y-107158883D01*
X158707000Y-106817117D01*
X158640325Y-106481919D01*
X158509537Y-106166169D01*
X158319663Y-105882002D01*
X158175661Y-105738000D01*
X158319663Y-105593998D01*
X158509537Y-105309831D01*
X158640325Y-104994081D01*
X158707000Y-104658883D01*
X158707000Y-104317117D01*
X158640325Y-103981919D01*
X158509537Y-103666169D01*
X158319663Y-103382002D01*
X158132373Y-103194712D01*
X160944893Y-103194712D01*
X161052726Y-103469338D01*
X161359384Y-103620216D01*
X161689585Y-103708369D01*
X162030639Y-103730409D01*
X162369439Y-103685489D01*
X162692966Y-103575336D01*
X162891274Y-103469338D01*
X162999107Y-103194712D01*
X161972000Y-102167605D01*
X160944893Y-103194712D01*
X158132373Y-103194712D01*
X158077998Y-103140337D01*
X157793831Y-102950463D01*
X157478081Y-102819675D01*
X157142883Y-102753000D01*
X156801117Y-102753000D01*
X156465919Y-102819675D01*
X156150169Y-102950463D01*
X155866002Y-103140337D01*
X155624337Y-103382002D01*
X155434463Y-103666169D01*
X155303675Y-103981919D01*
X155237000Y-104317117D01*
X125755000Y-104317117D01*
X125755000Y-102046639D01*
X160229591Y-102046639D01*
X160274511Y-102385439D01*
X160384664Y-102708966D01*
X160490662Y-102907274D01*
X160765288Y-103015107D01*
X161792395Y-101988000D01*
X162151605Y-101988000D01*
X163178712Y-103015107D01*
X163453338Y-102907274D01*
X163604216Y-102600616D01*
X163692369Y-102270415D01*
X163714409Y-101929361D01*
X163669489Y-101590561D01*
X163559336Y-101267034D01*
X163453338Y-101068726D01*
X163178712Y-100960893D01*
X162151605Y-101988000D01*
X161792395Y-101988000D01*
X160765288Y-100960893D01*
X160490662Y-101068726D01*
X160339784Y-101375384D01*
X160251631Y-101705585D01*
X160229591Y-102046639D01*
X125755000Y-102046639D01*
X125755000Y-96622890D01*
X126574524Y-96622890D01*
X126619175Y-96770099D01*
X126744359Y-97032920D01*
X126918412Y-97266269D01*
X127134645Y-97461178D01*
X127384748Y-97610157D01*
X127659109Y-97707481D01*
X127889000Y-97586814D01*
X127889000Y-96393000D01*
X128143000Y-96393000D01*
X128143000Y-97586814D01*
X128372891Y-97707481D01*
X128647252Y-97610157D01*
X128897355Y-97461178D01*
X129113588Y-97266269D01*
X129287641Y-97032920D01*
X129390429Y-96817117D01*
X155237000Y-96817117D01*
X155237000Y-97158883D01*
X155303675Y-97494081D01*
X155434463Y-97809831D01*
X155624337Y-98093998D01*
X155768339Y-98238000D01*
X155624337Y-98382002D01*
X155434463Y-98666169D01*
X155303675Y-98981919D01*
X155237000Y-99317117D01*
X155237000Y-99658883D01*
X155303675Y-99994081D01*
X155434463Y-100309831D01*
X155624337Y-100593998D01*
X155866002Y-100835663D01*
X156150169Y-101025537D01*
X156465919Y-101156325D01*
X156801117Y-101223000D01*
X157142883Y-101223000D01*
X157478081Y-101156325D01*
X157793831Y-101025537D01*
X158077998Y-100835663D01*
X158132373Y-100781288D01*
X160944893Y-100781288D01*
X161972000Y-101808395D01*
X162999107Y-100781288D01*
X162891274Y-100506662D01*
X162584616Y-100355784D01*
X162254415Y-100267631D01*
X161913361Y-100245591D01*
X161574561Y-100290511D01*
X161251034Y-100400664D01*
X161052726Y-100506662D01*
X160944893Y-100781288D01*
X158132373Y-100781288D01*
X158319663Y-100593998D01*
X158509537Y-100309831D01*
X158640325Y-99994081D01*
X158707000Y-99658883D01*
X158707000Y-99317117D01*
X158640325Y-98981919D01*
X158509537Y-98666169D01*
X158319663Y-98382002D01*
X158175661Y-98238000D01*
X158319663Y-98093998D01*
X158509537Y-97809831D01*
X158640325Y-97494081D01*
X158707000Y-97158883D01*
X158707000Y-96817117D01*
X158640325Y-96481919D01*
X158509537Y-96166169D01*
X158319663Y-95882002D01*
X158077998Y-95640337D01*
X157793831Y-95450463D01*
X157478081Y-95319675D01*
X157142883Y-95253000D01*
X156801117Y-95253000D01*
X156465919Y-95319675D01*
X156150169Y-95450463D01*
X155866002Y-95640337D01*
X155624337Y-95882002D01*
X155434463Y-96166169D01*
X155303675Y-96481919D01*
X155237000Y-96817117D01*
X129390429Y-96817117D01*
X129412825Y-96770099D01*
X129457476Y-96622890D01*
X129336155Y-96393000D01*
X128143000Y-96393000D01*
X127889000Y-96393000D01*
X126695845Y-96393000D01*
X126574524Y-96622890D01*
X125755000Y-96622890D01*
X125755000Y-92876000D01*
X126527928Y-92876000D01*
X126527928Y-94576000D01*
X126540188Y-94700482D01*
X126576498Y-94820180D01*
X126635463Y-94930494D01*
X126714815Y-95027185D01*
X126811506Y-95106537D01*
X126921820Y-95165502D01*
X127002466Y-95189966D01*
X126918412Y-95265731D01*
X126744359Y-95499080D01*
X126619175Y-95761901D01*
X126574524Y-95909110D01*
X126695845Y-96139000D01*
X127889000Y-96139000D01*
X127889000Y-96119000D01*
X128143000Y-96119000D01*
X128143000Y-96139000D01*
X129336155Y-96139000D01*
X129457476Y-95909110D01*
X129412825Y-95761901D01*
X129287641Y-95499080D01*
X129113588Y-95265731D01*
X129029534Y-95189966D01*
X129110180Y-95165502D01*
X129220494Y-95106537D01*
X129317185Y-95027185D01*
X129396537Y-94930494D01*
X129455502Y-94820180D01*
X129491812Y-94700482D01*
X129504072Y-94576000D01*
X129504072Y-93320890D01*
X161118524Y-93320890D01*
X161163175Y-93468099D01*
X161288359Y-93730920D01*
X161462412Y-93964269D01*
X161678645Y-94159178D01*
X161928748Y-94308157D01*
X162203109Y-94405481D01*
X162433000Y-94284814D01*
X162433000Y-93091000D01*
X162687000Y-93091000D01*
X162687000Y-94284814D01*
X162916891Y-94405481D01*
X163191252Y-94308157D01*
X163441355Y-94159178D01*
X163657588Y-93964269D01*
X163831641Y-93730920D01*
X163956825Y-93468099D01*
X164001476Y-93320890D01*
X163880155Y-93091000D01*
X162687000Y-93091000D01*
X162433000Y-93091000D01*
X161239845Y-93091000D01*
X161118524Y-93320890D01*
X129504072Y-93320890D01*
X129504072Y-92876000D01*
X129491812Y-92751518D01*
X129455502Y-92631820D01*
X129396537Y-92521506D01*
X129317185Y-92424815D01*
X129220494Y-92345463D01*
X129110180Y-92286498D01*
X128990482Y-92250188D01*
X128866000Y-92237928D01*
X127166000Y-92237928D01*
X127041518Y-92250188D01*
X126921820Y-92286498D01*
X126811506Y-92345463D01*
X126714815Y-92424815D01*
X126635463Y-92521506D01*
X126576498Y-92631820D01*
X126540188Y-92751518D01*
X126527928Y-92876000D01*
X125755000Y-92876000D01*
X125755000Y-89574000D01*
X161071928Y-89574000D01*
X161071928Y-91274000D01*
X161084188Y-91398482D01*
X161120498Y-91518180D01*
X161179463Y-91628494D01*
X161258815Y-91725185D01*
X161355506Y-91804537D01*
X161465820Y-91863502D01*
X161546466Y-91887966D01*
X161462412Y-91963731D01*
X161288359Y-92197080D01*
X161163175Y-92459901D01*
X161118524Y-92607110D01*
X161239845Y-92837000D01*
X162433000Y-92837000D01*
X162433000Y-92817000D01*
X162687000Y-92817000D01*
X162687000Y-92837000D01*
X163880155Y-92837000D01*
X164001476Y-92607110D01*
X163956825Y-92459901D01*
X163831641Y-92197080D01*
X163657588Y-91963731D01*
X163573534Y-91887966D01*
X163654180Y-91863502D01*
X163764494Y-91804537D01*
X163861185Y-91725185D01*
X163940537Y-91628494D01*
X163999502Y-91518180D01*
X164035812Y-91398482D01*
X164048072Y-91274000D01*
X164048072Y-89574000D01*
X164035812Y-89449518D01*
X163999502Y-89329820D01*
X163940537Y-89219506D01*
X163861185Y-89122815D01*
X163764494Y-89043463D01*
X163654180Y-88984498D01*
X163534482Y-88948188D01*
X163410000Y-88935928D01*
X161710000Y-88935928D01*
X161585518Y-88948188D01*
X161465820Y-88984498D01*
X161355506Y-89043463D01*
X161258815Y-89122815D01*
X161179463Y-89219506D01*
X161120498Y-89329820D01*
X161084188Y-89449518D01*
X161071928Y-89574000D01*
X125755000Y-89574000D01*
X125755000Y-85363098D01*
X146713000Y-85363098D01*
X146713000Y-85832902D01*
X146804654Y-86293679D01*
X146984440Y-86727721D01*
X147245450Y-87118349D01*
X147577651Y-87450550D01*
X147968279Y-87711560D01*
X148402321Y-87891346D01*
X148863098Y-87983000D01*
X149332902Y-87983000D01*
X149793679Y-87891346D01*
X150227721Y-87711560D01*
X150618349Y-87450550D01*
X150950550Y-87118349D01*
X151211560Y-86727721D01*
X151391346Y-86293679D01*
X151483000Y-85832902D01*
X151483000Y-85363098D01*
X151793000Y-85363098D01*
X151793000Y-85832902D01*
X151884654Y-86293679D01*
X152064440Y-86727721D01*
X152325450Y-87118349D01*
X152657651Y-87450550D01*
X153048279Y-87711560D01*
X153482321Y-87891346D01*
X153943098Y-87983000D01*
X154412902Y-87983000D01*
X154873679Y-87891346D01*
X155307721Y-87711560D01*
X155698349Y-87450550D01*
X155881290Y-87267609D01*
X157767997Y-87267609D01*
X157954073Y-87608766D01*
X158371409Y-87824513D01*
X158822815Y-87954696D01*
X159290946Y-87994313D01*
X159757811Y-87941842D01*
X160205468Y-87799297D01*
X160561927Y-87608766D01*
X160748003Y-87267609D01*
X159258000Y-85777605D01*
X157767997Y-87267609D01*
X155881290Y-87267609D01*
X156030550Y-87118349D01*
X156291560Y-86727721D01*
X156471346Y-86293679D01*
X156563000Y-85832902D01*
X156563000Y-85630946D01*
X156861687Y-85630946D01*
X156914158Y-86097811D01*
X157056703Y-86545468D01*
X157247234Y-86901927D01*
X157588391Y-87088003D01*
X159078395Y-85598000D01*
X159437605Y-85598000D01*
X160927609Y-87088003D01*
X161268766Y-86901927D01*
X161484513Y-86484591D01*
X161614696Y-86033185D01*
X161654313Y-85565054D01*
X161601842Y-85098189D01*
X161459297Y-84650532D01*
X161268766Y-84294073D01*
X160927609Y-84107997D01*
X159437605Y-85598000D01*
X159078395Y-85598000D01*
X157588391Y-84107997D01*
X157247234Y-84294073D01*
X157031487Y-84711409D01*
X156901304Y-85162815D01*
X156861687Y-85630946D01*
X156563000Y-85630946D01*
X156563000Y-85363098D01*
X156471346Y-84902321D01*
X156291560Y-84468279D01*
X156030550Y-84077651D01*
X155881290Y-83928391D01*
X157767997Y-83928391D01*
X159258000Y-85418395D01*
X160748003Y-83928391D01*
X160561927Y-83587234D01*
X160144591Y-83371487D01*
X159693185Y-83241304D01*
X159225054Y-83201687D01*
X158758189Y-83254158D01*
X158310532Y-83396703D01*
X157954073Y-83587234D01*
X157767997Y-83928391D01*
X155881290Y-83928391D01*
X155698349Y-83745450D01*
X155307721Y-83484440D01*
X154873679Y-83304654D01*
X154412902Y-83213000D01*
X153943098Y-83213000D01*
X153482321Y-83304654D01*
X153048279Y-83484440D01*
X152657651Y-83745450D01*
X152325450Y-84077651D01*
X152064440Y-84468279D01*
X151884654Y-84902321D01*
X151793000Y-85363098D01*
X151483000Y-85363098D01*
X151391346Y-84902321D01*
X151211560Y-84468279D01*
X150950550Y-84077651D01*
X150618349Y-83745450D01*
X150227721Y-83484440D01*
X149793679Y-83304654D01*
X149332902Y-83213000D01*
X148863098Y-83213000D01*
X148402321Y-83304654D01*
X147968279Y-83484440D01*
X147577651Y-83745450D01*
X147245450Y-84077651D01*
X146984440Y-84468279D01*
X146804654Y-84902321D01*
X146713000Y-85363098D01*
X125755000Y-85363098D01*
X125755000Y-82716000D01*
X126527928Y-82716000D01*
X126527928Y-84416000D01*
X126540188Y-84540482D01*
X126576498Y-84660180D01*
X126635463Y-84770494D01*
X126714815Y-84867185D01*
X126811506Y-84946537D01*
X126921820Y-85005502D01*
X127041518Y-85041812D01*
X127166000Y-85054072D01*
X128866000Y-85054072D01*
X128990482Y-85041812D01*
X129110180Y-85005502D01*
X129220494Y-84946537D01*
X129317185Y-84867185D01*
X129396537Y-84770494D01*
X129455502Y-84660180D01*
X129491812Y-84540482D01*
X129504072Y-84416000D01*
X129504072Y-82716000D01*
X129491812Y-82591518D01*
X129455502Y-82471820D01*
X129396537Y-82361506D01*
X129317185Y-82264815D01*
X129220494Y-82185463D01*
X129110180Y-82126498D01*
X128990482Y-82090188D01*
X128866000Y-82077928D01*
X127166000Y-82077928D01*
X127041518Y-82090188D01*
X126921820Y-82126498D01*
X126811506Y-82185463D01*
X126714815Y-82264815D01*
X126635463Y-82361506D01*
X126576498Y-82471820D01*
X126540188Y-82591518D01*
X126527928Y-82716000D01*
X125755000Y-82716000D01*
X125755000Y-80670000D01*
X164440000Y-80670000D01*
X164440001Y-109195000D01*
%TA.AperFunction,Conductor*%
D15*
G36*
X164440001Y-109195000D02*
G01*
X125755000Y-109195000D01*
X125755000Y-104317117D01*
X155237000Y-104317117D01*
X155237000Y-104658883D01*
X155303675Y-104994081D01*
X155434463Y-105309831D01*
X155624337Y-105593998D01*
X155768339Y-105738000D01*
X155624337Y-105882002D01*
X155434463Y-106166169D01*
X155303675Y-106481919D01*
X155237000Y-106817117D01*
X155237000Y-107158883D01*
X155303675Y-107494081D01*
X155434463Y-107809831D01*
X155624337Y-108093998D01*
X155866002Y-108335663D01*
X156150169Y-108525537D01*
X156465919Y-108656325D01*
X156801117Y-108723000D01*
X157142883Y-108723000D01*
X157478081Y-108656325D01*
X157793831Y-108525537D01*
X158077998Y-108335663D01*
X158319663Y-108093998D01*
X158509537Y-107809831D01*
X158640325Y-107494081D01*
X158707000Y-107158883D01*
X158707000Y-106817117D01*
X158640325Y-106481919D01*
X158509537Y-106166169D01*
X158319663Y-105882002D01*
X158175661Y-105738000D01*
X158319663Y-105593998D01*
X158509537Y-105309831D01*
X158640325Y-104994081D01*
X158707000Y-104658883D01*
X158707000Y-104317117D01*
X158640325Y-103981919D01*
X158509537Y-103666169D01*
X158319663Y-103382002D01*
X158132373Y-103194712D01*
X160944893Y-103194712D01*
X161052726Y-103469338D01*
X161359384Y-103620216D01*
X161689585Y-103708369D01*
X162030639Y-103730409D01*
X162369439Y-103685489D01*
X162692966Y-103575336D01*
X162891274Y-103469338D01*
X162999107Y-103194712D01*
X161972000Y-102167605D01*
X160944893Y-103194712D01*
X158132373Y-103194712D01*
X158077998Y-103140337D01*
X157793831Y-102950463D01*
X157478081Y-102819675D01*
X157142883Y-102753000D01*
X156801117Y-102753000D01*
X156465919Y-102819675D01*
X156150169Y-102950463D01*
X155866002Y-103140337D01*
X155624337Y-103382002D01*
X155434463Y-103666169D01*
X155303675Y-103981919D01*
X155237000Y-104317117D01*
X125755000Y-104317117D01*
X125755000Y-102046639D01*
X160229591Y-102046639D01*
X160274511Y-102385439D01*
X160384664Y-102708966D01*
X160490662Y-102907274D01*
X160765288Y-103015107D01*
X161792395Y-101988000D01*
X162151605Y-101988000D01*
X163178712Y-103015107D01*
X163453338Y-102907274D01*
X163604216Y-102600616D01*
X163692369Y-102270415D01*
X163714409Y-101929361D01*
X163669489Y-101590561D01*
X163559336Y-101267034D01*
X163453338Y-101068726D01*
X163178712Y-100960893D01*
X162151605Y-101988000D01*
X161792395Y-101988000D01*
X160765288Y-100960893D01*
X160490662Y-101068726D01*
X160339784Y-101375384D01*
X160251631Y-101705585D01*
X160229591Y-102046639D01*
X125755000Y-102046639D01*
X125755000Y-96622890D01*
X126574524Y-96622890D01*
X126619175Y-96770099D01*
X126744359Y-97032920D01*
X126918412Y-97266269D01*
X127134645Y-97461178D01*
X127384748Y-97610157D01*
X127659109Y-97707481D01*
X127889000Y-97586814D01*
X127889000Y-96393000D01*
X128143000Y-96393000D01*
X128143000Y-97586814D01*
X128372891Y-97707481D01*
X128647252Y-97610157D01*
X128897355Y-97461178D01*
X129113588Y-97266269D01*
X129287641Y-97032920D01*
X129390429Y-96817117D01*
X155237000Y-96817117D01*
X155237000Y-97158883D01*
X155303675Y-97494081D01*
X155434463Y-97809831D01*
X155624337Y-98093998D01*
X155768339Y-98238000D01*
X155624337Y-98382002D01*
X155434463Y-98666169D01*
X155303675Y-98981919D01*
X155237000Y-99317117D01*
X155237000Y-99658883D01*
X155303675Y-99994081D01*
X155434463Y-100309831D01*
X155624337Y-100593998D01*
X155866002Y-100835663D01*
X156150169Y-101025537D01*
X156465919Y-101156325D01*
X156801117Y-101223000D01*
X157142883Y-101223000D01*
X157478081Y-101156325D01*
X157793831Y-101025537D01*
X158077998Y-100835663D01*
X158132373Y-100781288D01*
X160944893Y-100781288D01*
X161972000Y-101808395D01*
X162999107Y-100781288D01*
X162891274Y-100506662D01*
X162584616Y-100355784D01*
X162254415Y-100267631D01*
X161913361Y-100245591D01*
X161574561Y-100290511D01*
X161251034Y-100400664D01*
X161052726Y-100506662D01*
X160944893Y-100781288D01*
X158132373Y-100781288D01*
X158319663Y-100593998D01*
X158509537Y-100309831D01*
X158640325Y-99994081D01*
X158707000Y-99658883D01*
X158707000Y-99317117D01*
X158640325Y-98981919D01*
X158509537Y-98666169D01*
X158319663Y-98382002D01*
X158175661Y-98238000D01*
X158319663Y-98093998D01*
X158509537Y-97809831D01*
X158640325Y-97494081D01*
X158707000Y-97158883D01*
X158707000Y-96817117D01*
X158640325Y-96481919D01*
X158509537Y-96166169D01*
X158319663Y-95882002D01*
X158077998Y-95640337D01*
X157793831Y-95450463D01*
X157478081Y-95319675D01*
X157142883Y-95253000D01*
X156801117Y-95253000D01*
X156465919Y-95319675D01*
X156150169Y-95450463D01*
X155866002Y-95640337D01*
X155624337Y-95882002D01*
X155434463Y-96166169D01*
X155303675Y-96481919D01*
X155237000Y-96817117D01*
X129390429Y-96817117D01*
X129412825Y-96770099D01*
X129457476Y-96622890D01*
X129336155Y-96393000D01*
X128143000Y-96393000D01*
X127889000Y-96393000D01*
X126695845Y-96393000D01*
X126574524Y-96622890D01*
X125755000Y-96622890D01*
X125755000Y-92876000D01*
X126527928Y-92876000D01*
X126527928Y-94576000D01*
X126540188Y-94700482D01*
X126576498Y-94820180D01*
X126635463Y-94930494D01*
X126714815Y-95027185D01*
X126811506Y-95106537D01*
X126921820Y-95165502D01*
X127002466Y-95189966D01*
X126918412Y-95265731D01*
X126744359Y-95499080D01*
X126619175Y-95761901D01*
X126574524Y-95909110D01*
X126695845Y-96139000D01*
X127889000Y-96139000D01*
X127889000Y-96119000D01*
X128143000Y-96119000D01*
X128143000Y-96139000D01*
X129336155Y-96139000D01*
X129457476Y-95909110D01*
X129412825Y-95761901D01*
X129287641Y-95499080D01*
X129113588Y-95265731D01*
X129029534Y-95189966D01*
X129110180Y-95165502D01*
X129220494Y-95106537D01*
X129317185Y-95027185D01*
X129396537Y-94930494D01*
X129455502Y-94820180D01*
X129491812Y-94700482D01*
X129504072Y-94576000D01*
X129504072Y-93320890D01*
X161118524Y-93320890D01*
X161163175Y-93468099D01*
X161288359Y-93730920D01*
X161462412Y-93964269D01*
X161678645Y-94159178D01*
X161928748Y-94308157D01*
X162203109Y-94405481D01*
X162433000Y-94284814D01*
X162433000Y-93091000D01*
X162687000Y-93091000D01*
X162687000Y-94284814D01*
X162916891Y-94405481D01*
X163191252Y-94308157D01*
X163441355Y-94159178D01*
X163657588Y-93964269D01*
X163831641Y-93730920D01*
X163956825Y-93468099D01*
X164001476Y-93320890D01*
X163880155Y-93091000D01*
X162687000Y-93091000D01*
X162433000Y-93091000D01*
X161239845Y-93091000D01*
X161118524Y-93320890D01*
X129504072Y-93320890D01*
X129504072Y-92876000D01*
X129491812Y-92751518D01*
X129455502Y-92631820D01*
X129396537Y-92521506D01*
X129317185Y-92424815D01*
X129220494Y-92345463D01*
X129110180Y-92286498D01*
X128990482Y-92250188D01*
X128866000Y-92237928D01*
X127166000Y-92237928D01*
X127041518Y-92250188D01*
X126921820Y-92286498D01*
X126811506Y-92345463D01*
X126714815Y-92424815D01*
X126635463Y-92521506D01*
X126576498Y-92631820D01*
X126540188Y-92751518D01*
X126527928Y-92876000D01*
X125755000Y-92876000D01*
X125755000Y-89574000D01*
X161071928Y-89574000D01*
X161071928Y-91274000D01*
X161084188Y-91398482D01*
X161120498Y-91518180D01*
X161179463Y-91628494D01*
X161258815Y-91725185D01*
X161355506Y-91804537D01*
X161465820Y-91863502D01*
X161546466Y-91887966D01*
X161462412Y-91963731D01*
X161288359Y-92197080D01*
X161163175Y-92459901D01*
X161118524Y-92607110D01*
X161239845Y-92837000D01*
X162433000Y-92837000D01*
X162433000Y-92817000D01*
X162687000Y-92817000D01*
X162687000Y-92837000D01*
X163880155Y-92837000D01*
X164001476Y-92607110D01*
X163956825Y-92459901D01*
X163831641Y-92197080D01*
X163657588Y-91963731D01*
X163573534Y-91887966D01*
X163654180Y-91863502D01*
X163764494Y-91804537D01*
X163861185Y-91725185D01*
X163940537Y-91628494D01*
X163999502Y-91518180D01*
X164035812Y-91398482D01*
X164048072Y-91274000D01*
X164048072Y-89574000D01*
X164035812Y-89449518D01*
X163999502Y-89329820D01*
X163940537Y-89219506D01*
X163861185Y-89122815D01*
X163764494Y-89043463D01*
X163654180Y-88984498D01*
X163534482Y-88948188D01*
X163410000Y-88935928D01*
X161710000Y-88935928D01*
X161585518Y-88948188D01*
X161465820Y-88984498D01*
X161355506Y-89043463D01*
X161258815Y-89122815D01*
X161179463Y-89219506D01*
X161120498Y-89329820D01*
X161084188Y-89449518D01*
X161071928Y-89574000D01*
X125755000Y-89574000D01*
X125755000Y-85363098D01*
X146713000Y-85363098D01*
X146713000Y-85832902D01*
X146804654Y-86293679D01*
X146984440Y-86727721D01*
X147245450Y-87118349D01*
X147577651Y-87450550D01*
X147968279Y-87711560D01*
X148402321Y-87891346D01*
X148863098Y-87983000D01*
X149332902Y-87983000D01*
X149793679Y-87891346D01*
X150227721Y-87711560D01*
X150618349Y-87450550D01*
X150950550Y-87118349D01*
X151211560Y-86727721D01*
X151391346Y-86293679D01*
X151483000Y-85832902D01*
X151483000Y-85363098D01*
X151793000Y-85363098D01*
X151793000Y-85832902D01*
X151884654Y-86293679D01*
X152064440Y-86727721D01*
X152325450Y-87118349D01*
X152657651Y-87450550D01*
X153048279Y-87711560D01*
X153482321Y-87891346D01*
X153943098Y-87983000D01*
X154412902Y-87983000D01*
X154873679Y-87891346D01*
X155307721Y-87711560D01*
X155698349Y-87450550D01*
X155881290Y-87267609D01*
X157767997Y-87267609D01*
X157954073Y-87608766D01*
X158371409Y-87824513D01*
X158822815Y-87954696D01*
X159290946Y-87994313D01*
X159757811Y-87941842D01*
X160205468Y-87799297D01*
X160561927Y-87608766D01*
X160748003Y-87267609D01*
X159258000Y-85777605D01*
X157767997Y-87267609D01*
X155881290Y-87267609D01*
X156030550Y-87118349D01*
X156291560Y-86727721D01*
X156471346Y-86293679D01*
X156563000Y-85832902D01*
X156563000Y-85630946D01*
X156861687Y-85630946D01*
X156914158Y-86097811D01*
X157056703Y-86545468D01*
X157247234Y-86901927D01*
X157588391Y-87088003D01*
X159078395Y-85598000D01*
X159437605Y-85598000D01*
X160927609Y-87088003D01*
X161268766Y-86901927D01*
X161484513Y-86484591D01*
X161614696Y-86033185D01*
X161654313Y-85565054D01*
X161601842Y-85098189D01*
X161459297Y-84650532D01*
X161268766Y-84294073D01*
X160927609Y-84107997D01*
X159437605Y-85598000D01*
X159078395Y-85598000D01*
X157588391Y-84107997D01*
X157247234Y-84294073D01*
X157031487Y-84711409D01*
X156901304Y-85162815D01*
X156861687Y-85630946D01*
X156563000Y-85630946D01*
X156563000Y-85363098D01*
X156471346Y-84902321D01*
X156291560Y-84468279D01*
X156030550Y-84077651D01*
X155881290Y-83928391D01*
X157767997Y-83928391D01*
X159258000Y-85418395D01*
X160748003Y-83928391D01*
X160561927Y-83587234D01*
X160144591Y-83371487D01*
X159693185Y-83241304D01*
X159225054Y-83201687D01*
X158758189Y-83254158D01*
X158310532Y-83396703D01*
X157954073Y-83587234D01*
X157767997Y-83928391D01*
X155881290Y-83928391D01*
X155698349Y-83745450D01*
X155307721Y-83484440D01*
X154873679Y-83304654D01*
X154412902Y-83213000D01*
X153943098Y-83213000D01*
X153482321Y-83304654D01*
X153048279Y-83484440D01*
X152657651Y-83745450D01*
X152325450Y-84077651D01*
X152064440Y-84468279D01*
X151884654Y-84902321D01*
X151793000Y-85363098D01*
X151483000Y-85363098D01*
X151391346Y-84902321D01*
X151211560Y-84468279D01*
X150950550Y-84077651D01*
X150618349Y-83745450D01*
X150227721Y-83484440D01*
X149793679Y-83304654D01*
X149332902Y-83213000D01*
X148863098Y-83213000D01*
X148402321Y-83304654D01*
X147968279Y-83484440D01*
X147577651Y-83745450D01*
X147245450Y-84077651D01*
X146984440Y-84468279D01*
X146804654Y-84902321D01*
X146713000Y-85363098D01*
X125755000Y-85363098D01*
X125755000Y-82716000D01*
X126527928Y-82716000D01*
X126527928Y-84416000D01*
X126540188Y-84540482D01*
X126576498Y-84660180D01*
X126635463Y-84770494D01*
X126714815Y-84867185D01*
X126811506Y-84946537D01*
X126921820Y-85005502D01*
X127041518Y-85041812D01*
X127166000Y-85054072D01*
X128866000Y-85054072D01*
X128990482Y-85041812D01*
X129110180Y-85005502D01*
X129220494Y-84946537D01*
X129317185Y-84867185D01*
X129396537Y-84770494D01*
X129455502Y-84660180D01*
X129491812Y-84540482D01*
X129504072Y-84416000D01*
X129504072Y-82716000D01*
X129491812Y-82591518D01*
X129455502Y-82471820D01*
X129396537Y-82361506D01*
X129317185Y-82264815D01*
X129220494Y-82185463D01*
X129110180Y-82126498D01*
X128990482Y-82090188D01*
X128866000Y-82077928D01*
X127166000Y-82077928D01*
X127041518Y-82090188D01*
X126921820Y-82126498D01*
X126811506Y-82185463D01*
X126714815Y-82264815D01*
X126635463Y-82361506D01*
X126576498Y-82471820D01*
X126540188Y-82591518D01*
X126527928Y-82716000D01*
X125755000Y-82716000D01*
X125755000Y-80670000D01*
X164440000Y-80670000D01*
X164440001Y-109195000D01*
G37*
%TD.AperFunction*%
%TD*%
M02*
