%TF.GenerationSoftware,KiCad,Pcbnew,5.1.10-88a1d61d58~88~ubuntu16.04.1*%
%TF.CreationDate,2021-09-03T12:29:31+02:00*%
%TF.ProjectId,80mrx,38306d72-782e-46b6-9963-61645f706362,rev?*%
%TF.SameCoordinates,Original*%
%TF.FileFunction,Paste,Top*%
%TF.FilePolarity,Positive*%
%FSLAX46Y46*%
G04 Gerber Fmt 4.6, Leading zero omitted, Abs format (unit mm)*
G04 Created by KiCad (PCBNEW 5.1.10-88a1d61d58~88~ubuntu16.04.1) date 2021-09-03 12:29:31*
%MOMM*%
%LPD*%
G01*
G04 APERTURE LIST*
%ADD10R,7.875000X2.000000*%
%ADD11R,0.800000X0.900000*%
%ADD12R,0.900000X0.800000*%
G04 APERTURE END LIST*
D10*
%TO.C,Y1*%
X131635000Y-105918000D03*
X143510000Y-105918000D03*
%TD*%
%TO.C,C1*%
G36*
G01*
X130335000Y-93795000D02*
X131285000Y-93795000D01*
G75*
G02*
X131535000Y-94045000I0J-250000D01*
G01*
X131535000Y-94720000D01*
G75*
G02*
X131285000Y-94970000I-250000J0D01*
G01*
X130335000Y-94970000D01*
G75*
G02*
X130085000Y-94720000I0J250000D01*
G01*
X130085000Y-94045000D01*
G75*
G02*
X130335000Y-93795000I250000J0D01*
G01*
G37*
G36*
G01*
X130335000Y-91720000D02*
X131285000Y-91720000D01*
G75*
G02*
X131535000Y-91970000I0J-250000D01*
G01*
X131535000Y-92645000D01*
G75*
G02*
X131285000Y-92895000I-250000J0D01*
G01*
X130335000Y-92895000D01*
G75*
G02*
X130085000Y-92645000I0J250000D01*
G01*
X130085000Y-91970000D01*
G75*
G02*
X130335000Y-91720000I250000J0D01*
G01*
G37*
%TD*%
%TO.C,C2*%
G36*
G01*
X137000000Y-83878000D02*
X136050000Y-83878000D01*
G75*
G02*
X135800000Y-83628000I0J250000D01*
G01*
X135800000Y-82953000D01*
G75*
G02*
X136050000Y-82703000I250000J0D01*
G01*
X137000000Y-82703000D01*
G75*
G02*
X137250000Y-82953000I0J-250000D01*
G01*
X137250000Y-83628000D01*
G75*
G02*
X137000000Y-83878000I-250000J0D01*
G01*
G37*
G36*
G01*
X137000000Y-85953000D02*
X136050000Y-85953000D01*
G75*
G02*
X135800000Y-85703000I0J250000D01*
G01*
X135800000Y-85028000D01*
G75*
G02*
X136050000Y-84778000I250000J0D01*
G01*
X137000000Y-84778000D01*
G75*
G02*
X137250000Y-85028000I0J-250000D01*
G01*
X137250000Y-85703000D01*
G75*
G02*
X137000000Y-85953000I-250000J0D01*
G01*
G37*
%TD*%
%TO.C,C3*%
G36*
G01*
X132413500Y-89949000D02*
X132413500Y-90899000D01*
G75*
G02*
X132163500Y-91149000I-250000J0D01*
G01*
X131488500Y-91149000D01*
G75*
G02*
X131238500Y-90899000I0J250000D01*
G01*
X131238500Y-89949000D01*
G75*
G02*
X131488500Y-89699000I250000J0D01*
G01*
X132163500Y-89699000D01*
G75*
G02*
X132413500Y-89949000I0J-250000D01*
G01*
G37*
G36*
G01*
X130338500Y-89949000D02*
X130338500Y-90899000D01*
G75*
G02*
X130088500Y-91149000I-250000J0D01*
G01*
X129413500Y-91149000D01*
G75*
G02*
X129163500Y-90899000I0J250000D01*
G01*
X129163500Y-89949000D01*
G75*
G02*
X129413500Y-89699000I250000J0D01*
G01*
X130088500Y-89699000D01*
G75*
G02*
X130338500Y-89949000I0J-250000D01*
G01*
G37*
%TD*%
%TO.C,C4*%
G36*
G01*
X145001000Y-83921000D02*
X144051000Y-83921000D01*
G75*
G02*
X143801000Y-83671000I0J250000D01*
G01*
X143801000Y-82996000D01*
G75*
G02*
X144051000Y-82746000I250000J0D01*
G01*
X145001000Y-82746000D01*
G75*
G02*
X145251000Y-82996000I0J-250000D01*
G01*
X145251000Y-83671000D01*
G75*
G02*
X145001000Y-83921000I-250000J0D01*
G01*
G37*
G36*
G01*
X145001000Y-81846000D02*
X144051000Y-81846000D01*
G75*
G02*
X143801000Y-81596000I0J250000D01*
G01*
X143801000Y-80921000D01*
G75*
G02*
X144051000Y-80671000I250000J0D01*
G01*
X145001000Y-80671000D01*
G75*
G02*
X145251000Y-80921000I0J-250000D01*
G01*
X145251000Y-81596000D01*
G75*
G02*
X145001000Y-81846000I-250000J0D01*
G01*
G37*
%TD*%
%TO.C,C5*%
G36*
G01*
X131285000Y-98928500D02*
X130335000Y-98928500D01*
G75*
G02*
X130085000Y-98678500I0J250000D01*
G01*
X130085000Y-98003500D01*
G75*
G02*
X130335000Y-97753500I250000J0D01*
G01*
X131285000Y-97753500D01*
G75*
G02*
X131535000Y-98003500I0J-250000D01*
G01*
X131535000Y-98678500D01*
G75*
G02*
X131285000Y-98928500I-250000J0D01*
G01*
G37*
G36*
G01*
X131285000Y-96853500D02*
X130335000Y-96853500D01*
G75*
G02*
X130085000Y-96603500I0J250000D01*
G01*
X130085000Y-95928500D01*
G75*
G02*
X130335000Y-95678500I250000J0D01*
G01*
X131285000Y-95678500D01*
G75*
G02*
X131535000Y-95928500I0J-250000D01*
G01*
X131535000Y-96603500D01*
G75*
G02*
X131285000Y-96853500I-250000J0D01*
G01*
G37*
%TD*%
%TO.C,C6*%
G36*
G01*
X137261000Y-100617000D02*
X137261000Y-101567000D01*
G75*
G02*
X137011000Y-101817000I-250000J0D01*
G01*
X136336000Y-101817000D01*
G75*
G02*
X136086000Y-101567000I0J250000D01*
G01*
X136086000Y-100617000D01*
G75*
G02*
X136336000Y-100367000I250000J0D01*
G01*
X137011000Y-100367000D01*
G75*
G02*
X137261000Y-100617000I0J-250000D01*
G01*
G37*
G36*
G01*
X135186000Y-100617000D02*
X135186000Y-101567000D01*
G75*
G02*
X134936000Y-101817000I-250000J0D01*
G01*
X134261000Y-101817000D01*
G75*
G02*
X134011000Y-101567000I0J250000D01*
G01*
X134011000Y-100617000D01*
G75*
G02*
X134261000Y-100367000I250000J0D01*
G01*
X134936000Y-100367000D01*
G75*
G02*
X135186000Y-100617000I0J-250000D01*
G01*
G37*
%TD*%
%TO.C,C7*%
G36*
G01*
X139017500Y-100617000D02*
X139017500Y-101567000D01*
G75*
G02*
X138767500Y-101817000I-250000J0D01*
G01*
X138092500Y-101817000D01*
G75*
G02*
X137842500Y-101567000I0J250000D01*
G01*
X137842500Y-100617000D01*
G75*
G02*
X138092500Y-100367000I250000J0D01*
G01*
X138767500Y-100367000D01*
G75*
G02*
X139017500Y-100617000I0J-250000D01*
G01*
G37*
G36*
G01*
X141092500Y-100617000D02*
X141092500Y-101567000D01*
G75*
G02*
X140842500Y-101817000I-250000J0D01*
G01*
X140167500Y-101817000D01*
G75*
G02*
X139917500Y-101567000I0J250000D01*
G01*
X139917500Y-100617000D01*
G75*
G02*
X140167500Y-100367000I250000J0D01*
G01*
X140842500Y-100367000D01*
G75*
G02*
X141092500Y-100617000I0J-250000D01*
G01*
G37*
%TD*%
%TO.C,C8*%
G36*
G01*
X136050000Y-88715000D02*
X137000000Y-88715000D01*
G75*
G02*
X137250000Y-88965000I0J-250000D01*
G01*
X137250000Y-89640000D01*
G75*
G02*
X137000000Y-89890000I-250000J0D01*
G01*
X136050000Y-89890000D01*
G75*
G02*
X135800000Y-89640000I0J250000D01*
G01*
X135800000Y-88965000D01*
G75*
G02*
X136050000Y-88715000I250000J0D01*
G01*
G37*
G36*
G01*
X136050000Y-86640000D02*
X137000000Y-86640000D01*
G75*
G02*
X137250000Y-86890000I0J-250000D01*
G01*
X137250000Y-87565000D01*
G75*
G02*
X137000000Y-87815000I-250000J0D01*
G01*
X136050000Y-87815000D01*
G75*
G02*
X135800000Y-87565000I0J250000D01*
G01*
X135800000Y-86890000D01*
G75*
G02*
X136050000Y-86640000I250000J0D01*
G01*
G37*
%TD*%
%TO.C,C9*%
G36*
G01*
X137000000Y-91625000D02*
X136050000Y-91625000D01*
G75*
G02*
X135800000Y-91375000I0J250000D01*
G01*
X135800000Y-90700000D01*
G75*
G02*
X136050000Y-90450000I250000J0D01*
G01*
X137000000Y-90450000D01*
G75*
G02*
X137250000Y-90700000I0J-250000D01*
G01*
X137250000Y-91375000D01*
G75*
G02*
X137000000Y-91625000I-250000J0D01*
G01*
G37*
G36*
G01*
X137000000Y-93700000D02*
X136050000Y-93700000D01*
G75*
G02*
X135800000Y-93450000I0J250000D01*
G01*
X135800000Y-92775000D01*
G75*
G02*
X136050000Y-92525000I250000J0D01*
G01*
X137000000Y-92525000D01*
G75*
G02*
X137250000Y-92775000I0J-250000D01*
G01*
X137250000Y-93450000D01*
G75*
G02*
X137000000Y-93700000I-250000J0D01*
G01*
G37*
%TD*%
%TO.C,C10*%
G36*
G01*
X137000000Y-95583500D02*
X136050000Y-95583500D01*
G75*
G02*
X135800000Y-95333500I0J250000D01*
G01*
X135800000Y-94658500D01*
G75*
G02*
X136050000Y-94408500I250000J0D01*
G01*
X137000000Y-94408500D01*
G75*
G02*
X137250000Y-94658500I0J-250000D01*
G01*
X137250000Y-95333500D01*
G75*
G02*
X137000000Y-95583500I-250000J0D01*
G01*
G37*
G36*
G01*
X137000000Y-97658500D02*
X136050000Y-97658500D01*
G75*
G02*
X135800000Y-97408500I0J250000D01*
G01*
X135800000Y-96733500D01*
G75*
G02*
X136050000Y-96483500I250000J0D01*
G01*
X137000000Y-96483500D01*
G75*
G02*
X137250000Y-96733500I0J-250000D01*
G01*
X137250000Y-97408500D01*
G75*
G02*
X137000000Y-97658500I-250000J0D01*
G01*
G37*
%TD*%
%TO.C,C11*%
G36*
G01*
X139159000Y-85953000D02*
X138209000Y-85953000D01*
G75*
G02*
X137959000Y-85703000I0J250000D01*
G01*
X137959000Y-85028000D01*
G75*
G02*
X138209000Y-84778000I250000J0D01*
G01*
X139159000Y-84778000D01*
G75*
G02*
X139409000Y-85028000I0J-250000D01*
G01*
X139409000Y-85703000D01*
G75*
G02*
X139159000Y-85953000I-250000J0D01*
G01*
G37*
G36*
G01*
X139159000Y-83878000D02*
X138209000Y-83878000D01*
G75*
G02*
X137959000Y-83628000I0J250000D01*
G01*
X137959000Y-82953000D01*
G75*
G02*
X138209000Y-82703000I250000J0D01*
G01*
X139159000Y-82703000D01*
G75*
G02*
X139409000Y-82953000I0J-250000D01*
G01*
X139409000Y-83628000D01*
G75*
G02*
X139159000Y-83878000I-250000J0D01*
G01*
G37*
%TD*%
%TO.C,C12*%
G36*
G01*
X140241000Y-94408500D02*
X141191000Y-94408500D01*
G75*
G02*
X141441000Y-94658500I0J-250000D01*
G01*
X141441000Y-95333500D01*
G75*
G02*
X141191000Y-95583500I-250000J0D01*
G01*
X140241000Y-95583500D01*
G75*
G02*
X139991000Y-95333500I0J250000D01*
G01*
X139991000Y-94658500D01*
G75*
G02*
X140241000Y-94408500I250000J0D01*
G01*
G37*
G36*
G01*
X140241000Y-96483500D02*
X141191000Y-96483500D01*
G75*
G02*
X141441000Y-96733500I0J-250000D01*
G01*
X141441000Y-97408500D01*
G75*
G02*
X141191000Y-97658500I-250000J0D01*
G01*
X140241000Y-97658500D01*
G75*
G02*
X139991000Y-97408500I0J250000D01*
G01*
X139991000Y-96733500D01*
G75*
G02*
X140241000Y-96483500I250000J0D01*
G01*
G37*
%TD*%
%TO.C,C13*%
G36*
G01*
X143477000Y-93530000D02*
X142527000Y-93530000D01*
G75*
G02*
X142277000Y-93280000I0J250000D01*
G01*
X142277000Y-92605000D01*
G75*
G02*
X142527000Y-92355000I250000J0D01*
G01*
X143477000Y-92355000D01*
G75*
G02*
X143727000Y-92605000I0J-250000D01*
G01*
X143727000Y-93280000D01*
G75*
G02*
X143477000Y-93530000I-250000J0D01*
G01*
G37*
G36*
G01*
X143477000Y-95605000D02*
X142527000Y-95605000D01*
G75*
G02*
X142277000Y-95355000I0J250000D01*
G01*
X142277000Y-94680000D01*
G75*
G02*
X142527000Y-94430000I250000J0D01*
G01*
X143477000Y-94430000D01*
G75*
G02*
X143727000Y-94680000I0J-250000D01*
G01*
X143727000Y-95355000D01*
G75*
G02*
X143477000Y-95605000I-250000J0D01*
G01*
G37*
%TD*%
%TO.C,C14*%
G36*
G01*
X158595500Y-90312002D02*
X158595500Y-89011998D01*
G75*
G02*
X158845498Y-88762000I249998J0D01*
G01*
X159670502Y-88762000D01*
G75*
G02*
X159920500Y-89011998I0J-249998D01*
G01*
X159920500Y-90312002D01*
G75*
G02*
X159670502Y-90562000I-249998J0D01*
G01*
X158845498Y-90562000D01*
G75*
G02*
X158595500Y-90312002I0J249998D01*
G01*
G37*
G36*
G01*
X155470500Y-90312002D02*
X155470500Y-89011998D01*
G75*
G02*
X155720498Y-88762000I249998J0D01*
G01*
X156545502Y-88762000D01*
G75*
G02*
X156795500Y-89011998I0J-249998D01*
G01*
X156795500Y-90312002D01*
G75*
G02*
X156545502Y-90562000I-249998J0D01*
G01*
X155720498Y-90562000D01*
G75*
G02*
X155470500Y-90312002I0J249998D01*
G01*
G37*
%TD*%
%TO.C,C15*%
G36*
G01*
X145763000Y-97383000D02*
X144813000Y-97383000D01*
G75*
G02*
X144563000Y-97133000I0J250000D01*
G01*
X144563000Y-96458000D01*
G75*
G02*
X144813000Y-96208000I250000J0D01*
G01*
X145763000Y-96208000D01*
G75*
G02*
X146013000Y-96458000I0J-250000D01*
G01*
X146013000Y-97133000D01*
G75*
G02*
X145763000Y-97383000I-250000J0D01*
G01*
G37*
G36*
G01*
X145763000Y-95308000D02*
X144813000Y-95308000D01*
G75*
G02*
X144563000Y-95058000I0J250000D01*
G01*
X144563000Y-94383000D01*
G75*
G02*
X144813000Y-94133000I250000J0D01*
G01*
X145763000Y-94133000D01*
G75*
G02*
X146013000Y-94383000I0J-250000D01*
G01*
X146013000Y-95058000D01*
G75*
G02*
X145763000Y-95308000I-250000J0D01*
G01*
G37*
%TD*%
%TO.C,C16*%
G36*
G01*
X153220000Y-91473000D02*
X153220000Y-92423000D01*
G75*
G02*
X152970000Y-92673000I-250000J0D01*
G01*
X152295000Y-92673000D01*
G75*
G02*
X152045000Y-92423000I0J250000D01*
G01*
X152045000Y-91473000D01*
G75*
G02*
X152295000Y-91223000I250000J0D01*
G01*
X152970000Y-91223000D01*
G75*
G02*
X153220000Y-91473000I0J-250000D01*
G01*
G37*
G36*
G01*
X155295000Y-91473000D02*
X155295000Y-92423000D01*
G75*
G02*
X155045000Y-92673000I-250000J0D01*
G01*
X154370000Y-92673000D01*
G75*
G02*
X154120000Y-92423000I0J250000D01*
G01*
X154120000Y-91473000D01*
G75*
G02*
X154370000Y-91223000I250000J0D01*
G01*
X155045000Y-91223000D01*
G75*
G02*
X155295000Y-91473000I0J-250000D01*
G01*
G37*
%TD*%
%TO.C,C17*%
G36*
G01*
X145255000Y-102717000D02*
X144305000Y-102717000D01*
G75*
G02*
X144055000Y-102467000I0J250000D01*
G01*
X144055000Y-101792000D01*
G75*
G02*
X144305000Y-101542000I250000J0D01*
G01*
X145255000Y-101542000D01*
G75*
G02*
X145505000Y-101792000I0J-250000D01*
G01*
X145505000Y-102467000D01*
G75*
G02*
X145255000Y-102717000I-250000J0D01*
G01*
G37*
G36*
G01*
X145255000Y-100642000D02*
X144305000Y-100642000D01*
G75*
G02*
X144055000Y-100392000I0J250000D01*
G01*
X144055000Y-99717000D01*
G75*
G02*
X144305000Y-99467000I250000J0D01*
G01*
X145255000Y-99467000D01*
G75*
G02*
X145505000Y-99717000I0J-250000D01*
G01*
X145505000Y-100392000D01*
G75*
G02*
X145255000Y-100642000I-250000J0D01*
G01*
G37*
%TD*%
%TO.C,C18*%
G36*
G01*
X148651000Y-107584002D02*
X148651000Y-106283998D01*
G75*
G02*
X148900998Y-106034000I249998J0D01*
G01*
X149726002Y-106034000D01*
G75*
G02*
X149976000Y-106283998I0J-249998D01*
G01*
X149976000Y-107584002D01*
G75*
G02*
X149726002Y-107834000I-249998J0D01*
G01*
X148900998Y-107834000D01*
G75*
G02*
X148651000Y-107584002I0J249998D01*
G01*
G37*
G36*
G01*
X151776000Y-107584002D02*
X151776000Y-106283998D01*
G75*
G02*
X152025998Y-106034000I249998J0D01*
G01*
X152851002Y-106034000D01*
G75*
G02*
X153101000Y-106283998I0J-249998D01*
G01*
X153101000Y-107584002D01*
G75*
G02*
X152851002Y-107834000I-249998J0D01*
G01*
X152025998Y-107834000D01*
G75*
G02*
X151776000Y-107584002I0J249998D01*
G01*
G37*
%TD*%
%TO.C,L2*%
G36*
G01*
X133411999Y-86486500D02*
X134812001Y-86486500D01*
G75*
G02*
X135062000Y-86736499I0J-249999D01*
G01*
X135062000Y-87461501D01*
G75*
G02*
X134812001Y-87711500I-249999J0D01*
G01*
X133411999Y-87711500D01*
G75*
G02*
X133162000Y-87461501I0J249999D01*
G01*
X133162000Y-86736499D01*
G75*
G02*
X133411999Y-86486500I249999J0D01*
G01*
G37*
G36*
G01*
X133411999Y-89811500D02*
X134812001Y-89811500D01*
G75*
G02*
X135062000Y-90061499I0J-249999D01*
G01*
X135062000Y-90786501D01*
G75*
G02*
X134812001Y-91036500I-249999J0D01*
G01*
X133411999Y-91036500D01*
G75*
G02*
X133162000Y-90786501I0J249999D01*
G01*
X133162000Y-90061499D01*
G75*
G02*
X133411999Y-89811500I249999J0D01*
G01*
G37*
%TD*%
D11*
%TO.C,Q1*%
X141732000Y-85328000D03*
X140782000Y-83328000D03*
X142682000Y-83328000D03*
%TD*%
D12*
%TO.C,Q2*%
X132620000Y-92395000D03*
X132620000Y-94295000D03*
X134620000Y-93345000D03*
%TD*%
%TO.C,Q3*%
X132604000Y-98044000D03*
X134604000Y-97094000D03*
X134604000Y-98994000D03*
%TD*%
%TO.C,Q4*%
X138700000Y-91125000D03*
X138700000Y-93025000D03*
X140700000Y-92075000D03*
%TD*%
%TO.C,Q5*%
X147082000Y-93284000D03*
X147082000Y-95184000D03*
X149082000Y-94234000D03*
%TD*%
D11*
%TO.C,Q6*%
X148082000Y-98790000D03*
X147132000Y-96790000D03*
X149032000Y-96790000D03*
%TD*%
D12*
%TO.C,Q7*%
X146828000Y-100396000D03*
X146828000Y-102296000D03*
X148828000Y-101346000D03*
%TD*%
%TO.C,R1*%
G36*
G01*
X128327999Y-87776000D02*
X129228001Y-87776000D01*
G75*
G02*
X129478000Y-88025999I0J-249999D01*
G01*
X129478000Y-88726001D01*
G75*
G02*
X129228001Y-88976000I-249999J0D01*
G01*
X128327999Y-88976000D01*
G75*
G02*
X128078000Y-88726001I0J249999D01*
G01*
X128078000Y-88025999D01*
G75*
G02*
X128327999Y-87776000I249999J0D01*
G01*
G37*
G36*
G01*
X128327999Y-85776000D02*
X129228001Y-85776000D01*
G75*
G02*
X129478000Y-86025999I0J-249999D01*
G01*
X129478000Y-86726001D01*
G75*
G02*
X129228001Y-86976000I-249999J0D01*
G01*
X128327999Y-86976000D01*
G75*
G02*
X128078000Y-86726001I0J249999D01*
G01*
X128078000Y-86025999D01*
G75*
G02*
X128327999Y-85776000I249999J0D01*
G01*
G37*
%TD*%
%TO.C,R2*%
G36*
G01*
X130359999Y-87792000D02*
X131260001Y-87792000D01*
G75*
G02*
X131510000Y-88041999I0J-249999D01*
G01*
X131510000Y-88742001D01*
G75*
G02*
X131260001Y-88992000I-249999J0D01*
G01*
X130359999Y-88992000D01*
G75*
G02*
X130110000Y-88742001I0J249999D01*
G01*
X130110000Y-88041999D01*
G75*
G02*
X130359999Y-87792000I249999J0D01*
G01*
G37*
G36*
G01*
X130359999Y-85792000D02*
X131260001Y-85792000D01*
G75*
G02*
X131510000Y-86041999I0J-249999D01*
G01*
X131510000Y-86742001D01*
G75*
G02*
X131260001Y-86992000I-249999J0D01*
G01*
X130359999Y-86992000D01*
G75*
G02*
X130110000Y-86742001I0J249999D01*
G01*
X130110000Y-86041999D01*
G75*
G02*
X130359999Y-85792000I249999J0D01*
G01*
G37*
%TD*%
%TO.C,R3*%
G36*
G01*
X133661999Y-82744000D02*
X134562001Y-82744000D01*
G75*
G02*
X134812000Y-82993999I0J-249999D01*
G01*
X134812000Y-83694001D01*
G75*
G02*
X134562001Y-83944000I-249999J0D01*
G01*
X133661999Y-83944000D01*
G75*
G02*
X133412000Y-83694001I0J249999D01*
G01*
X133412000Y-82993999D01*
G75*
G02*
X133661999Y-82744000I249999J0D01*
G01*
G37*
G36*
G01*
X133661999Y-84744000D02*
X134562001Y-84744000D01*
G75*
G02*
X134812000Y-84993999I0J-249999D01*
G01*
X134812000Y-85694001D01*
G75*
G02*
X134562001Y-85944000I-249999J0D01*
G01*
X133661999Y-85944000D01*
G75*
G02*
X133412000Y-85694001I0J249999D01*
G01*
X133412000Y-84993999D01*
G75*
G02*
X133661999Y-84744000I249999J0D01*
G01*
G37*
%TD*%
%TO.C,R4*%
G36*
G01*
X132242000Y-101542001D02*
X132242000Y-100641999D01*
G75*
G02*
X132491999Y-100392000I249999J0D01*
G01*
X133192001Y-100392000D01*
G75*
G02*
X133442000Y-100641999I0J-249999D01*
G01*
X133442000Y-101542001D01*
G75*
G02*
X133192001Y-101792000I-249999J0D01*
G01*
X132491999Y-101792000D01*
G75*
G02*
X132242000Y-101542001I0J249999D01*
G01*
G37*
G36*
G01*
X130242000Y-101542001D02*
X130242000Y-100641999D01*
G75*
G02*
X130491999Y-100392000I249999J0D01*
G01*
X131192001Y-100392000D01*
G75*
G02*
X131442000Y-100641999I0J-249999D01*
G01*
X131442000Y-101542001D01*
G75*
G02*
X131192001Y-101792000I-249999J0D01*
G01*
X130491999Y-101792000D01*
G75*
G02*
X130242000Y-101542001I0J249999D01*
G01*
G37*
%TD*%
%TO.C,R5*%
G36*
G01*
X136068000Y-99510001D02*
X136068000Y-98609999D01*
G75*
G02*
X136317999Y-98360000I249999J0D01*
G01*
X137018001Y-98360000D01*
G75*
G02*
X137268000Y-98609999I0J-249999D01*
G01*
X137268000Y-99510001D01*
G75*
G02*
X137018001Y-99760000I-249999J0D01*
G01*
X136317999Y-99760000D01*
G75*
G02*
X136068000Y-99510001I0J249999D01*
G01*
G37*
G36*
G01*
X138068000Y-99510001D02*
X138068000Y-98609999D01*
G75*
G02*
X138317999Y-98360000I249999J0D01*
G01*
X139018001Y-98360000D01*
G75*
G02*
X139268000Y-98609999I0J-249999D01*
G01*
X139268000Y-99510001D01*
G75*
G02*
X139018001Y-99760000I-249999J0D01*
G01*
X138317999Y-99760000D01*
G75*
G02*
X138068000Y-99510001I0J249999D01*
G01*
G37*
%TD*%
%TO.C,R6*%
G36*
G01*
X138233999Y-86665000D02*
X139134001Y-86665000D01*
G75*
G02*
X139384000Y-86914999I0J-249999D01*
G01*
X139384000Y-87615001D01*
G75*
G02*
X139134001Y-87865000I-249999J0D01*
G01*
X138233999Y-87865000D01*
G75*
G02*
X137984000Y-87615001I0J249999D01*
G01*
X137984000Y-86914999D01*
G75*
G02*
X138233999Y-86665000I249999J0D01*
G01*
G37*
G36*
G01*
X138233999Y-88665000D02*
X139134001Y-88665000D01*
G75*
G02*
X139384000Y-88914999I0J-249999D01*
G01*
X139384000Y-89615001D01*
G75*
G02*
X139134001Y-89865000I-249999J0D01*
G01*
X138233999Y-89865000D01*
G75*
G02*
X137984000Y-89615001I0J249999D01*
G01*
X137984000Y-88914999D01*
G75*
G02*
X138233999Y-88665000I249999J0D01*
G01*
G37*
%TD*%
%TO.C,R7*%
G36*
G01*
X140265999Y-88665000D02*
X141166001Y-88665000D01*
G75*
G02*
X141416000Y-88914999I0J-249999D01*
G01*
X141416000Y-89615001D01*
G75*
G02*
X141166001Y-89865000I-249999J0D01*
G01*
X140265999Y-89865000D01*
G75*
G02*
X140016000Y-89615001I0J249999D01*
G01*
X140016000Y-88914999D01*
G75*
G02*
X140265999Y-88665000I249999J0D01*
G01*
G37*
G36*
G01*
X140265999Y-86665000D02*
X141166001Y-86665000D01*
G75*
G02*
X141416000Y-86914999I0J-249999D01*
G01*
X141416000Y-87615001D01*
G75*
G02*
X141166001Y-87865000I-249999J0D01*
G01*
X140265999Y-87865000D01*
G75*
G02*
X140016000Y-87615001I0J249999D01*
G01*
X140016000Y-86914999D01*
G75*
G02*
X140265999Y-86665000I249999J0D01*
G01*
G37*
%TD*%
%TO.C,R8*%
G36*
G01*
X138233999Y-94396000D02*
X139134001Y-94396000D01*
G75*
G02*
X139384000Y-94645999I0J-249999D01*
G01*
X139384000Y-95346001D01*
G75*
G02*
X139134001Y-95596000I-249999J0D01*
G01*
X138233999Y-95596000D01*
G75*
G02*
X137984000Y-95346001I0J249999D01*
G01*
X137984000Y-94645999D01*
G75*
G02*
X138233999Y-94396000I249999J0D01*
G01*
G37*
G36*
G01*
X138233999Y-96396000D02*
X139134001Y-96396000D01*
G75*
G02*
X139384000Y-96645999I0J-249999D01*
G01*
X139384000Y-97346001D01*
G75*
G02*
X139134001Y-97596000I-249999J0D01*
G01*
X138233999Y-97596000D01*
G75*
G02*
X137984000Y-97346001I0J249999D01*
G01*
X137984000Y-96645999D01*
G75*
G02*
X138233999Y-96396000I249999J0D01*
G01*
G37*
%TD*%
%TO.C,R9*%
G36*
G01*
X143198001Y-91770000D02*
X142297999Y-91770000D01*
G75*
G02*
X142048000Y-91520001I0J249999D01*
G01*
X142048000Y-90819999D01*
G75*
G02*
X142297999Y-90570000I249999J0D01*
G01*
X143198001Y-90570000D01*
G75*
G02*
X143448000Y-90819999I0J-249999D01*
G01*
X143448000Y-91520001D01*
G75*
G02*
X143198001Y-91770000I-249999J0D01*
G01*
G37*
G36*
G01*
X143198001Y-89770000D02*
X142297999Y-89770000D01*
G75*
G02*
X142048000Y-89520001I0J249999D01*
G01*
X142048000Y-88819999D01*
G75*
G02*
X142297999Y-88570000I249999J0D01*
G01*
X143198001Y-88570000D01*
G75*
G02*
X143448000Y-88819999I0J-249999D01*
G01*
X143448000Y-89520001D01*
G75*
G02*
X143198001Y-89770000I-249999J0D01*
G01*
G37*
%TD*%
%TO.C,R10*%
G36*
G01*
X149548001Y-90024000D02*
X148647999Y-90024000D01*
G75*
G02*
X148398000Y-89774001I0J249999D01*
G01*
X148398000Y-89073999D01*
G75*
G02*
X148647999Y-88824000I249999J0D01*
G01*
X149548001Y-88824000D01*
G75*
G02*
X149798000Y-89073999I0J-249999D01*
G01*
X149798000Y-89774001D01*
G75*
G02*
X149548001Y-90024000I-249999J0D01*
G01*
G37*
G36*
G01*
X149548001Y-92024000D02*
X148647999Y-92024000D01*
G75*
G02*
X148398000Y-91774001I0J249999D01*
G01*
X148398000Y-91073999D01*
G75*
G02*
X148647999Y-90824000I249999J0D01*
G01*
X149548001Y-90824000D01*
G75*
G02*
X149798000Y-91073999I0J-249999D01*
G01*
X149798000Y-91774001D01*
G75*
G02*
X149548001Y-92024000I-249999J0D01*
G01*
G37*
%TD*%
%TO.C,R11*%
G36*
G01*
X145738001Y-93294000D02*
X144837999Y-93294000D01*
G75*
G02*
X144588000Y-93044001I0J249999D01*
G01*
X144588000Y-92343999D01*
G75*
G02*
X144837999Y-92094000I249999J0D01*
G01*
X145738001Y-92094000D01*
G75*
G02*
X145988000Y-92343999I0J-249999D01*
G01*
X145988000Y-93044001D01*
G75*
G02*
X145738001Y-93294000I-249999J0D01*
G01*
G37*
G36*
G01*
X145738001Y-91294000D02*
X144837999Y-91294000D01*
G75*
G02*
X144588000Y-91044001I0J249999D01*
G01*
X144588000Y-90343999D01*
G75*
G02*
X144837999Y-90094000I249999J0D01*
G01*
X145738001Y-90094000D01*
G75*
G02*
X145988000Y-90343999I0J-249999D01*
G01*
X145988000Y-91044001D01*
G75*
G02*
X145738001Y-91294000I-249999J0D01*
G01*
G37*
%TD*%
%TO.C,R12*%
G36*
G01*
X151054000Y-94430001D02*
X151054000Y-93529999D01*
G75*
G02*
X151303999Y-93280000I249999J0D01*
G01*
X152004001Y-93280000D01*
G75*
G02*
X152254000Y-93529999I0J-249999D01*
G01*
X152254000Y-94430001D01*
G75*
G02*
X152004001Y-94680000I-249999J0D01*
G01*
X151303999Y-94680000D01*
G75*
G02*
X151054000Y-94430001I0J249999D01*
G01*
G37*
G36*
G01*
X153054000Y-94430001D02*
X153054000Y-93529999D01*
G75*
G02*
X153303999Y-93280000I249999J0D01*
G01*
X154004001Y-93280000D01*
G75*
G02*
X154254000Y-93529999I0J-249999D01*
G01*
X154254000Y-94430001D01*
G75*
G02*
X154004001Y-94680000I-249999J0D01*
G01*
X153303999Y-94680000D01*
G75*
G02*
X153054000Y-94430001I0J249999D01*
G01*
G37*
%TD*%
%TO.C,R13*%
G36*
G01*
X150984000Y-100387999D02*
X150984000Y-101288001D01*
G75*
G02*
X150734001Y-101538000I-249999J0D01*
G01*
X150033999Y-101538000D01*
G75*
G02*
X149784000Y-101288001I0J249999D01*
G01*
X149784000Y-100387999D01*
G75*
G02*
X150033999Y-100138000I249999J0D01*
G01*
X150734001Y-100138000D01*
G75*
G02*
X150984000Y-100387999I0J-249999D01*
G01*
G37*
G36*
G01*
X152984000Y-100387999D02*
X152984000Y-101288001D01*
G75*
G02*
X152734001Y-101538000I-249999J0D01*
G01*
X152033999Y-101538000D01*
G75*
G02*
X151784000Y-101288001I0J249999D01*
G01*
X151784000Y-100387999D01*
G75*
G02*
X152033999Y-100138000I249999J0D01*
G01*
X152734001Y-100138000D01*
G75*
G02*
X152984000Y-100387999I0J-249999D01*
G01*
G37*
%TD*%
%TO.C,R14*%
G36*
G01*
X151784000Y-103320001D02*
X151784000Y-102419999D01*
G75*
G02*
X152033999Y-102170000I249999J0D01*
G01*
X152734001Y-102170000D01*
G75*
G02*
X152984000Y-102419999I0J-249999D01*
G01*
X152984000Y-103320001D01*
G75*
G02*
X152734001Y-103570000I-249999J0D01*
G01*
X152033999Y-103570000D01*
G75*
G02*
X151784000Y-103320001I0J249999D01*
G01*
G37*
G36*
G01*
X149784000Y-103320001D02*
X149784000Y-102419999D01*
G75*
G02*
X150033999Y-102170000I249999J0D01*
G01*
X150734001Y-102170000D01*
G75*
G02*
X150984000Y-102419999I0J-249999D01*
G01*
X150984000Y-103320001D01*
G75*
G02*
X150734001Y-103570000I-249999J0D01*
G01*
X150033999Y-103570000D01*
G75*
G02*
X149784000Y-103320001I0J249999D01*
G01*
G37*
%TD*%
M02*
