%TF.GenerationSoftware,KiCad,Pcbnew,5.1.10-88a1d61d58~88~ubuntu16.04.1*%
%TF.CreationDate,2021-09-03T12:29:31+02:00*%
%TF.ProjectId,80mrx,38306d72-782e-46b6-9963-61645f706362,rev?*%
%TF.SameCoordinates,Original*%
%TF.FileFunction,Legend,Top*%
%TF.FilePolarity,Positive*%
%FSLAX46Y46*%
G04 Gerber Fmt 4.6, Leading zero omitted, Abs format (unit mm)*
G04 Created by KiCad (PCBNEW 5.1.10-88a1d61d58~88~ubuntu16.04.1) date 2021-09-03 12:29:31*
%MOMM*%
%LPD*%
G01*
G04 APERTURE LIST*
%ADD10C,0.120000*%
%ADD11C,0.150000*%
%ADD12C,0.100000*%
%ADD13C,0.080000*%
G04 APERTURE END LIST*
D10*
%TO.C,Y1*%
X143472500Y-103368000D02*
X127497500Y-103368000D01*
X127497500Y-103368000D02*
X127497500Y-108468000D01*
X127497500Y-108468000D02*
X143472500Y-108468000D01*
D11*
%TO.C,J1*%
X168472000Y-104988000D02*
X168472000Y-105488000D01*
X168472000Y-105488000D02*
X164972000Y-105488000D01*
X168472000Y-104988000D02*
X168472000Y-98488000D01*
X168472000Y-98488000D02*
X164972000Y-98488000D01*
X164972000Y-95488000D02*
X164972000Y-108488000D01*
X164972000Y-108488000D02*
X156972000Y-108488000D01*
X156972000Y-108488000D02*
X153472000Y-108488000D01*
X153472000Y-108488000D02*
X153472000Y-95488000D01*
X153472000Y-95488000D02*
X164972000Y-95488000D01*
D10*
%TO.C,AE1*%
X126686000Y-84896000D02*
X129346000Y-84896000D01*
X126686000Y-84836000D02*
X126686000Y-84896000D01*
X129346000Y-84836000D02*
X129346000Y-84896000D01*
X126686000Y-84836000D02*
X129346000Y-84836000D01*
X126686000Y-83566000D02*
X126686000Y-82236000D01*
X126686000Y-82236000D02*
X128016000Y-82236000D01*
%TO.C,BT1*%
X161230000Y-89094000D02*
X162560000Y-89094000D01*
X161230000Y-90424000D02*
X161230000Y-89094000D01*
X161230000Y-91694000D02*
X163890000Y-91694000D01*
X163890000Y-91694000D02*
X163890000Y-94294000D01*
X161230000Y-91694000D02*
X161230000Y-94294000D01*
X161230000Y-94294000D02*
X163890000Y-94294000D01*
%TO.C,C1*%
X130075000Y-93083748D02*
X130075000Y-93606252D01*
X131545000Y-93083748D02*
X131545000Y-93606252D01*
%TO.C,C2*%
X137260000Y-84589252D02*
X137260000Y-84066748D01*
X135790000Y-84589252D02*
X135790000Y-84066748D01*
%TO.C,C3*%
X131049752Y-91159000D02*
X130527248Y-91159000D01*
X131049752Y-89689000D02*
X130527248Y-89689000D01*
%TO.C,C4*%
X143791000Y-82557252D02*
X143791000Y-82034748D01*
X145261000Y-82557252D02*
X145261000Y-82034748D01*
%TO.C,C5*%
X130075000Y-97564752D02*
X130075000Y-97042248D01*
X131545000Y-97564752D02*
X131545000Y-97042248D01*
%TO.C,C6*%
X135897252Y-101827000D02*
X135374748Y-101827000D01*
X135897252Y-100357000D02*
X135374748Y-100357000D01*
%TO.C,C7*%
X139728752Y-100357000D02*
X139206248Y-100357000D01*
X139728752Y-101827000D02*
X139206248Y-101827000D01*
%TO.C,C8*%
X135790000Y-88003748D02*
X135790000Y-88526252D01*
X137260000Y-88003748D02*
X137260000Y-88526252D01*
%TO.C,C9*%
X137260000Y-92336252D02*
X137260000Y-91813748D01*
X135790000Y-92336252D02*
X135790000Y-91813748D01*
%TO.C,C10*%
X137260000Y-96294752D02*
X137260000Y-95772248D01*
X135790000Y-96294752D02*
X135790000Y-95772248D01*
%TO.C,C11*%
X137949000Y-84589252D02*
X137949000Y-84066748D01*
X139419000Y-84589252D02*
X139419000Y-84066748D01*
%TO.C,C12*%
X141451000Y-95772248D02*
X141451000Y-96294752D01*
X139981000Y-95772248D02*
X139981000Y-96294752D01*
%TO.C,C13*%
X143737000Y-94241252D02*
X143737000Y-93718748D01*
X142267000Y-94241252D02*
X142267000Y-93718748D01*
%TO.C,C14*%
X156984248Y-90572000D02*
X158406752Y-90572000D01*
X156984248Y-88752000D02*
X158406752Y-88752000D01*
%TO.C,C15*%
X144553000Y-96019252D02*
X144553000Y-95496748D01*
X146023000Y-96019252D02*
X146023000Y-95496748D01*
%TO.C,C16*%
X153931252Y-91213000D02*
X153408748Y-91213000D01*
X153931252Y-92683000D02*
X153408748Y-92683000D01*
%TO.C,C17*%
X144045000Y-101353252D02*
X144045000Y-100830748D01*
X145515000Y-101353252D02*
X145515000Y-100830748D01*
%TO.C,C18*%
X150164748Y-106024000D02*
X151587252Y-106024000D01*
X150164748Y-107844000D02*
X151587252Y-107844000D01*
%TO.C,L1*%
X126686000Y-97596000D02*
X129346000Y-97596000D01*
X126686000Y-94996000D02*
X126686000Y-97596000D01*
X129346000Y-94996000D02*
X129346000Y-97596000D01*
X126686000Y-94996000D02*
X129346000Y-94996000D01*
X126686000Y-93726000D02*
X126686000Y-92396000D01*
X126686000Y-92396000D02*
X128016000Y-92396000D01*
%TO.C,L2*%
X135022000Y-87926258D02*
X135022000Y-89596742D01*
X133202000Y-87926258D02*
X133202000Y-89596742D01*
%TO.C,Q1*%
X140152000Y-85088000D02*
X140152000Y-83628000D01*
X143312000Y-85088000D02*
X143312000Y-82928000D01*
X143312000Y-85088000D02*
X142382000Y-85088000D01*
X140152000Y-85088000D02*
X141082000Y-85088000D01*
%TO.C,Q2*%
X134380000Y-94925000D02*
X134380000Y-93995000D01*
X134380000Y-91765000D02*
X134380000Y-92695000D01*
X134380000Y-91765000D02*
X132220000Y-91765000D01*
X134380000Y-94925000D02*
X132920000Y-94925000D01*
%TO.C,Q3*%
X132844000Y-96464000D02*
X134304000Y-96464000D01*
X132844000Y-99624000D02*
X135004000Y-99624000D01*
X132844000Y-99624000D02*
X132844000Y-98694000D01*
X132844000Y-96464000D02*
X132844000Y-97394000D01*
%TO.C,Q4*%
X140460000Y-93655000D02*
X140460000Y-92725000D01*
X140460000Y-90495000D02*
X140460000Y-91425000D01*
X140460000Y-90495000D02*
X138300000Y-90495000D01*
X140460000Y-93655000D02*
X139000000Y-93655000D01*
%TO.C,Q5*%
X148842000Y-95814000D02*
X148842000Y-94884000D01*
X148842000Y-92654000D02*
X148842000Y-93584000D01*
X148842000Y-92654000D02*
X146682000Y-92654000D01*
X148842000Y-95814000D02*
X147382000Y-95814000D01*
%TO.C,Q6*%
X146502000Y-98550000D02*
X146502000Y-97090000D01*
X149662000Y-98550000D02*
X149662000Y-96390000D01*
X149662000Y-98550000D02*
X148732000Y-98550000D01*
X146502000Y-98550000D02*
X147432000Y-98550000D01*
%TO.C,Q7*%
X148588000Y-102926000D02*
X148588000Y-101996000D01*
X148588000Y-99766000D02*
X148588000Y-100696000D01*
X148588000Y-99766000D02*
X146428000Y-99766000D01*
X148588000Y-102926000D02*
X147128000Y-102926000D01*
%TO.C,R1*%
X128043000Y-87148936D02*
X128043000Y-87603064D01*
X129513000Y-87148936D02*
X129513000Y-87603064D01*
%TO.C,R2*%
X130075000Y-87164936D02*
X130075000Y-87619064D01*
X131545000Y-87164936D02*
X131545000Y-87619064D01*
%TO.C,R3*%
X134847000Y-84116936D02*
X134847000Y-84571064D01*
X133377000Y-84116936D02*
X133377000Y-84571064D01*
%TO.C,R4*%
X131614936Y-101827000D02*
X132069064Y-101827000D01*
X131614936Y-100357000D02*
X132069064Y-100357000D01*
%TO.C,R5*%
X137440936Y-98325000D02*
X137895064Y-98325000D01*
X137440936Y-99795000D02*
X137895064Y-99795000D01*
%TO.C,R6*%
X139419000Y-88037936D02*
X139419000Y-88492064D01*
X137949000Y-88037936D02*
X137949000Y-88492064D01*
%TO.C,R7*%
X139981000Y-88037936D02*
X139981000Y-88492064D01*
X141451000Y-88037936D02*
X141451000Y-88492064D01*
%TO.C,R8*%
X139419000Y-95768936D02*
X139419000Y-96223064D01*
X137949000Y-95768936D02*
X137949000Y-96223064D01*
%TO.C,R9*%
X142013000Y-90397064D02*
X142013000Y-89942936D01*
X143483000Y-90397064D02*
X143483000Y-89942936D01*
%TO.C,R10*%
X149833000Y-90651064D02*
X149833000Y-90196936D01*
X148363000Y-90651064D02*
X148363000Y-90196936D01*
%TO.C,R11*%
X144553000Y-91921064D02*
X144553000Y-91466936D01*
X146023000Y-91921064D02*
X146023000Y-91466936D01*
%TO.C,R12*%
X152426936Y-93245000D02*
X152881064Y-93245000D01*
X152426936Y-94715000D02*
X152881064Y-94715000D01*
%TO.C,R13*%
X151611064Y-100103000D02*
X151156936Y-100103000D01*
X151611064Y-101573000D02*
X151156936Y-101573000D01*
%TO.C,R14*%
X151156936Y-103605000D02*
X151611064Y-103605000D01*
X151156936Y-102135000D02*
X151611064Y-102135000D01*
%TO.C,RV1*%
X159258000Y-77978000D02*
X159258000Y-80518000D01*
X149098000Y-77978000D02*
X159258000Y-77978000D01*
X149098000Y-80518000D02*
X149098000Y-77978000D01*
X146558000Y-80518000D02*
X146558000Y-88138000D01*
X161798000Y-80518000D02*
X146558000Y-80518000D01*
X161798000Y-88138000D02*
X161798000Y-80518000D01*
X146558000Y-88138000D02*
X161798000Y-88138000D01*
%TO.C,Y1*%
D11*
X137318809Y-105767190D02*
X137318809Y-106243380D01*
X136985476Y-105243380D02*
X137318809Y-105767190D01*
X137652142Y-105243380D01*
X138509285Y-106243380D02*
X137937857Y-106243380D01*
X138223571Y-106243380D02*
X138223571Y-105243380D01*
X138128333Y-105386238D01*
X138033095Y-105481476D01*
X137937857Y-105529095D01*
%TO.C,J1*%
X163369666Y-95972380D02*
X163369666Y-96686666D01*
X163322047Y-96829523D01*
X163226809Y-96924761D01*
X163083952Y-96972380D01*
X162988714Y-96972380D01*
X164369666Y-96972380D02*
X163798238Y-96972380D01*
X164083952Y-96972380D02*
X164083952Y-95972380D01*
X163988714Y-96115238D01*
X163893476Y-96210476D01*
X163798238Y-96258095D01*
%TO.C,AE1*%
X126849333Y-81402666D02*
X127325523Y-81402666D01*
X126754095Y-81688380D02*
X127087428Y-80688380D01*
X127420761Y-81688380D01*
X127754095Y-81164571D02*
X128087428Y-81164571D01*
X128230285Y-81688380D02*
X127754095Y-81688380D01*
X127754095Y-80688380D01*
X128230285Y-80688380D01*
X129182666Y-81688380D02*
X128611238Y-81688380D01*
X128896952Y-81688380D02*
X128896952Y-80688380D01*
X128801714Y-80831238D01*
X128706476Y-80926476D01*
X128611238Y-80974095D01*
%TO.C,BT1*%
X162917285Y-87685571D02*
X163060142Y-87733190D01*
X163107761Y-87780809D01*
X163155380Y-87876047D01*
X163155380Y-88018904D01*
X163107761Y-88114142D01*
X163060142Y-88161761D01*
X162964904Y-88209380D01*
X162583952Y-88209380D01*
X162583952Y-87209380D01*
X162917285Y-87209380D01*
X163012523Y-87257000D01*
X163060142Y-87304619D01*
X163107761Y-87399857D01*
X163107761Y-87495095D01*
X163060142Y-87590333D01*
X163012523Y-87637952D01*
X162917285Y-87685571D01*
X162583952Y-87685571D01*
X163441095Y-87209380D02*
X164012523Y-87209380D01*
X163726809Y-88209380D02*
X163726809Y-87209380D01*
X164869666Y-88209380D02*
X164298238Y-88209380D01*
X164583952Y-88209380D02*
X164583952Y-87209380D01*
X164488714Y-87352238D01*
X164393476Y-87447476D01*
X164298238Y-87495095D01*
%TO.C,C1*%
D12*
X130726666Y-93523571D02*
X130702857Y-93547380D01*
X130631428Y-93571190D01*
X130583809Y-93571190D01*
X130512380Y-93547380D01*
X130464761Y-93499761D01*
X130440952Y-93452142D01*
X130417142Y-93356904D01*
X130417142Y-93285476D01*
X130440952Y-93190238D01*
X130464761Y-93142619D01*
X130512380Y-93095000D01*
X130583809Y-93071190D01*
X130631428Y-93071190D01*
X130702857Y-93095000D01*
X130726666Y-93118809D01*
X131202857Y-93571190D02*
X130917142Y-93571190D01*
X131060000Y-93571190D02*
X131060000Y-93071190D01*
X131012380Y-93142619D01*
X130964761Y-93190238D01*
X130917142Y-93214047D01*
%TO.C,C2*%
D11*
X136882142Y-81573666D02*
X136929761Y-81621285D01*
X136977380Y-81764142D01*
X136977380Y-81859380D01*
X136929761Y-82002238D01*
X136834523Y-82097476D01*
X136739285Y-82145095D01*
X136548809Y-82192714D01*
X136405952Y-82192714D01*
X136215476Y-82145095D01*
X136120238Y-82097476D01*
X136025000Y-82002238D01*
X135977380Y-81859380D01*
X135977380Y-81764142D01*
X136025000Y-81621285D01*
X136072619Y-81573666D01*
X136072619Y-81192714D02*
X136025000Y-81145095D01*
X135977380Y-81049857D01*
X135977380Y-80811761D01*
X136025000Y-80716523D01*
X136072619Y-80668904D01*
X136167857Y-80621285D01*
X136263095Y-80621285D01*
X136405952Y-80668904D01*
X136977380Y-81240333D01*
X136977380Y-80621285D01*
%TO.C,C3*%
X127722333Y-90908142D02*
X127674714Y-90955761D01*
X127531857Y-91003380D01*
X127436619Y-91003380D01*
X127293761Y-90955761D01*
X127198523Y-90860523D01*
X127150904Y-90765285D01*
X127103285Y-90574809D01*
X127103285Y-90431952D01*
X127150904Y-90241476D01*
X127198523Y-90146238D01*
X127293761Y-90051000D01*
X127436619Y-90003380D01*
X127531857Y-90003380D01*
X127674714Y-90051000D01*
X127722333Y-90098619D01*
X128055666Y-90003380D02*
X128674714Y-90003380D01*
X128341380Y-90384333D01*
X128484238Y-90384333D01*
X128579476Y-90431952D01*
X128627095Y-90479571D01*
X128674714Y-90574809D01*
X128674714Y-90812904D01*
X128627095Y-90908142D01*
X128579476Y-90955761D01*
X128484238Y-91003380D01*
X128198523Y-91003380D01*
X128103285Y-90955761D01*
X128055666Y-90908142D01*
%TO.C,C4*%
X143232142Y-81319666D02*
X143279761Y-81367285D01*
X143327380Y-81510142D01*
X143327380Y-81605380D01*
X143279761Y-81748238D01*
X143184523Y-81843476D01*
X143089285Y-81891095D01*
X142898809Y-81938714D01*
X142755952Y-81938714D01*
X142565476Y-81891095D01*
X142470238Y-81843476D01*
X142375000Y-81748238D01*
X142327380Y-81605380D01*
X142327380Y-81510142D01*
X142375000Y-81367285D01*
X142422619Y-81319666D01*
X142660714Y-80462523D02*
X143327380Y-80462523D01*
X142279761Y-80700619D02*
X142994047Y-80938714D01*
X142994047Y-80319666D01*
%TO.C,C5*%
X129643142Y-99226666D02*
X129690761Y-99274285D01*
X129738380Y-99417142D01*
X129738380Y-99512380D01*
X129690761Y-99655238D01*
X129595523Y-99750476D01*
X129500285Y-99798095D01*
X129309809Y-99845714D01*
X129166952Y-99845714D01*
X128976476Y-99798095D01*
X128881238Y-99750476D01*
X128786000Y-99655238D01*
X128738380Y-99512380D01*
X128738380Y-99417142D01*
X128786000Y-99274285D01*
X128833619Y-99226666D01*
X128738380Y-98321904D02*
X128738380Y-98798095D01*
X129214571Y-98845714D01*
X129166952Y-98798095D01*
X129119333Y-98702857D01*
X129119333Y-98464761D01*
X129166952Y-98369523D01*
X129214571Y-98321904D01*
X129309809Y-98274285D01*
X129547904Y-98274285D01*
X129643142Y-98321904D01*
X129690761Y-98369523D01*
X129738380Y-98464761D01*
X129738380Y-98702857D01*
X129690761Y-98798095D01*
X129643142Y-98845714D01*
%TO.C,C6*%
X135469333Y-103129142D02*
X135421714Y-103176761D01*
X135278857Y-103224380D01*
X135183619Y-103224380D01*
X135040761Y-103176761D01*
X134945523Y-103081523D01*
X134897904Y-102986285D01*
X134850285Y-102795809D01*
X134850285Y-102652952D01*
X134897904Y-102462476D01*
X134945523Y-102367238D01*
X135040761Y-102272000D01*
X135183619Y-102224380D01*
X135278857Y-102224380D01*
X135421714Y-102272000D01*
X135469333Y-102319619D01*
X136326476Y-102224380D02*
X136136000Y-102224380D01*
X136040761Y-102272000D01*
X135993142Y-102319619D01*
X135897904Y-102462476D01*
X135850285Y-102652952D01*
X135850285Y-103033904D01*
X135897904Y-103129142D01*
X135945523Y-103176761D01*
X136040761Y-103224380D01*
X136231238Y-103224380D01*
X136326476Y-103176761D01*
X136374095Y-103129142D01*
X136421714Y-103033904D01*
X136421714Y-102795809D01*
X136374095Y-102700571D01*
X136326476Y-102652952D01*
X136231238Y-102605333D01*
X136040761Y-102605333D01*
X135945523Y-102652952D01*
X135897904Y-102700571D01*
X135850285Y-102795809D01*
%TO.C,C7*%
X139300833Y-103129142D02*
X139253214Y-103176761D01*
X139110357Y-103224380D01*
X139015119Y-103224380D01*
X138872261Y-103176761D01*
X138777023Y-103081523D01*
X138729404Y-102986285D01*
X138681785Y-102795809D01*
X138681785Y-102652952D01*
X138729404Y-102462476D01*
X138777023Y-102367238D01*
X138872261Y-102272000D01*
X139015119Y-102224380D01*
X139110357Y-102224380D01*
X139253214Y-102272000D01*
X139300833Y-102319619D01*
X139634166Y-102224380D02*
X140300833Y-102224380D01*
X139872261Y-103224380D01*
%TO.C,C8*%
D13*
X136441666Y-88443571D02*
X136417857Y-88467380D01*
X136346428Y-88491190D01*
X136298809Y-88491190D01*
X136227380Y-88467380D01*
X136179761Y-88419761D01*
X136155952Y-88372142D01*
X136132142Y-88276904D01*
X136132142Y-88205476D01*
X136155952Y-88110238D01*
X136179761Y-88062619D01*
X136227380Y-88015000D01*
X136298809Y-87991190D01*
X136346428Y-87991190D01*
X136417857Y-88015000D01*
X136441666Y-88038809D01*
X136727380Y-88205476D02*
X136679761Y-88181666D01*
X136655952Y-88157857D01*
X136632142Y-88110238D01*
X136632142Y-88086428D01*
X136655952Y-88038809D01*
X136679761Y-88015000D01*
X136727380Y-87991190D01*
X136822619Y-87991190D01*
X136870238Y-88015000D01*
X136894047Y-88038809D01*
X136917857Y-88086428D01*
X136917857Y-88110238D01*
X136894047Y-88157857D01*
X136870238Y-88181666D01*
X136822619Y-88205476D01*
X136727380Y-88205476D01*
X136679761Y-88229285D01*
X136655952Y-88253095D01*
X136632142Y-88300714D01*
X136632142Y-88395952D01*
X136655952Y-88443571D01*
X136679761Y-88467380D01*
X136727380Y-88491190D01*
X136822619Y-88491190D01*
X136870238Y-88467380D01*
X136894047Y-88443571D01*
X136917857Y-88395952D01*
X136917857Y-88300714D01*
X136894047Y-88253095D01*
X136870238Y-88229285D01*
X136822619Y-88205476D01*
%TO.C,C9*%
D12*
X136441666Y-92253571D02*
X136417857Y-92277380D01*
X136346428Y-92301190D01*
X136298809Y-92301190D01*
X136227380Y-92277380D01*
X136179761Y-92229761D01*
X136155952Y-92182142D01*
X136132142Y-92086904D01*
X136132142Y-92015476D01*
X136155952Y-91920238D01*
X136179761Y-91872619D01*
X136227380Y-91825000D01*
X136298809Y-91801190D01*
X136346428Y-91801190D01*
X136417857Y-91825000D01*
X136441666Y-91848809D01*
X136679761Y-92301190D02*
X136775000Y-92301190D01*
X136822619Y-92277380D01*
X136846428Y-92253571D01*
X136894047Y-92182142D01*
X136917857Y-92086904D01*
X136917857Y-91896428D01*
X136894047Y-91848809D01*
X136870238Y-91825000D01*
X136822619Y-91801190D01*
X136727380Y-91801190D01*
X136679761Y-91825000D01*
X136655952Y-91848809D01*
X136632142Y-91896428D01*
X136632142Y-92015476D01*
X136655952Y-92063095D01*
X136679761Y-92086904D01*
X136727380Y-92110714D01*
X136822619Y-92110714D01*
X136870238Y-92086904D01*
X136894047Y-92063095D01*
X136917857Y-92015476D01*
%TO.C,C10*%
X134552571Y-95809571D02*
X134528761Y-95833380D01*
X134457333Y-95857190D01*
X134409714Y-95857190D01*
X134338285Y-95833380D01*
X134290666Y-95785761D01*
X134266857Y-95738142D01*
X134243047Y-95642904D01*
X134243047Y-95571476D01*
X134266857Y-95476238D01*
X134290666Y-95428619D01*
X134338285Y-95381000D01*
X134409714Y-95357190D01*
X134457333Y-95357190D01*
X134528761Y-95381000D01*
X134552571Y-95404809D01*
X135028761Y-95857190D02*
X134743047Y-95857190D01*
X134885904Y-95857190D02*
X134885904Y-95357190D01*
X134838285Y-95428619D01*
X134790666Y-95476238D01*
X134743047Y-95500047D01*
X135338285Y-95357190D02*
X135385904Y-95357190D01*
X135433523Y-95381000D01*
X135457333Y-95404809D01*
X135481142Y-95452428D01*
X135504952Y-95547666D01*
X135504952Y-95666714D01*
X135481142Y-95761952D01*
X135457333Y-95809571D01*
X135433523Y-95833380D01*
X135385904Y-95857190D01*
X135338285Y-95857190D01*
X135290666Y-95833380D01*
X135266857Y-95809571D01*
X135243047Y-95761952D01*
X135219238Y-95666714D01*
X135219238Y-95547666D01*
X135243047Y-95452428D01*
X135266857Y-95404809D01*
X135290666Y-95381000D01*
X135338285Y-95357190D01*
%TO.C,C11*%
D11*
X138041142Y-82145142D02*
X137993523Y-82192761D01*
X137850666Y-82240380D01*
X137755428Y-82240380D01*
X137612571Y-82192761D01*
X137517333Y-82097523D01*
X137469714Y-82002285D01*
X137422095Y-81811809D01*
X137422095Y-81668952D01*
X137469714Y-81478476D01*
X137517333Y-81383238D01*
X137612571Y-81288000D01*
X137755428Y-81240380D01*
X137850666Y-81240380D01*
X137993523Y-81288000D01*
X138041142Y-81335619D01*
X138993523Y-82240380D02*
X138422095Y-82240380D01*
X138707809Y-82240380D02*
X138707809Y-81240380D01*
X138612571Y-81383238D01*
X138517333Y-81478476D01*
X138422095Y-81526095D01*
X139945904Y-82240380D02*
X139374476Y-82240380D01*
X139660190Y-82240380D02*
X139660190Y-81240380D01*
X139564952Y-81383238D01*
X139469714Y-81478476D01*
X139374476Y-81526095D01*
%TO.C,C12*%
X142753142Y-98178857D02*
X142800761Y-98226476D01*
X142848380Y-98369333D01*
X142848380Y-98464571D01*
X142800761Y-98607428D01*
X142705523Y-98702666D01*
X142610285Y-98750285D01*
X142419809Y-98797904D01*
X142276952Y-98797904D01*
X142086476Y-98750285D01*
X141991238Y-98702666D01*
X141896000Y-98607428D01*
X141848380Y-98464571D01*
X141848380Y-98369333D01*
X141896000Y-98226476D01*
X141943619Y-98178857D01*
X142848380Y-97226476D02*
X142848380Y-97797904D01*
X142848380Y-97512190D02*
X141848380Y-97512190D01*
X141991238Y-97607428D01*
X142086476Y-97702666D01*
X142134095Y-97797904D01*
X141943619Y-96845523D02*
X141896000Y-96797904D01*
X141848380Y-96702666D01*
X141848380Y-96464571D01*
X141896000Y-96369333D01*
X141943619Y-96321714D01*
X142038857Y-96274095D01*
X142134095Y-96274095D01*
X142276952Y-96321714D01*
X142848380Y-96893142D01*
X142848380Y-96274095D01*
%TO.C,C13*%
D13*
X142680571Y-94158571D02*
X142656761Y-94182380D01*
X142585333Y-94206190D01*
X142537714Y-94206190D01*
X142466285Y-94182380D01*
X142418666Y-94134761D01*
X142394857Y-94087142D01*
X142371047Y-93991904D01*
X142371047Y-93920476D01*
X142394857Y-93825238D01*
X142418666Y-93777619D01*
X142466285Y-93730000D01*
X142537714Y-93706190D01*
X142585333Y-93706190D01*
X142656761Y-93730000D01*
X142680571Y-93753809D01*
X143156761Y-94206190D02*
X142871047Y-94206190D01*
X143013904Y-94206190D02*
X143013904Y-93706190D01*
X142966285Y-93777619D01*
X142918666Y-93825238D01*
X142871047Y-93849047D01*
X143323428Y-93706190D02*
X143632952Y-93706190D01*
X143466285Y-93896666D01*
X143537714Y-93896666D01*
X143585333Y-93920476D01*
X143609142Y-93944285D01*
X143632952Y-93991904D01*
X143632952Y-94110952D01*
X143609142Y-94158571D01*
X143585333Y-94182380D01*
X143537714Y-94206190D01*
X143394857Y-94206190D01*
X143347238Y-94182380D01*
X143323428Y-94158571D01*
%TO.C,C14*%
D11*
X157980142Y-91924142D02*
X157932523Y-91971761D01*
X157789666Y-92019380D01*
X157694428Y-92019380D01*
X157551571Y-91971761D01*
X157456333Y-91876523D01*
X157408714Y-91781285D01*
X157361095Y-91590809D01*
X157361095Y-91447952D01*
X157408714Y-91257476D01*
X157456333Y-91162238D01*
X157551571Y-91067000D01*
X157694428Y-91019380D01*
X157789666Y-91019380D01*
X157932523Y-91067000D01*
X157980142Y-91114619D01*
X158932523Y-92019380D02*
X158361095Y-92019380D01*
X158646809Y-92019380D02*
X158646809Y-91019380D01*
X158551571Y-91162238D01*
X158456333Y-91257476D01*
X158361095Y-91305095D01*
X159789666Y-91352714D02*
X159789666Y-92019380D01*
X159551571Y-90971761D02*
X159313476Y-91686047D01*
X159932523Y-91686047D01*
%TO.C,C15*%
X144137142Y-98655142D02*
X144089523Y-98702761D01*
X143946666Y-98750380D01*
X143851428Y-98750380D01*
X143708571Y-98702761D01*
X143613333Y-98607523D01*
X143565714Y-98512285D01*
X143518095Y-98321809D01*
X143518095Y-98178952D01*
X143565714Y-97988476D01*
X143613333Y-97893238D01*
X143708571Y-97798000D01*
X143851428Y-97750380D01*
X143946666Y-97750380D01*
X144089523Y-97798000D01*
X144137142Y-97845619D01*
X145089523Y-98750380D02*
X144518095Y-98750380D01*
X144803809Y-98750380D02*
X144803809Y-97750380D01*
X144708571Y-97893238D01*
X144613333Y-97988476D01*
X144518095Y-98036095D01*
X145994285Y-97750380D02*
X145518095Y-97750380D01*
X145470476Y-98226571D01*
X145518095Y-98178952D01*
X145613333Y-98131333D01*
X145851428Y-98131333D01*
X145946666Y-98178952D01*
X145994285Y-98226571D01*
X146041904Y-98321809D01*
X146041904Y-98559904D01*
X145994285Y-98655142D01*
X145946666Y-98702761D01*
X145851428Y-98750380D01*
X145613333Y-98750380D01*
X145518095Y-98702761D01*
X145470476Y-98655142D01*
%TO.C,C16*%
X152773142Y-90654142D02*
X152725523Y-90701761D01*
X152582666Y-90749380D01*
X152487428Y-90749380D01*
X152344571Y-90701761D01*
X152249333Y-90606523D01*
X152201714Y-90511285D01*
X152154095Y-90320809D01*
X152154095Y-90177952D01*
X152201714Y-89987476D01*
X152249333Y-89892238D01*
X152344571Y-89797000D01*
X152487428Y-89749380D01*
X152582666Y-89749380D01*
X152725523Y-89797000D01*
X152773142Y-89844619D01*
X153725523Y-90749380D02*
X153154095Y-90749380D01*
X153439809Y-90749380D02*
X153439809Y-89749380D01*
X153344571Y-89892238D01*
X153249333Y-89987476D01*
X153154095Y-90035095D01*
X154582666Y-89749380D02*
X154392190Y-89749380D01*
X154296952Y-89797000D01*
X154249333Y-89844619D01*
X154154095Y-89987476D01*
X154106476Y-90177952D01*
X154106476Y-90558904D01*
X154154095Y-90654142D01*
X154201714Y-90701761D01*
X154296952Y-90749380D01*
X154487428Y-90749380D01*
X154582666Y-90701761D01*
X154630285Y-90654142D01*
X154677904Y-90558904D01*
X154677904Y-90320809D01*
X154630285Y-90225571D01*
X154582666Y-90177952D01*
X154487428Y-90130333D01*
X154296952Y-90130333D01*
X154201714Y-90177952D01*
X154154095Y-90225571D01*
X154106476Y-90320809D01*
%TO.C,C17*%
X143486142Y-102369857D02*
X143533761Y-102417476D01*
X143581380Y-102560333D01*
X143581380Y-102655571D01*
X143533761Y-102798428D01*
X143438523Y-102893666D01*
X143343285Y-102941285D01*
X143152809Y-102988904D01*
X143009952Y-102988904D01*
X142819476Y-102941285D01*
X142724238Y-102893666D01*
X142629000Y-102798428D01*
X142581380Y-102655571D01*
X142581380Y-102560333D01*
X142629000Y-102417476D01*
X142676619Y-102369857D01*
X143581380Y-101417476D02*
X143581380Y-101988904D01*
X143581380Y-101703190D02*
X142581380Y-101703190D01*
X142724238Y-101798428D01*
X142819476Y-101893666D01*
X142867095Y-101988904D01*
X142581380Y-101084142D02*
X142581380Y-100417476D01*
X143581380Y-100846047D01*
%TO.C,C18*%
X150106142Y-109069142D02*
X150058523Y-109116761D01*
X149915666Y-109164380D01*
X149820428Y-109164380D01*
X149677571Y-109116761D01*
X149582333Y-109021523D01*
X149534714Y-108926285D01*
X149487095Y-108735809D01*
X149487095Y-108592952D01*
X149534714Y-108402476D01*
X149582333Y-108307238D01*
X149677571Y-108212000D01*
X149820428Y-108164380D01*
X149915666Y-108164380D01*
X150058523Y-108212000D01*
X150106142Y-108259619D01*
X151058523Y-109164380D02*
X150487095Y-109164380D01*
X150772809Y-109164380D02*
X150772809Y-108164380D01*
X150677571Y-108307238D01*
X150582333Y-108402476D01*
X150487095Y-108450095D01*
X151629952Y-108592952D02*
X151534714Y-108545333D01*
X151487095Y-108497714D01*
X151439476Y-108402476D01*
X151439476Y-108354857D01*
X151487095Y-108259619D01*
X151534714Y-108212000D01*
X151629952Y-108164380D01*
X151820428Y-108164380D01*
X151915666Y-108212000D01*
X151963285Y-108259619D01*
X152010904Y-108354857D01*
X152010904Y-108402476D01*
X151963285Y-108497714D01*
X151915666Y-108545333D01*
X151820428Y-108592952D01*
X151629952Y-108592952D01*
X151534714Y-108640571D01*
X151487095Y-108688190D01*
X151439476Y-108783428D01*
X151439476Y-108973904D01*
X151487095Y-109069142D01*
X151534714Y-109116761D01*
X151629952Y-109164380D01*
X151820428Y-109164380D01*
X151915666Y-109116761D01*
X151963285Y-109069142D01*
X152010904Y-108973904D01*
X152010904Y-108783428D01*
X151963285Y-108688190D01*
X151915666Y-108640571D01*
X151820428Y-108592952D01*
%TO.C,L1*%
X126198333Y-99385380D02*
X125722142Y-99385380D01*
X125722142Y-98385380D01*
X127055476Y-99385380D02*
X126484047Y-99385380D01*
X126769761Y-99385380D02*
X126769761Y-98385380D01*
X126674523Y-98528238D01*
X126579285Y-98623476D01*
X126484047Y-98671095D01*
%TO.C,L2*%
X134564380Y-88928166D02*
X134564380Y-89404357D01*
X133564380Y-89404357D01*
X133659619Y-88642452D02*
X133612000Y-88594833D01*
X133564380Y-88499595D01*
X133564380Y-88261500D01*
X133612000Y-88166261D01*
X133659619Y-88118642D01*
X133754857Y-88071023D01*
X133850095Y-88071023D01*
X133992952Y-88118642D01*
X134564380Y-88690071D01*
X134564380Y-88071023D01*
%TO.C,Q1*%
X141390619Y-81756238D02*
X141343000Y-81851476D01*
X141247761Y-81946714D01*
X141104904Y-82089571D01*
X141057285Y-82184809D01*
X141057285Y-82280047D01*
X141295380Y-82232428D02*
X141247761Y-82327666D01*
X141152523Y-82422904D01*
X140962047Y-82470523D01*
X140628714Y-82470523D01*
X140438238Y-82422904D01*
X140343000Y-82327666D01*
X140295380Y-82232428D01*
X140295380Y-82041952D01*
X140343000Y-81946714D01*
X140438238Y-81851476D01*
X140628714Y-81803857D01*
X140962047Y-81803857D01*
X141152523Y-81851476D01*
X141247761Y-81946714D01*
X141295380Y-82041952D01*
X141295380Y-82232428D01*
X141295380Y-80851476D02*
X141295380Y-81422904D01*
X141295380Y-81137190D02*
X140295380Y-81137190D01*
X140438238Y-81232428D01*
X140533476Y-81327666D01*
X140581095Y-81422904D01*
%TO.C,Q2*%
D12*
X133572380Y-93491809D02*
X133524761Y-93468000D01*
X133477142Y-93420380D01*
X133405714Y-93348952D01*
X133358095Y-93325142D01*
X133310476Y-93325142D01*
X133334285Y-93444190D02*
X133286666Y-93420380D01*
X133239047Y-93372761D01*
X133215238Y-93277523D01*
X133215238Y-93110857D01*
X133239047Y-93015619D01*
X133286666Y-92968000D01*
X133334285Y-92944190D01*
X133429523Y-92944190D01*
X133477142Y-92968000D01*
X133524761Y-93015619D01*
X133548571Y-93110857D01*
X133548571Y-93277523D01*
X133524761Y-93372761D01*
X133477142Y-93420380D01*
X133429523Y-93444190D01*
X133334285Y-93444190D01*
X133739047Y-92991809D02*
X133762857Y-92968000D01*
X133810476Y-92944190D01*
X133929523Y-92944190D01*
X133977142Y-92968000D01*
X134000952Y-92991809D01*
X134024761Y-93039428D01*
X134024761Y-93087047D01*
X134000952Y-93158476D01*
X133715238Y-93444190D01*
X134024761Y-93444190D01*
%TO.C,Q3*%
X133791333Y-98427333D02*
X133724666Y-98394000D01*
X133658000Y-98327333D01*
X133558000Y-98227333D01*
X133491333Y-98194000D01*
X133424666Y-98194000D01*
X133458000Y-98360666D02*
X133391333Y-98327333D01*
X133324666Y-98260666D01*
X133291333Y-98127333D01*
X133291333Y-97894000D01*
X133324666Y-97760666D01*
X133391333Y-97694000D01*
X133458000Y-97660666D01*
X133591333Y-97660666D01*
X133658000Y-97694000D01*
X133724666Y-97760666D01*
X133758000Y-97894000D01*
X133758000Y-98127333D01*
X133724666Y-98260666D01*
X133658000Y-98327333D01*
X133591333Y-98360666D01*
X133458000Y-98360666D01*
X133991333Y-97660666D02*
X134424666Y-97660666D01*
X134191333Y-97927333D01*
X134291333Y-97927333D01*
X134358000Y-97960666D01*
X134391333Y-97994000D01*
X134424666Y-98060666D01*
X134424666Y-98227333D01*
X134391333Y-98294000D01*
X134358000Y-98327333D01*
X134291333Y-98360666D01*
X134091333Y-98360666D01*
X134024666Y-98327333D01*
X133991333Y-98294000D01*
%TO.C,Q4*%
X139242809Y-92513095D02*
X139166619Y-92475000D01*
X139090428Y-92398809D01*
X138976142Y-92284523D01*
X138899952Y-92246428D01*
X138823761Y-92246428D01*
X138861857Y-92436904D02*
X138785666Y-92398809D01*
X138709476Y-92322619D01*
X138671380Y-92170238D01*
X138671380Y-91903571D01*
X138709476Y-91751190D01*
X138785666Y-91675000D01*
X138861857Y-91636904D01*
X139014238Y-91636904D01*
X139090428Y-91675000D01*
X139166619Y-91751190D01*
X139204714Y-91903571D01*
X139204714Y-92170238D01*
X139166619Y-92322619D01*
X139090428Y-92398809D01*
X139014238Y-92436904D01*
X138861857Y-92436904D01*
X139890428Y-91903571D02*
X139890428Y-92436904D01*
X139699952Y-91598809D02*
X139509476Y-92170238D01*
X140004714Y-92170238D01*
%TO.C,Q5*%
X147761333Y-94617333D02*
X147694666Y-94584000D01*
X147628000Y-94517333D01*
X147528000Y-94417333D01*
X147461333Y-94384000D01*
X147394666Y-94384000D01*
X147428000Y-94550666D02*
X147361333Y-94517333D01*
X147294666Y-94450666D01*
X147261333Y-94317333D01*
X147261333Y-94084000D01*
X147294666Y-93950666D01*
X147361333Y-93884000D01*
X147428000Y-93850666D01*
X147561333Y-93850666D01*
X147628000Y-93884000D01*
X147694666Y-93950666D01*
X147728000Y-94084000D01*
X147728000Y-94317333D01*
X147694666Y-94450666D01*
X147628000Y-94517333D01*
X147561333Y-94550666D01*
X147428000Y-94550666D01*
X148361333Y-93850666D02*
X148028000Y-93850666D01*
X147994666Y-94184000D01*
X148028000Y-94150666D01*
X148094666Y-94117333D01*
X148261333Y-94117333D01*
X148328000Y-94150666D01*
X148361333Y-94184000D01*
X148394666Y-94250666D01*
X148394666Y-94417333D01*
X148361333Y-94484000D01*
X148328000Y-94517333D01*
X148261333Y-94550666D01*
X148094666Y-94550666D01*
X148028000Y-94517333D01*
X147994666Y-94484000D01*
%TO.C,Q6*%
D11*
X151042619Y-96996238D02*
X150995000Y-97091476D01*
X150899761Y-97186714D01*
X150756904Y-97329571D01*
X150709285Y-97424809D01*
X150709285Y-97520047D01*
X150947380Y-97472428D02*
X150899761Y-97567666D01*
X150804523Y-97662904D01*
X150614047Y-97710523D01*
X150280714Y-97710523D01*
X150090238Y-97662904D01*
X149995000Y-97567666D01*
X149947380Y-97472428D01*
X149947380Y-97281952D01*
X149995000Y-97186714D01*
X150090238Y-97091476D01*
X150280714Y-97043857D01*
X150614047Y-97043857D01*
X150804523Y-97091476D01*
X150899761Y-97186714D01*
X150947380Y-97281952D01*
X150947380Y-97472428D01*
X149947380Y-96186714D02*
X149947380Y-96377190D01*
X149995000Y-96472428D01*
X150042619Y-96520047D01*
X150185476Y-96615285D01*
X150375952Y-96662904D01*
X150756904Y-96662904D01*
X150852142Y-96615285D01*
X150899761Y-96567666D01*
X150947380Y-96472428D01*
X150947380Y-96281952D01*
X150899761Y-96186714D01*
X150852142Y-96139095D01*
X150756904Y-96091476D01*
X150518809Y-96091476D01*
X150423571Y-96139095D01*
X150375952Y-96186714D01*
X150328333Y-96281952D01*
X150328333Y-96472428D01*
X150375952Y-96567666D01*
X150423571Y-96615285D01*
X150518809Y-96662904D01*
%TO.C,Q7*%
D12*
X147507333Y-101729333D02*
X147440666Y-101696000D01*
X147374000Y-101629333D01*
X147274000Y-101529333D01*
X147207333Y-101496000D01*
X147140666Y-101496000D01*
X147174000Y-101662666D02*
X147107333Y-101629333D01*
X147040666Y-101562666D01*
X147007333Y-101429333D01*
X147007333Y-101196000D01*
X147040666Y-101062666D01*
X147107333Y-100996000D01*
X147174000Y-100962666D01*
X147307333Y-100962666D01*
X147374000Y-100996000D01*
X147440666Y-101062666D01*
X147474000Y-101196000D01*
X147474000Y-101429333D01*
X147440666Y-101562666D01*
X147374000Y-101629333D01*
X147307333Y-101662666D01*
X147174000Y-101662666D01*
X147707333Y-100962666D02*
X148174000Y-100962666D01*
X147874000Y-101662666D01*
%TO.C,R1*%
D11*
X127452380Y-87542666D02*
X126976190Y-87876000D01*
X127452380Y-88114095D02*
X126452380Y-88114095D01*
X126452380Y-87733142D01*
X126500000Y-87637904D01*
X126547619Y-87590285D01*
X126642857Y-87542666D01*
X126785714Y-87542666D01*
X126880952Y-87590285D01*
X126928571Y-87637904D01*
X126976190Y-87733142D01*
X126976190Y-88114095D01*
X127452380Y-86590285D02*
X127452380Y-87161714D01*
X127452380Y-86876000D02*
X126452380Y-86876000D01*
X126595238Y-86971238D01*
X126690476Y-87066476D01*
X126738095Y-87161714D01*
%TO.C,R2*%
X131262380Y-84748666D02*
X130786190Y-85082000D01*
X131262380Y-85320095D02*
X130262380Y-85320095D01*
X130262380Y-84939142D01*
X130310000Y-84843904D01*
X130357619Y-84796285D01*
X130452857Y-84748666D01*
X130595714Y-84748666D01*
X130690952Y-84796285D01*
X130738571Y-84843904D01*
X130786190Y-84939142D01*
X130786190Y-85320095D01*
X130357619Y-84367714D02*
X130310000Y-84320095D01*
X130262380Y-84224857D01*
X130262380Y-83986761D01*
X130310000Y-83891523D01*
X130357619Y-83843904D01*
X130452857Y-83796285D01*
X130548095Y-83796285D01*
X130690952Y-83843904D01*
X131262380Y-84415333D01*
X131262380Y-83796285D01*
%TO.C,R3*%
X134691380Y-81700666D02*
X134215190Y-82034000D01*
X134691380Y-82272095D02*
X133691380Y-82272095D01*
X133691380Y-81891142D01*
X133739000Y-81795904D01*
X133786619Y-81748285D01*
X133881857Y-81700666D01*
X134024714Y-81700666D01*
X134119952Y-81748285D01*
X134167571Y-81795904D01*
X134215190Y-81891142D01*
X134215190Y-82272095D01*
X133691380Y-81367333D02*
X133691380Y-80748285D01*
X134072333Y-81081619D01*
X134072333Y-80938761D01*
X134119952Y-80843523D01*
X134167571Y-80795904D01*
X134262809Y-80748285D01*
X134500904Y-80748285D01*
X134596142Y-80795904D01*
X134643761Y-80843523D01*
X134691380Y-80938761D01*
X134691380Y-81224476D01*
X134643761Y-81319714D01*
X134596142Y-81367333D01*
%TO.C,R4*%
X131786333Y-103195380D02*
X131453000Y-102719190D01*
X131214904Y-103195380D02*
X131214904Y-102195380D01*
X131595857Y-102195380D01*
X131691095Y-102243000D01*
X131738714Y-102290619D01*
X131786333Y-102385857D01*
X131786333Y-102528714D01*
X131738714Y-102623952D01*
X131691095Y-102671571D01*
X131595857Y-102719190D01*
X131214904Y-102719190D01*
X132643476Y-102528714D02*
X132643476Y-103195380D01*
X132405380Y-102147761D02*
X132167285Y-102862047D01*
X132786333Y-102862047D01*
%TO.C,R5*%
X140295333Y-99512380D02*
X139962000Y-99036190D01*
X139723904Y-99512380D02*
X139723904Y-98512380D01*
X140104857Y-98512380D01*
X140200095Y-98560000D01*
X140247714Y-98607619D01*
X140295333Y-98702857D01*
X140295333Y-98845714D01*
X140247714Y-98940952D01*
X140200095Y-98988571D01*
X140104857Y-99036190D01*
X139723904Y-99036190D01*
X141200095Y-98512380D02*
X140723904Y-98512380D01*
X140676285Y-98988571D01*
X140723904Y-98940952D01*
X140819142Y-98893333D01*
X141057238Y-98893333D01*
X141152476Y-98940952D01*
X141200095Y-98988571D01*
X141247714Y-99083809D01*
X141247714Y-99321904D01*
X141200095Y-99417142D01*
X141152476Y-99464761D01*
X141057238Y-99512380D01*
X140819142Y-99512380D01*
X140723904Y-99464761D01*
X140676285Y-99417142D01*
%TO.C,R6*%
D13*
X138600666Y-88491190D02*
X138434000Y-88253095D01*
X138314952Y-88491190D02*
X138314952Y-87991190D01*
X138505428Y-87991190D01*
X138553047Y-88015000D01*
X138576857Y-88038809D01*
X138600666Y-88086428D01*
X138600666Y-88157857D01*
X138576857Y-88205476D01*
X138553047Y-88229285D01*
X138505428Y-88253095D01*
X138314952Y-88253095D01*
X139029238Y-87991190D02*
X138934000Y-87991190D01*
X138886380Y-88015000D01*
X138862571Y-88038809D01*
X138814952Y-88110238D01*
X138791142Y-88205476D01*
X138791142Y-88395952D01*
X138814952Y-88443571D01*
X138838761Y-88467380D01*
X138886380Y-88491190D01*
X138981619Y-88491190D01*
X139029238Y-88467380D01*
X139053047Y-88443571D01*
X139076857Y-88395952D01*
X139076857Y-88276904D01*
X139053047Y-88229285D01*
X139029238Y-88205476D01*
X138981619Y-88181666D01*
X138886380Y-88181666D01*
X138838761Y-88205476D01*
X138814952Y-88229285D01*
X138791142Y-88276904D01*
%TO.C,R7*%
D11*
X142454333Y-87447380D02*
X142121000Y-86971190D01*
X141882904Y-87447380D02*
X141882904Y-86447380D01*
X142263857Y-86447380D01*
X142359095Y-86495000D01*
X142406714Y-86542619D01*
X142454333Y-86637857D01*
X142454333Y-86780714D01*
X142406714Y-86875952D01*
X142359095Y-86923571D01*
X142263857Y-86971190D01*
X141882904Y-86971190D01*
X142787666Y-86447380D02*
X143454333Y-86447380D01*
X143025761Y-87447380D01*
%TO.C,R8*%
D12*
X138567333Y-96328666D02*
X138334000Y-95995333D01*
X138167333Y-96328666D02*
X138167333Y-95628666D01*
X138434000Y-95628666D01*
X138500666Y-95662000D01*
X138534000Y-95695333D01*
X138567333Y-95762000D01*
X138567333Y-95862000D01*
X138534000Y-95928666D01*
X138500666Y-95962000D01*
X138434000Y-95995333D01*
X138167333Y-95995333D01*
X138967333Y-95928666D02*
X138900666Y-95895333D01*
X138867333Y-95862000D01*
X138834000Y-95795333D01*
X138834000Y-95762000D01*
X138867333Y-95695333D01*
X138900666Y-95662000D01*
X138967333Y-95628666D01*
X139100666Y-95628666D01*
X139167333Y-95662000D01*
X139200666Y-95695333D01*
X139234000Y-95762000D01*
X139234000Y-95795333D01*
X139200666Y-95862000D01*
X139167333Y-95895333D01*
X139100666Y-95928666D01*
X138967333Y-95928666D01*
X138900666Y-95962000D01*
X138867333Y-95995333D01*
X138834000Y-96062000D01*
X138834000Y-96195333D01*
X138867333Y-96262000D01*
X138900666Y-96295333D01*
X138967333Y-96328666D01*
X139100666Y-96328666D01*
X139167333Y-96295333D01*
X139200666Y-96262000D01*
X139234000Y-96195333D01*
X139234000Y-96062000D01*
X139200666Y-95995333D01*
X139167333Y-95962000D01*
X139100666Y-95928666D01*
%TO.C,R9*%
D11*
X144851380Y-88558666D02*
X144375190Y-88892000D01*
X144851380Y-89130095D02*
X143851380Y-89130095D01*
X143851380Y-88749142D01*
X143899000Y-88653904D01*
X143946619Y-88606285D01*
X144041857Y-88558666D01*
X144184714Y-88558666D01*
X144279952Y-88606285D01*
X144327571Y-88653904D01*
X144375190Y-88749142D01*
X144375190Y-89130095D01*
X144851380Y-88082476D02*
X144851380Y-87892000D01*
X144803761Y-87796761D01*
X144756142Y-87749142D01*
X144613285Y-87653904D01*
X144422809Y-87606285D01*
X144041857Y-87606285D01*
X143946619Y-87653904D01*
X143899000Y-87701523D01*
X143851380Y-87796761D01*
X143851380Y-87987238D01*
X143899000Y-88082476D01*
X143946619Y-88130095D01*
X144041857Y-88177714D01*
X144279952Y-88177714D01*
X144375190Y-88130095D01*
X144422809Y-88082476D01*
X144470428Y-87987238D01*
X144470428Y-87796761D01*
X144422809Y-87701523D01*
X144375190Y-87653904D01*
X144279952Y-87606285D01*
%TO.C,R10*%
X151328380Y-90304857D02*
X150852190Y-90638190D01*
X151328380Y-90876285D02*
X150328380Y-90876285D01*
X150328380Y-90495333D01*
X150376000Y-90400095D01*
X150423619Y-90352476D01*
X150518857Y-90304857D01*
X150661714Y-90304857D01*
X150756952Y-90352476D01*
X150804571Y-90400095D01*
X150852190Y-90495333D01*
X150852190Y-90876285D01*
X151328380Y-89352476D02*
X151328380Y-89923904D01*
X151328380Y-89638190D02*
X150328380Y-89638190D01*
X150471238Y-89733428D01*
X150566476Y-89828666D01*
X150614095Y-89923904D01*
X150328380Y-88733428D02*
X150328380Y-88638190D01*
X150376000Y-88542952D01*
X150423619Y-88495333D01*
X150518857Y-88447714D01*
X150709333Y-88400095D01*
X150947428Y-88400095D01*
X151137904Y-88447714D01*
X151233142Y-88495333D01*
X151280761Y-88542952D01*
X151328380Y-88638190D01*
X151328380Y-88733428D01*
X151280761Y-88828666D01*
X151233142Y-88876285D01*
X151137904Y-88923904D01*
X150947428Y-88971523D01*
X150709333Y-88971523D01*
X150518857Y-88923904D01*
X150423619Y-88876285D01*
X150376000Y-88828666D01*
X150328380Y-88733428D01*
%TO.C,R11*%
X147391380Y-90812857D02*
X146915190Y-91146190D01*
X147391380Y-91384285D02*
X146391380Y-91384285D01*
X146391380Y-91003333D01*
X146439000Y-90908095D01*
X146486619Y-90860476D01*
X146581857Y-90812857D01*
X146724714Y-90812857D01*
X146819952Y-90860476D01*
X146867571Y-90908095D01*
X146915190Y-91003333D01*
X146915190Y-91384285D01*
X147391380Y-89860476D02*
X147391380Y-90431904D01*
X147391380Y-90146190D02*
X146391380Y-90146190D01*
X146534238Y-90241428D01*
X146629476Y-90336666D01*
X146677095Y-90431904D01*
X147391380Y-88908095D02*
X147391380Y-89479523D01*
X147391380Y-89193809D02*
X146391380Y-89193809D01*
X146534238Y-89289047D01*
X146629476Y-89384285D01*
X146677095Y-89479523D01*
%TO.C,R12*%
X155313142Y-94432380D02*
X154979809Y-93956190D01*
X154741714Y-94432380D02*
X154741714Y-93432380D01*
X155122666Y-93432380D01*
X155217904Y-93480000D01*
X155265523Y-93527619D01*
X155313142Y-93622857D01*
X155313142Y-93765714D01*
X155265523Y-93860952D01*
X155217904Y-93908571D01*
X155122666Y-93956190D01*
X154741714Y-93956190D01*
X156265523Y-94432380D02*
X155694095Y-94432380D01*
X155979809Y-94432380D02*
X155979809Y-93432380D01*
X155884571Y-93575238D01*
X155789333Y-93670476D01*
X155694095Y-93718095D01*
X156646476Y-93527619D02*
X156694095Y-93480000D01*
X156789333Y-93432380D01*
X157027428Y-93432380D01*
X157122666Y-93480000D01*
X157170285Y-93527619D01*
X157217904Y-93622857D01*
X157217904Y-93718095D01*
X157170285Y-93860952D01*
X156598857Y-94432380D01*
X157217904Y-94432380D01*
%TO.C,R13*%
X150868142Y-99766380D02*
X150534809Y-99290190D01*
X150296714Y-99766380D02*
X150296714Y-98766380D01*
X150677666Y-98766380D01*
X150772904Y-98814000D01*
X150820523Y-98861619D01*
X150868142Y-98956857D01*
X150868142Y-99099714D01*
X150820523Y-99194952D01*
X150772904Y-99242571D01*
X150677666Y-99290190D01*
X150296714Y-99290190D01*
X151820523Y-99766380D02*
X151249095Y-99766380D01*
X151534809Y-99766380D02*
X151534809Y-98766380D01*
X151439571Y-98909238D01*
X151344333Y-99004476D01*
X151249095Y-99052095D01*
X152153857Y-98766380D02*
X152772904Y-98766380D01*
X152439571Y-99147333D01*
X152582428Y-99147333D01*
X152677666Y-99194952D01*
X152725285Y-99242571D01*
X152772904Y-99337809D01*
X152772904Y-99575904D01*
X152725285Y-99671142D01*
X152677666Y-99718761D01*
X152582428Y-99766380D01*
X152296714Y-99766380D01*
X152201476Y-99718761D01*
X152153857Y-99671142D01*
%TO.C,R14*%
X150741142Y-105100380D02*
X150407809Y-104624190D01*
X150169714Y-105100380D02*
X150169714Y-104100380D01*
X150550666Y-104100380D01*
X150645904Y-104148000D01*
X150693523Y-104195619D01*
X150741142Y-104290857D01*
X150741142Y-104433714D01*
X150693523Y-104528952D01*
X150645904Y-104576571D01*
X150550666Y-104624190D01*
X150169714Y-104624190D01*
X151693523Y-105100380D02*
X151122095Y-105100380D01*
X151407809Y-105100380D02*
X151407809Y-104100380D01*
X151312571Y-104243238D01*
X151217333Y-104338476D01*
X151122095Y-104386095D01*
X152550666Y-104433714D02*
X152550666Y-105100380D01*
X152312571Y-104052761D02*
X152074476Y-104767047D01*
X152693523Y-104767047D01*
%TO.C,RV1*%
X153582761Y-83256380D02*
X153249428Y-82780190D01*
X153011333Y-83256380D02*
X153011333Y-82256380D01*
X153392285Y-82256380D01*
X153487523Y-82304000D01*
X153535142Y-82351619D01*
X153582761Y-82446857D01*
X153582761Y-82589714D01*
X153535142Y-82684952D01*
X153487523Y-82732571D01*
X153392285Y-82780190D01*
X153011333Y-82780190D01*
X153868476Y-82256380D02*
X154201809Y-83256380D01*
X154535142Y-82256380D01*
X155392285Y-83256380D02*
X154820857Y-83256380D01*
X155106571Y-83256380D02*
X155106571Y-82256380D01*
X155011333Y-82399238D01*
X154916095Y-82494476D01*
X154820857Y-82542095D01*
%TD*%
M02*
