%TF.GenerationSoftware,KiCad,Pcbnew,5.1.10-88a1d61d58~88~ubuntu16.04.1*%
%TF.CreationDate,2021-09-03T12:29:31+02:00*%
%TF.ProjectId,80mrx,38306d72-782e-46b6-9963-61645f706362,rev?*%
%TF.SameCoordinates,Original*%
%TF.FileFunction,Copper,L1,Top*%
%TF.FilePolarity,Positive*%
%FSLAX46Y46*%
G04 Gerber Fmt 4.6, Leading zero omitted, Abs format (unit mm)*
G04 Created by KiCad (PCBNEW 5.1.10-88a1d61d58~88~ubuntu16.04.1) date 2021-09-03 12:29:31*
%MOMM*%
%LPD*%
G01*
G04 APERTURE LIST*
%TA.AperFunction,SMDPad,CuDef*%
%ADD10R,7.875000X2.000000*%
%TD*%
%TA.AperFunction,ComponentPad*%
%ADD11C,2.200000*%
%TD*%
%TA.AperFunction,ComponentPad*%
%ADD12R,1.700000X1.700000*%
%TD*%
%TA.AperFunction,ComponentPad*%
%ADD13O,1.700000X1.700000*%
%TD*%
%TA.AperFunction,SMDPad,CuDef*%
%ADD14R,0.800000X0.900000*%
%TD*%
%TA.AperFunction,SMDPad,CuDef*%
%ADD15R,0.900000X0.800000*%
%TD*%
%TA.AperFunction,ComponentPad*%
%ADD16C,3.500000*%
%TD*%
%TA.AperFunction,Conductor*%
%ADD17C,0.500000*%
%TD*%
%TA.AperFunction,Conductor*%
%ADD18C,0.250000*%
%TD*%
%TA.AperFunction,Conductor*%
%ADD19C,0.254000*%
%TD*%
%TA.AperFunction,Conductor*%
%ADD20C,0.100000*%
%TD*%
G04 APERTURE END LIST*
D10*
%TO.P,Y1,1*%
%TO.N,Net-(C6-Pad2)*%
X131635000Y-105918000D03*
%TO.P,Y1,2*%
%TO.N,GND*%
X143510000Y-105918000D03*
%TD*%
D11*
%TO.P,J1,1*%
%TO.N,Net-(C18-Pad2)*%
X156972000Y-96988000D03*
%TO.P,J1,2*%
X156972000Y-99488000D03*
%TO.P,J1,3*%
X156972000Y-104488000D03*
%TO.P,J1,4*%
X156972000Y-106988000D03*
%TO.P,J1,5*%
%TO.N,GND*%
X161972000Y-101988000D03*
%TD*%
D12*
%TO.P,AE1,1*%
%TO.N,Net-(AE1-Pad1)*%
X128016000Y-83566000D03*
%TD*%
D13*
%TO.P,BT1,2*%
%TO.N,GND*%
X162560000Y-92964000D03*
D12*
%TO.P,BT1,1*%
%TO.N,+6V*%
X162560000Y-90424000D03*
%TD*%
%TO.P,C1,2*%
%TO.N,GND*%
%TA.AperFunction,SMDPad,CuDef*%
G36*
G01*
X130335000Y-93795000D02*
X131285000Y-93795000D01*
G75*
G02*
X131535000Y-94045000I0J-250000D01*
G01*
X131535000Y-94720000D01*
G75*
G02*
X131285000Y-94970000I-250000J0D01*
G01*
X130335000Y-94970000D01*
G75*
G02*
X130085000Y-94720000I0J250000D01*
G01*
X130085000Y-94045000D01*
G75*
G02*
X130335000Y-93795000I250000J0D01*
G01*
G37*
%TD.AperFunction*%
%TO.P,C1,1*%
%TO.N,Net-(C1-Pad1)*%
%TA.AperFunction,SMDPad,CuDef*%
G36*
G01*
X130335000Y-91720000D02*
X131285000Y-91720000D01*
G75*
G02*
X131535000Y-91970000I0J-250000D01*
G01*
X131535000Y-92645000D01*
G75*
G02*
X131285000Y-92895000I-250000J0D01*
G01*
X130335000Y-92895000D01*
G75*
G02*
X130085000Y-92645000I0J250000D01*
G01*
X130085000Y-91970000D01*
G75*
G02*
X130335000Y-91720000I250000J0D01*
G01*
G37*
%TD.AperFunction*%
%TD*%
%TO.P,C2,2*%
%TO.N,GND*%
%TA.AperFunction,SMDPad,CuDef*%
G36*
G01*
X137000000Y-83878000D02*
X136050000Y-83878000D01*
G75*
G02*
X135800000Y-83628000I0J250000D01*
G01*
X135800000Y-82953000D01*
G75*
G02*
X136050000Y-82703000I250000J0D01*
G01*
X137000000Y-82703000D01*
G75*
G02*
X137250000Y-82953000I0J-250000D01*
G01*
X137250000Y-83628000D01*
G75*
G02*
X137000000Y-83878000I-250000J0D01*
G01*
G37*
%TD.AperFunction*%
%TO.P,C2,1*%
%TO.N,Net-(C2-Pad1)*%
%TA.AperFunction,SMDPad,CuDef*%
G36*
G01*
X137000000Y-85953000D02*
X136050000Y-85953000D01*
G75*
G02*
X135800000Y-85703000I0J250000D01*
G01*
X135800000Y-85028000D01*
G75*
G02*
X136050000Y-84778000I250000J0D01*
G01*
X137000000Y-84778000D01*
G75*
G02*
X137250000Y-85028000I0J-250000D01*
G01*
X137250000Y-85703000D01*
G75*
G02*
X137000000Y-85953000I-250000J0D01*
G01*
G37*
%TD.AperFunction*%
%TD*%
%TO.P,C3,1*%
%TO.N,Net-(C3-Pad1)*%
%TA.AperFunction,SMDPad,CuDef*%
G36*
G01*
X132413500Y-89949000D02*
X132413500Y-90899000D01*
G75*
G02*
X132163500Y-91149000I-250000J0D01*
G01*
X131488500Y-91149000D01*
G75*
G02*
X131238500Y-90899000I0J250000D01*
G01*
X131238500Y-89949000D01*
G75*
G02*
X131488500Y-89699000I250000J0D01*
G01*
X132163500Y-89699000D01*
G75*
G02*
X132413500Y-89949000I0J-250000D01*
G01*
G37*
%TD.AperFunction*%
%TO.P,C3,2*%
%TO.N,Net-(C1-Pad1)*%
%TA.AperFunction,SMDPad,CuDef*%
G36*
G01*
X130338500Y-89949000D02*
X130338500Y-90899000D01*
G75*
G02*
X130088500Y-91149000I-250000J0D01*
G01*
X129413500Y-91149000D01*
G75*
G02*
X129163500Y-90899000I0J250000D01*
G01*
X129163500Y-89949000D01*
G75*
G02*
X129413500Y-89699000I250000J0D01*
G01*
X130088500Y-89699000D01*
G75*
G02*
X130338500Y-89949000I0J-250000D01*
G01*
G37*
%TD.AperFunction*%
%TD*%
%TO.P,C4,1*%
%TO.N,Net-(C4-Pad1)*%
%TA.AperFunction,SMDPad,CuDef*%
G36*
G01*
X145001000Y-83921000D02*
X144051000Y-83921000D01*
G75*
G02*
X143801000Y-83671000I0J250000D01*
G01*
X143801000Y-82996000D01*
G75*
G02*
X144051000Y-82746000I250000J0D01*
G01*
X145001000Y-82746000D01*
G75*
G02*
X145251000Y-82996000I0J-250000D01*
G01*
X145251000Y-83671000D01*
G75*
G02*
X145001000Y-83921000I-250000J0D01*
G01*
G37*
%TD.AperFunction*%
%TO.P,C4,2*%
%TO.N,GND*%
%TA.AperFunction,SMDPad,CuDef*%
G36*
G01*
X145001000Y-81846000D02*
X144051000Y-81846000D01*
G75*
G02*
X143801000Y-81596000I0J250000D01*
G01*
X143801000Y-80921000D01*
G75*
G02*
X144051000Y-80671000I250000J0D01*
G01*
X145001000Y-80671000D01*
G75*
G02*
X145251000Y-80921000I0J-250000D01*
G01*
X145251000Y-81596000D01*
G75*
G02*
X145001000Y-81846000I-250000J0D01*
G01*
G37*
%TD.AperFunction*%
%TD*%
%TO.P,C5,1*%
%TO.N,+6V*%
%TA.AperFunction,SMDPad,CuDef*%
G36*
G01*
X131285000Y-98928500D02*
X130335000Y-98928500D01*
G75*
G02*
X130085000Y-98678500I0J250000D01*
G01*
X130085000Y-98003500D01*
G75*
G02*
X130335000Y-97753500I250000J0D01*
G01*
X131285000Y-97753500D01*
G75*
G02*
X131535000Y-98003500I0J-250000D01*
G01*
X131535000Y-98678500D01*
G75*
G02*
X131285000Y-98928500I-250000J0D01*
G01*
G37*
%TD.AperFunction*%
%TO.P,C5,2*%
%TO.N,GND*%
%TA.AperFunction,SMDPad,CuDef*%
G36*
G01*
X131285000Y-96853500D02*
X130335000Y-96853500D01*
G75*
G02*
X130085000Y-96603500I0J250000D01*
G01*
X130085000Y-95928500D01*
G75*
G02*
X130335000Y-95678500I250000J0D01*
G01*
X131285000Y-95678500D01*
G75*
G02*
X131535000Y-95928500I0J-250000D01*
G01*
X131535000Y-96603500D01*
G75*
G02*
X131285000Y-96853500I-250000J0D01*
G01*
G37*
%TD.AperFunction*%
%TD*%
%TO.P,C6,1*%
%TO.N,Net-(C10-Pad1)*%
%TA.AperFunction,SMDPad,CuDef*%
G36*
G01*
X137261000Y-100617000D02*
X137261000Y-101567000D01*
G75*
G02*
X137011000Y-101817000I-250000J0D01*
G01*
X136336000Y-101817000D01*
G75*
G02*
X136086000Y-101567000I0J250000D01*
G01*
X136086000Y-100617000D01*
G75*
G02*
X136336000Y-100367000I250000J0D01*
G01*
X137011000Y-100367000D01*
G75*
G02*
X137261000Y-100617000I0J-250000D01*
G01*
G37*
%TD.AperFunction*%
%TO.P,C6,2*%
%TO.N,Net-(C6-Pad2)*%
%TA.AperFunction,SMDPad,CuDef*%
G36*
G01*
X135186000Y-100617000D02*
X135186000Y-101567000D01*
G75*
G02*
X134936000Y-101817000I-250000J0D01*
G01*
X134261000Y-101817000D01*
G75*
G02*
X134011000Y-101567000I0J250000D01*
G01*
X134011000Y-100617000D01*
G75*
G02*
X134261000Y-100367000I250000J0D01*
G01*
X134936000Y-100367000D01*
G75*
G02*
X135186000Y-100617000I0J-250000D01*
G01*
G37*
%TD.AperFunction*%
%TD*%
%TO.P,C7,2*%
%TO.N,Net-(C10-Pad1)*%
%TA.AperFunction,SMDPad,CuDef*%
G36*
G01*
X139017500Y-100617000D02*
X139017500Y-101567000D01*
G75*
G02*
X138767500Y-101817000I-250000J0D01*
G01*
X138092500Y-101817000D01*
G75*
G02*
X137842500Y-101567000I0J250000D01*
G01*
X137842500Y-100617000D01*
G75*
G02*
X138092500Y-100367000I250000J0D01*
G01*
X138767500Y-100367000D01*
G75*
G02*
X139017500Y-100617000I0J-250000D01*
G01*
G37*
%TD.AperFunction*%
%TO.P,C7,1*%
%TO.N,GND*%
%TA.AperFunction,SMDPad,CuDef*%
G36*
G01*
X141092500Y-100617000D02*
X141092500Y-101567000D01*
G75*
G02*
X140842500Y-101817000I-250000J0D01*
G01*
X140167500Y-101817000D01*
G75*
G02*
X139917500Y-101567000I0J250000D01*
G01*
X139917500Y-100617000D01*
G75*
G02*
X140167500Y-100367000I250000J0D01*
G01*
X140842500Y-100367000D01*
G75*
G02*
X141092500Y-100617000I0J-250000D01*
G01*
G37*
%TD.AperFunction*%
%TD*%
%TO.P,C8,2*%
%TO.N,Net-(C8-Pad2)*%
%TA.AperFunction,SMDPad,CuDef*%
G36*
G01*
X136050000Y-88715000D02*
X137000000Y-88715000D01*
G75*
G02*
X137250000Y-88965000I0J-250000D01*
G01*
X137250000Y-89640000D01*
G75*
G02*
X137000000Y-89890000I-250000J0D01*
G01*
X136050000Y-89890000D01*
G75*
G02*
X135800000Y-89640000I0J250000D01*
G01*
X135800000Y-88965000D01*
G75*
G02*
X136050000Y-88715000I250000J0D01*
G01*
G37*
%TD.AperFunction*%
%TO.P,C8,1*%
%TO.N,Net-(C2-Pad1)*%
%TA.AperFunction,SMDPad,CuDef*%
G36*
G01*
X136050000Y-86640000D02*
X137000000Y-86640000D01*
G75*
G02*
X137250000Y-86890000I0J-250000D01*
G01*
X137250000Y-87565000D01*
G75*
G02*
X137000000Y-87815000I-250000J0D01*
G01*
X136050000Y-87815000D01*
G75*
G02*
X135800000Y-87565000I0J250000D01*
G01*
X135800000Y-86890000D01*
G75*
G02*
X136050000Y-86640000I250000J0D01*
G01*
G37*
%TD.AperFunction*%
%TD*%
%TO.P,C9,2*%
%TO.N,Net-(C9-Pad2)*%
%TA.AperFunction,SMDPad,CuDef*%
G36*
G01*
X137000000Y-91625000D02*
X136050000Y-91625000D01*
G75*
G02*
X135800000Y-91375000I0J250000D01*
G01*
X135800000Y-90700000D01*
G75*
G02*
X136050000Y-90450000I250000J0D01*
G01*
X137000000Y-90450000D01*
G75*
G02*
X137250000Y-90700000I0J-250000D01*
G01*
X137250000Y-91375000D01*
G75*
G02*
X137000000Y-91625000I-250000J0D01*
G01*
G37*
%TD.AperFunction*%
%TO.P,C9,1*%
%TO.N,Net-(C8-Pad2)*%
%TA.AperFunction,SMDPad,CuDef*%
G36*
G01*
X137000000Y-93700000D02*
X136050000Y-93700000D01*
G75*
G02*
X135800000Y-93450000I0J250000D01*
G01*
X135800000Y-92775000D01*
G75*
G02*
X136050000Y-92525000I250000J0D01*
G01*
X137000000Y-92525000D01*
G75*
G02*
X137250000Y-92775000I0J-250000D01*
G01*
X137250000Y-93450000D01*
G75*
G02*
X137000000Y-93700000I-250000J0D01*
G01*
G37*
%TD.AperFunction*%
%TD*%
%TO.P,C10,2*%
%TO.N,Net-(C10-Pad2)*%
%TA.AperFunction,SMDPad,CuDef*%
G36*
G01*
X137000000Y-95583500D02*
X136050000Y-95583500D01*
G75*
G02*
X135800000Y-95333500I0J250000D01*
G01*
X135800000Y-94658500D01*
G75*
G02*
X136050000Y-94408500I250000J0D01*
G01*
X137000000Y-94408500D01*
G75*
G02*
X137250000Y-94658500I0J-250000D01*
G01*
X137250000Y-95333500D01*
G75*
G02*
X137000000Y-95583500I-250000J0D01*
G01*
G37*
%TD.AperFunction*%
%TO.P,C10,1*%
%TO.N,Net-(C10-Pad1)*%
%TA.AperFunction,SMDPad,CuDef*%
G36*
G01*
X137000000Y-97658500D02*
X136050000Y-97658500D01*
G75*
G02*
X135800000Y-97408500I0J250000D01*
G01*
X135800000Y-96733500D01*
G75*
G02*
X136050000Y-96483500I250000J0D01*
G01*
X137000000Y-96483500D01*
G75*
G02*
X137250000Y-96733500I0J-250000D01*
G01*
X137250000Y-97408500D01*
G75*
G02*
X137000000Y-97658500I-250000J0D01*
G01*
G37*
%TD.AperFunction*%
%TD*%
%TO.P,C11,1*%
%TO.N,+6V*%
%TA.AperFunction,SMDPad,CuDef*%
G36*
G01*
X139159000Y-85953000D02*
X138209000Y-85953000D01*
G75*
G02*
X137959000Y-85703000I0J250000D01*
G01*
X137959000Y-85028000D01*
G75*
G02*
X138209000Y-84778000I250000J0D01*
G01*
X139159000Y-84778000D01*
G75*
G02*
X139409000Y-85028000I0J-250000D01*
G01*
X139409000Y-85703000D01*
G75*
G02*
X139159000Y-85953000I-250000J0D01*
G01*
G37*
%TD.AperFunction*%
%TO.P,C11,2*%
%TO.N,GND*%
%TA.AperFunction,SMDPad,CuDef*%
G36*
G01*
X139159000Y-83878000D02*
X138209000Y-83878000D01*
G75*
G02*
X137959000Y-83628000I0J250000D01*
G01*
X137959000Y-82953000D01*
G75*
G02*
X138209000Y-82703000I250000J0D01*
G01*
X139159000Y-82703000D01*
G75*
G02*
X139409000Y-82953000I0J-250000D01*
G01*
X139409000Y-83628000D01*
G75*
G02*
X139159000Y-83878000I-250000J0D01*
G01*
G37*
%TD.AperFunction*%
%TD*%
%TO.P,C12,1*%
%TO.N,Net-(C12-Pad1)*%
%TA.AperFunction,SMDPad,CuDef*%
G36*
G01*
X140241000Y-94408500D02*
X141191000Y-94408500D01*
G75*
G02*
X141441000Y-94658500I0J-250000D01*
G01*
X141441000Y-95333500D01*
G75*
G02*
X141191000Y-95583500I-250000J0D01*
G01*
X140241000Y-95583500D01*
G75*
G02*
X139991000Y-95333500I0J250000D01*
G01*
X139991000Y-94658500D01*
G75*
G02*
X140241000Y-94408500I250000J0D01*
G01*
G37*
%TD.AperFunction*%
%TO.P,C12,2*%
%TO.N,GND*%
%TA.AperFunction,SMDPad,CuDef*%
G36*
G01*
X140241000Y-96483500D02*
X141191000Y-96483500D01*
G75*
G02*
X141441000Y-96733500I0J-250000D01*
G01*
X141441000Y-97408500D01*
G75*
G02*
X141191000Y-97658500I-250000J0D01*
G01*
X140241000Y-97658500D01*
G75*
G02*
X139991000Y-97408500I0J250000D01*
G01*
X139991000Y-96733500D01*
G75*
G02*
X140241000Y-96483500I250000J0D01*
G01*
G37*
%TD.AperFunction*%
%TD*%
%TO.P,C13,2*%
%TO.N,Net-(C12-Pad1)*%
%TA.AperFunction,SMDPad,CuDef*%
G36*
G01*
X143477000Y-93530000D02*
X142527000Y-93530000D01*
G75*
G02*
X142277000Y-93280000I0J250000D01*
G01*
X142277000Y-92605000D01*
G75*
G02*
X142527000Y-92355000I250000J0D01*
G01*
X143477000Y-92355000D01*
G75*
G02*
X143727000Y-92605000I0J-250000D01*
G01*
X143727000Y-93280000D01*
G75*
G02*
X143477000Y-93530000I-250000J0D01*
G01*
G37*
%TD.AperFunction*%
%TO.P,C13,1*%
%TO.N,Net-(C13-Pad1)*%
%TA.AperFunction,SMDPad,CuDef*%
G36*
G01*
X143477000Y-95605000D02*
X142527000Y-95605000D01*
G75*
G02*
X142277000Y-95355000I0J250000D01*
G01*
X142277000Y-94680000D01*
G75*
G02*
X142527000Y-94430000I250000J0D01*
G01*
X143477000Y-94430000D01*
G75*
G02*
X143727000Y-94680000I0J-250000D01*
G01*
X143727000Y-95355000D01*
G75*
G02*
X143477000Y-95605000I-250000J0D01*
G01*
G37*
%TD.AperFunction*%
%TD*%
%TO.P,C14,2*%
%TO.N,GND*%
%TA.AperFunction,SMDPad,CuDef*%
G36*
G01*
X158595500Y-90312002D02*
X158595500Y-89011998D01*
G75*
G02*
X158845498Y-88762000I249998J0D01*
G01*
X159670502Y-88762000D01*
G75*
G02*
X159920500Y-89011998I0J-249998D01*
G01*
X159920500Y-90312002D01*
G75*
G02*
X159670502Y-90562000I-249998J0D01*
G01*
X158845498Y-90562000D01*
G75*
G02*
X158595500Y-90312002I0J249998D01*
G01*
G37*
%TD.AperFunction*%
%TO.P,C14,1*%
%TO.N,+6V*%
%TA.AperFunction,SMDPad,CuDef*%
G36*
G01*
X155470500Y-90312002D02*
X155470500Y-89011998D01*
G75*
G02*
X155720498Y-88762000I249998J0D01*
G01*
X156545502Y-88762000D01*
G75*
G02*
X156795500Y-89011998I0J-249998D01*
G01*
X156795500Y-90312002D01*
G75*
G02*
X156545502Y-90562000I-249998J0D01*
G01*
X155720498Y-90562000D01*
G75*
G02*
X155470500Y-90312002I0J249998D01*
G01*
G37*
%TD.AperFunction*%
%TD*%
%TO.P,C15,1*%
%TO.N,GND*%
%TA.AperFunction,SMDPad,CuDef*%
G36*
G01*
X145763000Y-97383000D02*
X144813000Y-97383000D01*
G75*
G02*
X144563000Y-97133000I0J250000D01*
G01*
X144563000Y-96458000D01*
G75*
G02*
X144813000Y-96208000I250000J0D01*
G01*
X145763000Y-96208000D01*
G75*
G02*
X146013000Y-96458000I0J-250000D01*
G01*
X146013000Y-97133000D01*
G75*
G02*
X145763000Y-97383000I-250000J0D01*
G01*
G37*
%TD.AperFunction*%
%TO.P,C15,2*%
%TO.N,Net-(C13-Pad1)*%
%TA.AperFunction,SMDPad,CuDef*%
G36*
G01*
X145763000Y-95308000D02*
X144813000Y-95308000D01*
G75*
G02*
X144563000Y-95058000I0J250000D01*
G01*
X144563000Y-94383000D01*
G75*
G02*
X144813000Y-94133000I250000J0D01*
G01*
X145763000Y-94133000D01*
G75*
G02*
X146013000Y-94383000I0J-250000D01*
G01*
X146013000Y-95058000D01*
G75*
G02*
X145763000Y-95308000I-250000J0D01*
G01*
G37*
%TD.AperFunction*%
%TD*%
%TO.P,C16,2*%
%TO.N,Net-(C16-Pad2)*%
%TA.AperFunction,SMDPad,CuDef*%
G36*
G01*
X153220000Y-91473000D02*
X153220000Y-92423000D01*
G75*
G02*
X152970000Y-92673000I-250000J0D01*
G01*
X152295000Y-92673000D01*
G75*
G02*
X152045000Y-92423000I0J250000D01*
G01*
X152045000Y-91473000D01*
G75*
G02*
X152295000Y-91223000I250000J0D01*
G01*
X152970000Y-91223000D01*
G75*
G02*
X153220000Y-91473000I0J-250000D01*
G01*
G37*
%TD.AperFunction*%
%TO.P,C16,1*%
%TO.N,GND*%
%TA.AperFunction,SMDPad,CuDef*%
G36*
G01*
X155295000Y-91473000D02*
X155295000Y-92423000D01*
G75*
G02*
X155045000Y-92673000I-250000J0D01*
G01*
X154370000Y-92673000D01*
G75*
G02*
X154120000Y-92423000I0J250000D01*
G01*
X154120000Y-91473000D01*
G75*
G02*
X154370000Y-91223000I250000J0D01*
G01*
X155045000Y-91223000D01*
G75*
G02*
X155295000Y-91473000I0J-250000D01*
G01*
G37*
%TD.AperFunction*%
%TD*%
%TO.P,C17,1*%
%TO.N,GND*%
%TA.AperFunction,SMDPad,CuDef*%
G36*
G01*
X145255000Y-102717000D02*
X144305000Y-102717000D01*
G75*
G02*
X144055000Y-102467000I0J250000D01*
G01*
X144055000Y-101792000D01*
G75*
G02*
X144305000Y-101542000I250000J0D01*
G01*
X145255000Y-101542000D01*
G75*
G02*
X145505000Y-101792000I0J-250000D01*
G01*
X145505000Y-102467000D01*
G75*
G02*
X145255000Y-102717000I-250000J0D01*
G01*
G37*
%TD.AperFunction*%
%TO.P,C17,2*%
%TO.N,Net-(C17-Pad2)*%
%TA.AperFunction,SMDPad,CuDef*%
G36*
G01*
X145255000Y-100642000D02*
X144305000Y-100642000D01*
G75*
G02*
X144055000Y-100392000I0J250000D01*
G01*
X144055000Y-99717000D01*
G75*
G02*
X144305000Y-99467000I250000J0D01*
G01*
X145255000Y-99467000D01*
G75*
G02*
X145505000Y-99717000I0J-250000D01*
G01*
X145505000Y-100392000D01*
G75*
G02*
X145255000Y-100642000I-250000J0D01*
G01*
G37*
%TD.AperFunction*%
%TD*%
%TO.P,C18,1*%
%TO.N,Net-(C18-Pad1)*%
%TA.AperFunction,SMDPad,CuDef*%
G36*
G01*
X148651000Y-107584002D02*
X148651000Y-106283998D01*
G75*
G02*
X148900998Y-106034000I249998J0D01*
G01*
X149726002Y-106034000D01*
G75*
G02*
X149976000Y-106283998I0J-249998D01*
G01*
X149976000Y-107584002D01*
G75*
G02*
X149726002Y-107834000I-249998J0D01*
G01*
X148900998Y-107834000D01*
G75*
G02*
X148651000Y-107584002I0J249998D01*
G01*
G37*
%TD.AperFunction*%
%TO.P,C18,2*%
%TO.N,Net-(C18-Pad2)*%
%TA.AperFunction,SMDPad,CuDef*%
G36*
G01*
X151776000Y-107584002D02*
X151776000Y-106283998D01*
G75*
G02*
X152025998Y-106034000I249998J0D01*
G01*
X152851002Y-106034000D01*
G75*
G02*
X153101000Y-106283998I0J-249998D01*
G01*
X153101000Y-107584002D01*
G75*
G02*
X152851002Y-107834000I-249998J0D01*
G01*
X152025998Y-107834000D01*
G75*
G02*
X151776000Y-107584002I0J249998D01*
G01*
G37*
%TD.AperFunction*%
%TD*%
%TO.P,L1,1*%
%TO.N,Net-(C1-Pad1)*%
X128016000Y-93726000D03*
D13*
%TO.P,L1,2*%
%TO.N,GND*%
X128016000Y-96266000D03*
%TD*%
%TO.P,L2,1*%
%TO.N,Net-(C2-Pad1)*%
%TA.AperFunction,SMDPad,CuDef*%
G36*
G01*
X133411999Y-86486500D02*
X134812001Y-86486500D01*
G75*
G02*
X135062000Y-86736499I0J-249999D01*
G01*
X135062000Y-87461501D01*
G75*
G02*
X134812001Y-87711500I-249999J0D01*
G01*
X133411999Y-87711500D01*
G75*
G02*
X133162000Y-87461501I0J249999D01*
G01*
X133162000Y-86736499D01*
G75*
G02*
X133411999Y-86486500I249999J0D01*
G01*
G37*
%TD.AperFunction*%
%TO.P,L2,2*%
%TO.N,Net-(C8-Pad2)*%
%TA.AperFunction,SMDPad,CuDef*%
G36*
G01*
X133411999Y-89811500D02*
X134812001Y-89811500D01*
G75*
G02*
X135062000Y-90061499I0J-249999D01*
G01*
X135062000Y-90786501D01*
G75*
G02*
X134812001Y-91036500I-249999J0D01*
G01*
X133411999Y-91036500D01*
G75*
G02*
X133162000Y-90786501I0J249999D01*
G01*
X133162000Y-90061499D01*
G75*
G02*
X133411999Y-89811500I249999J0D01*
G01*
G37*
%TD.AperFunction*%
%TD*%
D14*
%TO.P,Q1,3*%
%TO.N,+6V*%
X141732000Y-85328000D03*
%TO.P,Q1,2*%
%TO.N,Net-(Q1-Pad2)*%
X140782000Y-83328000D03*
%TO.P,Q1,1*%
%TO.N,Net-(C4-Pad1)*%
X142682000Y-83328000D03*
%TD*%
D15*
%TO.P,Q2,1*%
%TO.N,Net-(C3-Pad1)*%
X132620000Y-92395000D03*
%TO.P,Q2,2*%
%TO.N,GND*%
X132620000Y-94295000D03*
%TO.P,Q2,3*%
%TO.N,Net-(C8-Pad2)*%
X134620000Y-93345000D03*
%TD*%
%TO.P,Q3,3*%
%TO.N,+6V*%
X132604000Y-98044000D03*
%TO.P,Q3,2*%
%TO.N,Net-(C10-Pad1)*%
X134604000Y-97094000D03*
%TO.P,Q3,1*%
%TO.N,Net-(C6-Pad2)*%
X134604000Y-98994000D03*
%TD*%
%TO.P,Q4,1*%
%TO.N,Net-(C9-Pad2)*%
X138700000Y-91125000D03*
%TO.P,Q4,2*%
%TO.N,Net-(C10-Pad2)*%
X138700000Y-93025000D03*
%TO.P,Q4,3*%
%TO.N,Net-(Q4-Pad3)*%
X140700000Y-92075000D03*
%TD*%
%TO.P,Q5,1*%
%TO.N,Net-(C13-Pad1)*%
X147082000Y-93284000D03*
%TO.P,Q5,2*%
%TO.N,GND*%
X147082000Y-95184000D03*
%TO.P,Q5,3*%
%TO.N,Net-(Q5-Pad3)*%
X149082000Y-94234000D03*
%TD*%
D14*
%TO.P,Q6,3*%
%TO.N,Net-(C17-Pad2)*%
X148082000Y-98790000D03*
%TO.P,Q6,2*%
%TO.N,GND*%
X147132000Y-96790000D03*
%TO.P,Q6,1*%
%TO.N,Net-(Q5-Pad3)*%
X149032000Y-96790000D03*
%TD*%
D15*
%TO.P,Q7,1*%
%TO.N,Net-(C17-Pad2)*%
X146828000Y-100396000D03*
%TO.P,Q7,2*%
%TO.N,GND*%
X146828000Y-102296000D03*
%TO.P,Q7,3*%
%TO.N,Net-(C18-Pad1)*%
X148828000Y-101346000D03*
%TD*%
%TO.P,R1,2*%
%TO.N,Net-(C1-Pad1)*%
%TA.AperFunction,SMDPad,CuDef*%
G36*
G01*
X128327999Y-87776000D02*
X129228001Y-87776000D01*
G75*
G02*
X129478000Y-88025999I0J-249999D01*
G01*
X129478000Y-88726001D01*
G75*
G02*
X129228001Y-88976000I-249999J0D01*
G01*
X128327999Y-88976000D01*
G75*
G02*
X128078000Y-88726001I0J249999D01*
G01*
X128078000Y-88025999D01*
G75*
G02*
X128327999Y-87776000I249999J0D01*
G01*
G37*
%TD.AperFunction*%
%TO.P,R1,1*%
%TO.N,Net-(AE1-Pad1)*%
%TA.AperFunction,SMDPad,CuDef*%
G36*
G01*
X128327999Y-85776000D02*
X129228001Y-85776000D01*
G75*
G02*
X129478000Y-86025999I0J-249999D01*
G01*
X129478000Y-86726001D01*
G75*
G02*
X129228001Y-86976000I-249999J0D01*
G01*
X128327999Y-86976000D01*
G75*
G02*
X128078000Y-86726001I0J249999D01*
G01*
X128078000Y-86025999D01*
G75*
G02*
X128327999Y-85776000I249999J0D01*
G01*
G37*
%TD.AperFunction*%
%TD*%
%TO.P,R2,2*%
%TO.N,Net-(C3-Pad1)*%
%TA.AperFunction,SMDPad,CuDef*%
G36*
G01*
X130359999Y-87792000D02*
X131260001Y-87792000D01*
G75*
G02*
X131510000Y-88041999I0J-249999D01*
G01*
X131510000Y-88742001D01*
G75*
G02*
X131260001Y-88992000I-249999J0D01*
G01*
X130359999Y-88992000D01*
G75*
G02*
X130110000Y-88742001I0J249999D01*
G01*
X130110000Y-88041999D01*
G75*
G02*
X130359999Y-87792000I249999J0D01*
G01*
G37*
%TD.AperFunction*%
%TO.P,R2,1*%
%TO.N,Net-(C2-Pad1)*%
%TA.AperFunction,SMDPad,CuDef*%
G36*
G01*
X130359999Y-85792000D02*
X131260001Y-85792000D01*
G75*
G02*
X131510000Y-86041999I0J-249999D01*
G01*
X131510000Y-86742001D01*
G75*
G02*
X131260001Y-86992000I-249999J0D01*
G01*
X130359999Y-86992000D01*
G75*
G02*
X130110000Y-86742001I0J249999D01*
G01*
X130110000Y-86041999D01*
G75*
G02*
X130359999Y-85792000I249999J0D01*
G01*
G37*
%TD.AperFunction*%
%TD*%
%TO.P,R3,1*%
%TO.N,Net-(Q1-Pad2)*%
%TA.AperFunction,SMDPad,CuDef*%
G36*
G01*
X133661999Y-82744000D02*
X134562001Y-82744000D01*
G75*
G02*
X134812000Y-82993999I0J-249999D01*
G01*
X134812000Y-83694001D01*
G75*
G02*
X134562001Y-83944000I-249999J0D01*
G01*
X133661999Y-83944000D01*
G75*
G02*
X133412000Y-83694001I0J249999D01*
G01*
X133412000Y-82993999D01*
G75*
G02*
X133661999Y-82744000I249999J0D01*
G01*
G37*
%TD.AperFunction*%
%TO.P,R3,2*%
%TO.N,Net-(C2-Pad1)*%
%TA.AperFunction,SMDPad,CuDef*%
G36*
G01*
X133661999Y-84744000D02*
X134562001Y-84744000D01*
G75*
G02*
X134812000Y-84993999I0J-249999D01*
G01*
X134812000Y-85694001D01*
G75*
G02*
X134562001Y-85944000I-249999J0D01*
G01*
X133661999Y-85944000D01*
G75*
G02*
X133412000Y-85694001I0J249999D01*
G01*
X133412000Y-84993999D01*
G75*
G02*
X133661999Y-84744000I249999J0D01*
G01*
G37*
%TD.AperFunction*%
%TD*%
%TO.P,R4,2*%
%TO.N,Net-(C6-Pad2)*%
%TA.AperFunction,SMDPad,CuDef*%
G36*
G01*
X132242000Y-101542001D02*
X132242000Y-100641999D01*
G75*
G02*
X132491999Y-100392000I249999J0D01*
G01*
X133192001Y-100392000D01*
G75*
G02*
X133442000Y-100641999I0J-249999D01*
G01*
X133442000Y-101542001D01*
G75*
G02*
X133192001Y-101792000I-249999J0D01*
G01*
X132491999Y-101792000D01*
G75*
G02*
X132242000Y-101542001I0J249999D01*
G01*
G37*
%TD.AperFunction*%
%TO.P,R4,1*%
%TO.N,+6V*%
%TA.AperFunction,SMDPad,CuDef*%
G36*
G01*
X130242000Y-101542001D02*
X130242000Y-100641999D01*
G75*
G02*
X130491999Y-100392000I249999J0D01*
G01*
X131192001Y-100392000D01*
G75*
G02*
X131442000Y-100641999I0J-249999D01*
G01*
X131442000Y-101542001D01*
G75*
G02*
X131192001Y-101792000I-249999J0D01*
G01*
X130491999Y-101792000D01*
G75*
G02*
X130242000Y-101542001I0J249999D01*
G01*
G37*
%TD.AperFunction*%
%TD*%
%TO.P,R5,1*%
%TO.N,Net-(C10-Pad1)*%
%TA.AperFunction,SMDPad,CuDef*%
G36*
G01*
X136068000Y-99510001D02*
X136068000Y-98609999D01*
G75*
G02*
X136317999Y-98360000I249999J0D01*
G01*
X137018001Y-98360000D01*
G75*
G02*
X137268000Y-98609999I0J-249999D01*
G01*
X137268000Y-99510001D01*
G75*
G02*
X137018001Y-99760000I-249999J0D01*
G01*
X136317999Y-99760000D01*
G75*
G02*
X136068000Y-99510001I0J249999D01*
G01*
G37*
%TD.AperFunction*%
%TO.P,R5,2*%
%TO.N,GND*%
%TA.AperFunction,SMDPad,CuDef*%
G36*
G01*
X138068000Y-99510001D02*
X138068000Y-98609999D01*
G75*
G02*
X138317999Y-98360000I249999J0D01*
G01*
X139018001Y-98360000D01*
G75*
G02*
X139268000Y-98609999I0J-249999D01*
G01*
X139268000Y-99510001D01*
G75*
G02*
X139018001Y-99760000I-249999J0D01*
G01*
X138317999Y-99760000D01*
G75*
G02*
X138068000Y-99510001I0J249999D01*
G01*
G37*
%TD.AperFunction*%
%TD*%
%TO.P,R6,1*%
%TO.N,+6V*%
%TA.AperFunction,SMDPad,CuDef*%
G36*
G01*
X138233999Y-86665000D02*
X139134001Y-86665000D01*
G75*
G02*
X139384000Y-86914999I0J-249999D01*
G01*
X139384000Y-87615001D01*
G75*
G02*
X139134001Y-87865000I-249999J0D01*
G01*
X138233999Y-87865000D01*
G75*
G02*
X137984000Y-87615001I0J249999D01*
G01*
X137984000Y-86914999D01*
G75*
G02*
X138233999Y-86665000I249999J0D01*
G01*
G37*
%TD.AperFunction*%
%TO.P,R6,2*%
%TO.N,Net-(C9-Pad2)*%
%TA.AperFunction,SMDPad,CuDef*%
G36*
G01*
X138233999Y-88665000D02*
X139134001Y-88665000D01*
G75*
G02*
X139384000Y-88914999I0J-249999D01*
G01*
X139384000Y-89615001D01*
G75*
G02*
X139134001Y-89865000I-249999J0D01*
G01*
X138233999Y-89865000D01*
G75*
G02*
X137984000Y-89615001I0J249999D01*
G01*
X137984000Y-88914999D01*
G75*
G02*
X138233999Y-88665000I249999J0D01*
G01*
G37*
%TD.AperFunction*%
%TD*%
%TO.P,R7,2*%
%TO.N,Net-(Q4-Pad3)*%
%TA.AperFunction,SMDPad,CuDef*%
G36*
G01*
X140265999Y-88665000D02*
X141166001Y-88665000D01*
G75*
G02*
X141416000Y-88914999I0J-249999D01*
G01*
X141416000Y-89615001D01*
G75*
G02*
X141166001Y-89865000I-249999J0D01*
G01*
X140265999Y-89865000D01*
G75*
G02*
X140016000Y-89615001I0J249999D01*
G01*
X140016000Y-88914999D01*
G75*
G02*
X140265999Y-88665000I249999J0D01*
G01*
G37*
%TD.AperFunction*%
%TO.P,R7,1*%
%TO.N,+6V*%
%TA.AperFunction,SMDPad,CuDef*%
G36*
G01*
X140265999Y-86665000D02*
X141166001Y-86665000D01*
G75*
G02*
X141416000Y-86914999I0J-249999D01*
G01*
X141416000Y-87615001D01*
G75*
G02*
X141166001Y-87865000I-249999J0D01*
G01*
X140265999Y-87865000D01*
G75*
G02*
X140016000Y-87615001I0J249999D01*
G01*
X140016000Y-86914999D01*
G75*
G02*
X140265999Y-86665000I249999J0D01*
G01*
G37*
%TD.AperFunction*%
%TD*%
%TO.P,R8,1*%
%TO.N,Net-(C10-Pad2)*%
%TA.AperFunction,SMDPad,CuDef*%
G36*
G01*
X138233999Y-94396000D02*
X139134001Y-94396000D01*
G75*
G02*
X139384000Y-94645999I0J-249999D01*
G01*
X139384000Y-95346001D01*
G75*
G02*
X139134001Y-95596000I-249999J0D01*
G01*
X138233999Y-95596000D01*
G75*
G02*
X137984000Y-95346001I0J249999D01*
G01*
X137984000Y-94645999D01*
G75*
G02*
X138233999Y-94396000I249999J0D01*
G01*
G37*
%TD.AperFunction*%
%TO.P,R8,2*%
%TO.N,GND*%
%TA.AperFunction,SMDPad,CuDef*%
G36*
G01*
X138233999Y-96396000D02*
X139134001Y-96396000D01*
G75*
G02*
X139384000Y-96645999I0J-249999D01*
G01*
X139384000Y-97346001D01*
G75*
G02*
X139134001Y-97596000I-249999J0D01*
G01*
X138233999Y-97596000D01*
G75*
G02*
X137984000Y-97346001I0J249999D01*
G01*
X137984000Y-96645999D01*
G75*
G02*
X138233999Y-96396000I249999J0D01*
G01*
G37*
%TD.AperFunction*%
%TD*%
%TO.P,R9,1*%
%TO.N,Net-(C12-Pad1)*%
%TA.AperFunction,SMDPad,CuDef*%
G36*
G01*
X143198001Y-91770000D02*
X142297999Y-91770000D01*
G75*
G02*
X142048000Y-91520001I0J249999D01*
G01*
X142048000Y-90819999D01*
G75*
G02*
X142297999Y-90570000I249999J0D01*
G01*
X143198001Y-90570000D01*
G75*
G02*
X143448000Y-90819999I0J-249999D01*
G01*
X143448000Y-91520001D01*
G75*
G02*
X143198001Y-91770000I-249999J0D01*
G01*
G37*
%TD.AperFunction*%
%TO.P,R9,2*%
%TO.N,Net-(Q4-Pad3)*%
%TA.AperFunction,SMDPad,CuDef*%
G36*
G01*
X143198001Y-89770000D02*
X142297999Y-89770000D01*
G75*
G02*
X142048000Y-89520001I0J249999D01*
G01*
X142048000Y-88819999D01*
G75*
G02*
X142297999Y-88570000I249999J0D01*
G01*
X143198001Y-88570000D01*
G75*
G02*
X143448000Y-88819999I0J-249999D01*
G01*
X143448000Y-89520001D01*
G75*
G02*
X143198001Y-89770000I-249999J0D01*
G01*
G37*
%TD.AperFunction*%
%TD*%
%TO.P,R10,2*%
%TO.N,+6V*%
%TA.AperFunction,SMDPad,CuDef*%
G36*
G01*
X149548001Y-90024000D02*
X148647999Y-90024000D01*
G75*
G02*
X148398000Y-89774001I0J249999D01*
G01*
X148398000Y-89073999D01*
G75*
G02*
X148647999Y-88824000I249999J0D01*
G01*
X149548001Y-88824000D01*
G75*
G02*
X149798000Y-89073999I0J-249999D01*
G01*
X149798000Y-89774001D01*
G75*
G02*
X149548001Y-90024000I-249999J0D01*
G01*
G37*
%TD.AperFunction*%
%TO.P,R10,1*%
%TO.N,Net-(Q5-Pad3)*%
%TA.AperFunction,SMDPad,CuDef*%
G36*
G01*
X149548001Y-92024000D02*
X148647999Y-92024000D01*
G75*
G02*
X148398000Y-91774001I0J249999D01*
G01*
X148398000Y-91073999D01*
G75*
G02*
X148647999Y-90824000I249999J0D01*
G01*
X149548001Y-90824000D01*
G75*
G02*
X149798000Y-91073999I0J-249999D01*
G01*
X149798000Y-91774001D01*
G75*
G02*
X149548001Y-92024000I-249999J0D01*
G01*
G37*
%TD.AperFunction*%
%TD*%
%TO.P,R11,1*%
%TO.N,Net-(C13-Pad1)*%
%TA.AperFunction,SMDPad,CuDef*%
G36*
G01*
X145738001Y-93294000D02*
X144837999Y-93294000D01*
G75*
G02*
X144588000Y-93044001I0J249999D01*
G01*
X144588000Y-92343999D01*
G75*
G02*
X144837999Y-92094000I249999J0D01*
G01*
X145738001Y-92094000D01*
G75*
G02*
X145988000Y-92343999I0J-249999D01*
G01*
X145988000Y-93044001D01*
G75*
G02*
X145738001Y-93294000I-249999J0D01*
G01*
G37*
%TD.AperFunction*%
%TO.P,R11,2*%
%TO.N,Net-(C16-Pad2)*%
%TA.AperFunction,SMDPad,CuDef*%
G36*
G01*
X145738001Y-91294000D02*
X144837999Y-91294000D01*
G75*
G02*
X144588000Y-91044001I0J249999D01*
G01*
X144588000Y-90343999D01*
G75*
G02*
X144837999Y-90094000I249999J0D01*
G01*
X145738001Y-90094000D01*
G75*
G02*
X145988000Y-90343999I0J-249999D01*
G01*
X145988000Y-91044001D01*
G75*
G02*
X145738001Y-91294000I-249999J0D01*
G01*
G37*
%TD.AperFunction*%
%TD*%
%TO.P,R12,1*%
%TO.N,Net-(C17-Pad2)*%
%TA.AperFunction,SMDPad,CuDef*%
G36*
G01*
X151054000Y-94430001D02*
X151054000Y-93529999D01*
G75*
G02*
X151303999Y-93280000I249999J0D01*
G01*
X152004001Y-93280000D01*
G75*
G02*
X152254000Y-93529999I0J-249999D01*
G01*
X152254000Y-94430001D01*
G75*
G02*
X152004001Y-94680000I-249999J0D01*
G01*
X151303999Y-94680000D01*
G75*
G02*
X151054000Y-94430001I0J249999D01*
G01*
G37*
%TD.AperFunction*%
%TO.P,R12,2*%
%TO.N,+6V*%
%TA.AperFunction,SMDPad,CuDef*%
G36*
G01*
X153054000Y-94430001D02*
X153054000Y-93529999D01*
G75*
G02*
X153303999Y-93280000I249999J0D01*
G01*
X154004001Y-93280000D01*
G75*
G02*
X154254000Y-93529999I0J-249999D01*
G01*
X154254000Y-94430001D01*
G75*
G02*
X154004001Y-94680000I-249999J0D01*
G01*
X153303999Y-94680000D01*
G75*
G02*
X153054000Y-94430001I0J249999D01*
G01*
G37*
%TD.AperFunction*%
%TD*%
%TO.P,R13,2*%
%TO.N,Net-(C18-Pad1)*%
%TA.AperFunction,SMDPad,CuDef*%
G36*
G01*
X150984000Y-100387999D02*
X150984000Y-101288001D01*
G75*
G02*
X150734001Y-101538000I-249999J0D01*
G01*
X150033999Y-101538000D01*
G75*
G02*
X149784000Y-101288001I0J249999D01*
G01*
X149784000Y-100387999D01*
G75*
G02*
X150033999Y-100138000I249999J0D01*
G01*
X150734001Y-100138000D01*
G75*
G02*
X150984000Y-100387999I0J-249999D01*
G01*
G37*
%TD.AperFunction*%
%TO.P,R13,1*%
%TO.N,Net-(C16-Pad2)*%
%TA.AperFunction,SMDPad,CuDef*%
G36*
G01*
X152984000Y-100387999D02*
X152984000Y-101288001D01*
G75*
G02*
X152734001Y-101538000I-249999J0D01*
G01*
X152033999Y-101538000D01*
G75*
G02*
X151784000Y-101288001I0J249999D01*
G01*
X151784000Y-100387999D01*
G75*
G02*
X152033999Y-100138000I249999J0D01*
G01*
X152734001Y-100138000D01*
G75*
G02*
X152984000Y-100387999I0J-249999D01*
G01*
G37*
%TD.AperFunction*%
%TD*%
%TO.P,R14,2*%
%TO.N,+6V*%
%TA.AperFunction,SMDPad,CuDef*%
G36*
G01*
X151784000Y-103320001D02*
X151784000Y-102419999D01*
G75*
G02*
X152033999Y-102170000I249999J0D01*
G01*
X152734001Y-102170000D01*
G75*
G02*
X152984000Y-102419999I0J-249999D01*
G01*
X152984000Y-103320001D01*
G75*
G02*
X152734001Y-103570000I-249999J0D01*
G01*
X152033999Y-103570000D01*
G75*
G02*
X151784000Y-103320001I0J249999D01*
G01*
G37*
%TD.AperFunction*%
%TO.P,R14,1*%
%TO.N,Net-(C18-Pad1)*%
%TA.AperFunction,SMDPad,CuDef*%
G36*
G01*
X149784000Y-103320001D02*
X149784000Y-102419999D01*
G75*
G02*
X150033999Y-102170000I249999J0D01*
G01*
X150734001Y-102170000D01*
G75*
G02*
X150984000Y-102419999I0J-249999D01*
G01*
X150984000Y-103320001D01*
G75*
G02*
X150734001Y-103570000I-249999J0D01*
G01*
X150033999Y-103570000D01*
G75*
G02*
X149784000Y-103320001I0J249999D01*
G01*
G37*
%TD.AperFunction*%
%TD*%
D16*
%TO.P,RV1,1*%
%TO.N,+6V*%
X149098000Y-85598000D03*
%TO.P,RV1,2*%
%TO.N,Net-(C4-Pad1)*%
X154178000Y-85598000D03*
%TO.P,RV1,3*%
%TO.N,GND*%
X159258000Y-85598000D03*
%TD*%
D17*
%TO.N,Net-(AE1-Pad1)*%
X128778000Y-84328000D02*
X128016000Y-83566000D01*
X128778000Y-86376000D02*
X128778000Y-84328000D01*
%TO.N,GND*%
X130897500Y-94295000D02*
X130810000Y-94382500D01*
X132620000Y-94295000D02*
X130897500Y-94295000D01*
X130810000Y-96266000D02*
X130810000Y-94382500D01*
X138668000Y-97012000D02*
X138684000Y-96996000D01*
X138668000Y-99060000D02*
X138668000Y-97012000D01*
X138759000Y-97071000D02*
X138684000Y-96996000D01*
X140716000Y-97071000D02*
X138759000Y-97071000D01*
X138922000Y-98806000D02*
X138668000Y-99060000D01*
X140505000Y-101092000D02*
X140505000Y-98849000D01*
X140505000Y-98849000D02*
X140462000Y-98806000D01*
X140462000Y-98806000D02*
X138922000Y-98806000D01*
X140991500Y-96795500D02*
X140716000Y-97071000D01*
X145288000Y-96795500D02*
X140991500Y-96795500D01*
X147082000Y-96740000D02*
X147132000Y-96790000D01*
X147082000Y-95184000D02*
X147082000Y-96740000D01*
X145293500Y-96790000D02*
X145288000Y-96795500D01*
X147132000Y-96790000D02*
X145293500Y-96790000D01*
D18*
X138684000Y-96996000D02*
X138652000Y-96996000D01*
X138652000Y-96996000D02*
X137668000Y-96012000D01*
X134337000Y-96012000D02*
X132620000Y-94295000D01*
X137668000Y-96012000D02*
X134337000Y-96012000D01*
D17*
X140716000Y-81258500D02*
X138684000Y-83290500D01*
X144526000Y-81258500D02*
X140716000Y-81258500D01*
X138684000Y-83290500D02*
X136525000Y-83290500D01*
X159258000Y-89662000D02*
X159258000Y-85598000D01*
X130810000Y-96266000D02*
X128016000Y-96266000D01*
X159258000Y-89662000D02*
X159258000Y-91948000D01*
X160274000Y-92964000D02*
X162560000Y-92964000D01*
X159258000Y-91948000D02*
X160274000Y-92964000D01*
X162560000Y-101400000D02*
X161972000Y-101988000D01*
X162560000Y-92964000D02*
X162560000Y-101400000D01*
X154707500Y-91948000D02*
X159258000Y-91948000D01*
X146828000Y-102296000D02*
X144946500Y-102296000D01*
X141542500Y-102129500D02*
X140505000Y-101092000D01*
X144780000Y-102129500D02*
X141542500Y-102129500D01*
X143510000Y-105918000D02*
X144526000Y-105918000D01*
X144780000Y-105664000D02*
X144780000Y-102129500D01*
X144526000Y-105918000D02*
X144780000Y-105664000D01*
X161972000Y-101988000D02*
X161972000Y-105236000D01*
X161972000Y-105236000D02*
X158496000Y-108712000D01*
X158496000Y-108712000D02*
X144780000Y-108712000D01*
X143510000Y-107442000D02*
X143510000Y-105918000D01*
X144780000Y-108712000D02*
X143510000Y-107442000D01*
X144526000Y-81258500D02*
X162284500Y-81258500D01*
X162284500Y-81258500D02*
X164338000Y-83312000D01*
X164338000Y-91186000D02*
X162560000Y-92964000D01*
X164338000Y-83312000D02*
X164338000Y-91186000D01*
%TO.N,+6V*%
X130842000Y-98373000D02*
X130810000Y-98341000D01*
X130842000Y-101092000D02*
X130842000Y-98373000D01*
X131107000Y-98044000D02*
X130810000Y-98341000D01*
X132604000Y-98044000D02*
X131107000Y-98044000D01*
X148828000Y-85328000D02*
X149098000Y-85598000D01*
X141732000Y-85328000D02*
X148828000Y-85328000D01*
X141694500Y-85365500D02*
X141732000Y-85328000D01*
X140716000Y-87265000D02*
X140716000Y-85598000D01*
X140716000Y-85598000D02*
X140483500Y-85365500D01*
X140483500Y-85365500D02*
X141694500Y-85365500D01*
X138684000Y-85365500D02*
X140483500Y-85365500D01*
X138684000Y-87265000D02*
X138684000Y-85365500D01*
X149098000Y-89424000D02*
X149098000Y-85598000D01*
X155895000Y-89424000D02*
X156133000Y-89662000D01*
X156133000Y-89662000D02*
X156133000Y-87961000D01*
X156133000Y-87961000D02*
X156718000Y-87376000D01*
X156718000Y-87376000D02*
X156718000Y-84074000D01*
X156718000Y-84074000D02*
X157988000Y-82804000D01*
X157988000Y-82804000D02*
X161798000Y-82804000D01*
X162560000Y-83566000D02*
X162560000Y-90424000D01*
X161798000Y-82804000D02*
X162560000Y-83566000D01*
D18*
X153686000Y-101568000D02*
X152384000Y-102870000D01*
X153686000Y-89424000D02*
X153686000Y-101568000D01*
D17*
X149098000Y-89424000D02*
X153686000Y-89424000D01*
X153686000Y-89424000D02*
X155895000Y-89424000D01*
D18*
X138684000Y-87265000D02*
X138668000Y-87265000D01*
X138668000Y-87265000D02*
X137668000Y-88265000D01*
X137668000Y-88265000D02*
X132715000Y-88265000D01*
X132715000Y-88265000D02*
X131826000Y-87376000D01*
X131826000Y-87376000D02*
X127635000Y-87376000D01*
X127635000Y-87376000D02*
X126111000Y-88900000D01*
X126111000Y-88900000D02*
X126111000Y-97663000D01*
X126789000Y-98341000D02*
X130810000Y-98341000D01*
X126111000Y-97663000D02*
X126789000Y-98341000D01*
D17*
%TO.N,Net-(C1-Pad1)*%
X129751000Y-91248500D02*
X130810000Y-92307500D01*
X129751000Y-90424000D02*
X129751000Y-91248500D01*
X129391500Y-93726000D02*
X130810000Y-92307500D01*
X128016000Y-93726000D02*
X129391500Y-93726000D01*
X129751000Y-89349000D02*
X128778000Y-88376000D01*
X129751000Y-90424000D02*
X129751000Y-89349000D01*
%TO.N,Net-(C2-Pad1)*%
X134240500Y-87227500D02*
X134112000Y-87099000D01*
X136525000Y-87227500D02*
X134240500Y-87227500D01*
X136525000Y-85365500D02*
X136525000Y-87227500D01*
X134112000Y-85344000D02*
X134112000Y-87099000D01*
X130810000Y-86392000D02*
X130810000Y-86360000D01*
X131826000Y-85344000D02*
X134112000Y-85344000D01*
X130810000Y-86360000D02*
X131826000Y-85344000D01*
%TO.N,Net-(C3-Pad1)*%
X132620000Y-91218000D02*
X131826000Y-90424000D01*
X132620000Y-92395000D02*
X132620000Y-91218000D01*
X131826000Y-89408000D02*
X130810000Y-88392000D01*
X131826000Y-90424000D02*
X131826000Y-89408000D01*
%TO.N,Net-(C4-Pad1)*%
X144520500Y-83328000D02*
X144526000Y-83333500D01*
X142682000Y-83328000D02*
X144520500Y-83328000D01*
X151913500Y-83333500D02*
X154178000Y-85598000D01*
X144526000Y-83333500D02*
X151913500Y-83333500D01*
%TO.N,Net-(C10-Pad1)*%
X136502000Y-97094000D02*
X136525000Y-97071000D01*
X134604000Y-97094000D02*
X136502000Y-97094000D01*
X136525000Y-98917000D02*
X136668000Y-99060000D01*
X136525000Y-97071000D02*
X136525000Y-98917000D01*
X138430000Y-101092000D02*
X136673500Y-101092000D01*
X136673500Y-99065500D02*
X136668000Y-99060000D01*
X136673500Y-101092000D02*
X136673500Y-99065500D01*
%TO.N,Net-(C6-Pad2)*%
X132842000Y-101092000D02*
X134598500Y-101092000D01*
X134604000Y-101086500D02*
X134598500Y-101092000D01*
X134604000Y-98994000D02*
X134604000Y-101086500D01*
X131635000Y-105918000D02*
X132588000Y-105918000D01*
X132842000Y-105664000D02*
X132842000Y-101092000D01*
X132588000Y-105918000D02*
X132842000Y-105664000D01*
%TO.N,Net-(C8-Pad2)*%
X134852500Y-93112500D02*
X134620000Y-93345000D01*
X136525000Y-93112500D02*
X134852500Y-93112500D01*
X134620000Y-90932000D02*
X134112000Y-90424000D01*
X134620000Y-93345000D02*
X134620000Y-90932000D01*
X135233500Y-89302500D02*
X134112000Y-90424000D01*
X136525000Y-89302500D02*
X135233500Y-89302500D01*
%TO.N,Net-(C9-Pad2)*%
X138612500Y-91037500D02*
X138700000Y-91125000D01*
X136525000Y-91037500D02*
X138612500Y-91037500D01*
X138700000Y-89281000D02*
X138684000Y-89265000D01*
X138700000Y-91125000D02*
X138700000Y-89281000D01*
%TO.N,Net-(C10-Pad2)*%
X136525000Y-94996000D02*
X138684000Y-94996000D01*
X138684000Y-93041000D02*
X138700000Y-93025000D01*
X138684000Y-94996000D02*
X138684000Y-93041000D01*
%TO.N,Net-(C12-Pad1)*%
X140948500Y-94996000D02*
X143002000Y-92942500D01*
X140716000Y-94996000D02*
X140948500Y-94996000D01*
X142748000Y-92688500D02*
X143002000Y-92942500D01*
X142748000Y-91170000D02*
X142748000Y-92688500D01*
%TO.N,Net-(C13-Pad1)*%
X144991000Y-95017500D02*
X145288000Y-94720500D01*
X143002000Y-95017500D02*
X144991000Y-95017500D01*
X145288000Y-94720500D02*
X145288000Y-92694000D01*
X146492000Y-92694000D02*
X147082000Y-93284000D01*
X145288000Y-92694000D02*
X146492000Y-92694000D01*
D18*
%TO.N,Net-(C16-Pad2)*%
X152384000Y-100838000D02*
X152384000Y-98568000D01*
X152632500Y-98319500D02*
X152384000Y-98568000D01*
X152632500Y-91948000D02*
X152632500Y-98319500D01*
X151130000Y-90424000D02*
X145558000Y-90424000D01*
X145558000Y-90424000D02*
X145288000Y-90694000D01*
X152632500Y-91926500D02*
X151130000Y-90424000D01*
X152632500Y-91948000D02*
X152632500Y-91926500D01*
D17*
%TO.N,Net-(C17-Pad2)*%
X148082000Y-98790000D02*
X150638000Y-98790000D01*
X151654000Y-97774000D02*
X151654000Y-93980000D01*
X150638000Y-98790000D02*
X151654000Y-97774000D01*
X148082000Y-99142000D02*
X146828000Y-100396000D01*
X148082000Y-98790000D02*
X148082000Y-99142000D01*
X145121500Y-100396000D02*
X144780000Y-100054500D01*
X146828000Y-100396000D02*
X145121500Y-100396000D01*
%TO.N,Net-(C18-Pad1)*%
X148828000Y-106448500D02*
X149313500Y-106934000D01*
X148828000Y-101346000D02*
X148844000Y-101346000D01*
X149352000Y-100838000D02*
X150384000Y-100838000D01*
X148844000Y-101346000D02*
X149352000Y-100838000D01*
X148844000Y-102870000D02*
X148828000Y-102854000D01*
X150384000Y-102870000D02*
X148844000Y-102870000D01*
X148828000Y-102854000D02*
X148828000Y-106448500D01*
X148828000Y-101346000D02*
X148828000Y-102854000D01*
%TO.N,Net-(C18-Pad2)*%
X156972000Y-106988000D02*
X156972000Y-104488000D01*
X156972000Y-104488000D02*
X156972000Y-98552000D01*
X156972000Y-98552000D02*
X156972000Y-99488000D01*
X156972000Y-99488000D02*
X156972000Y-96988000D01*
X152492500Y-106988000D02*
X152438500Y-106934000D01*
X156972000Y-106988000D02*
X152492500Y-106988000D01*
D18*
%TO.N,Net-(Q1-Pad2)*%
X139954000Y-84328000D02*
X135096000Y-84328000D01*
X135096000Y-84328000D02*
X134112000Y-83344000D01*
X140782000Y-83500000D02*
X139954000Y-84328000D01*
X140782000Y-83328000D02*
X140782000Y-83500000D01*
D17*
%TO.N,Net-(Q4-Pad3)*%
X140700000Y-89281000D02*
X140716000Y-89265000D01*
X140700000Y-92075000D02*
X140700000Y-89281000D01*
X140811000Y-89170000D02*
X140716000Y-89265000D01*
X142748000Y-89170000D02*
X140811000Y-89170000D01*
%TO.N,Net-(Q5-Pad3)*%
X149032000Y-94284000D02*
X149082000Y-94234000D01*
X149032000Y-96790000D02*
X149032000Y-94284000D01*
X149082000Y-91440000D02*
X149098000Y-91424000D01*
X149082000Y-94234000D02*
X149082000Y-91440000D01*
%TD*%
D19*
%TO.N,GND*%
X143162928Y-80671000D02*
X143166000Y-80972750D01*
X143324750Y-81131500D01*
X144399000Y-81131500D01*
X144399000Y-81111500D01*
X144653000Y-81111500D01*
X144653000Y-81131500D01*
X145727250Y-81131500D01*
X145886000Y-80972750D01*
X145889072Y-80671000D01*
X145888974Y-80670000D01*
X164440000Y-80670000D01*
X164440001Y-109195000D01*
X125755000Y-109195000D01*
X125755000Y-98381801D01*
X126225201Y-98852002D01*
X126248999Y-98881001D01*
X126364724Y-98975974D01*
X126496753Y-99046546D01*
X126640014Y-99090003D01*
X126751667Y-99101000D01*
X126751675Y-99101000D01*
X126789000Y-99104676D01*
X126826325Y-99101000D01*
X129558706Y-99101000D01*
X129596595Y-99171886D01*
X129707038Y-99306462D01*
X129841614Y-99416905D01*
X129957001Y-99478581D01*
X129957000Y-99937746D01*
X129864038Y-100014038D01*
X129753595Y-100148613D01*
X129671528Y-100302149D01*
X129620992Y-100468745D01*
X129603928Y-100641999D01*
X129603928Y-101542001D01*
X129620992Y-101715255D01*
X129671528Y-101881851D01*
X129753595Y-102035387D01*
X129864038Y-102169962D01*
X129998613Y-102280405D01*
X130152149Y-102362472D01*
X130318745Y-102413008D01*
X130491999Y-102430072D01*
X131192001Y-102430072D01*
X131365255Y-102413008D01*
X131531851Y-102362472D01*
X131685387Y-102280405D01*
X131819962Y-102169962D01*
X131842000Y-102143109D01*
X131864038Y-102169962D01*
X131957001Y-102246255D01*
X131957000Y-104279928D01*
X127697500Y-104279928D01*
X127573018Y-104292188D01*
X127453320Y-104328498D01*
X127343006Y-104387463D01*
X127246315Y-104466815D01*
X127166963Y-104563506D01*
X127107998Y-104673820D01*
X127071688Y-104793518D01*
X127059428Y-104918000D01*
X127059428Y-106918000D01*
X127071688Y-107042482D01*
X127107998Y-107162180D01*
X127166963Y-107272494D01*
X127246315Y-107369185D01*
X127343006Y-107448537D01*
X127453320Y-107507502D01*
X127573018Y-107543812D01*
X127697500Y-107556072D01*
X135572500Y-107556072D01*
X135696982Y-107543812D01*
X135816680Y-107507502D01*
X135926994Y-107448537D01*
X136023685Y-107369185D01*
X136103037Y-107272494D01*
X136162002Y-107162180D01*
X136198312Y-107042482D01*
X136210572Y-106918000D01*
X138934428Y-106918000D01*
X138946688Y-107042482D01*
X138982998Y-107162180D01*
X139041963Y-107272494D01*
X139121315Y-107369185D01*
X139218006Y-107448537D01*
X139328320Y-107507502D01*
X139448018Y-107543812D01*
X139572500Y-107556072D01*
X143224250Y-107553000D01*
X143383000Y-107394250D01*
X143383000Y-106045000D01*
X139096250Y-106045000D01*
X138937500Y-106203750D01*
X138934428Y-106918000D01*
X136210572Y-106918000D01*
X136210572Y-104918000D01*
X138934428Y-104918000D01*
X138937500Y-105632250D01*
X139096250Y-105791000D01*
X143383000Y-105791000D01*
X143383000Y-104441750D01*
X143224250Y-104283000D01*
X139572500Y-104279928D01*
X139448018Y-104292188D01*
X139328320Y-104328498D01*
X139218006Y-104387463D01*
X139121315Y-104466815D01*
X139041963Y-104563506D01*
X138982998Y-104673820D01*
X138946688Y-104793518D01*
X138934428Y-104918000D01*
X136210572Y-104918000D01*
X136198312Y-104793518D01*
X136162002Y-104673820D01*
X136103037Y-104563506D01*
X136023685Y-104466815D01*
X135926994Y-104387463D01*
X135816680Y-104328498D01*
X135696982Y-104292188D01*
X135572500Y-104279928D01*
X133727000Y-104279928D01*
X133727000Y-102717000D01*
X143416928Y-102717000D01*
X143429188Y-102841482D01*
X143465498Y-102961180D01*
X143524463Y-103071494D01*
X143603815Y-103168185D01*
X143700506Y-103247537D01*
X143810820Y-103306502D01*
X143930518Y-103342812D01*
X144055000Y-103355072D01*
X144494250Y-103352000D01*
X144653000Y-103193250D01*
X144653000Y-102256500D01*
X143578750Y-102256500D01*
X143420000Y-102415250D01*
X143416928Y-102717000D01*
X133727000Y-102717000D01*
X133727000Y-102272074D01*
X133767614Y-102305405D01*
X133921150Y-102387472D01*
X134087746Y-102438008D01*
X134261000Y-102455072D01*
X134936000Y-102455072D01*
X135109254Y-102438008D01*
X135275850Y-102387472D01*
X135429386Y-102305405D01*
X135563962Y-102194962D01*
X135636000Y-102107183D01*
X135708038Y-102194962D01*
X135842614Y-102305405D01*
X135996150Y-102387472D01*
X136162746Y-102438008D01*
X136336000Y-102455072D01*
X137011000Y-102455072D01*
X137184254Y-102438008D01*
X137350850Y-102387472D01*
X137504386Y-102305405D01*
X137551750Y-102266535D01*
X137599114Y-102305405D01*
X137752650Y-102387472D01*
X137919246Y-102438008D01*
X138092500Y-102455072D01*
X138767500Y-102455072D01*
X138940754Y-102438008D01*
X139107350Y-102387472D01*
X139260886Y-102305405D01*
X139395462Y-102194962D01*
X139400842Y-102188406D01*
X139466315Y-102268185D01*
X139563006Y-102347537D01*
X139673320Y-102406502D01*
X139793018Y-102442812D01*
X139917500Y-102455072D01*
X140219250Y-102452000D01*
X140378000Y-102293250D01*
X140378000Y-101219000D01*
X140632000Y-101219000D01*
X140632000Y-102293250D01*
X140790750Y-102452000D01*
X141092500Y-102455072D01*
X141216982Y-102442812D01*
X141336680Y-102406502D01*
X141446994Y-102347537D01*
X141543685Y-102268185D01*
X141623037Y-102171494D01*
X141682002Y-102061180D01*
X141718312Y-101941482D01*
X141730572Y-101817000D01*
X141727500Y-101377750D01*
X141568750Y-101219000D01*
X140632000Y-101219000D01*
X140378000Y-101219000D01*
X140358000Y-101219000D01*
X140358000Y-100965000D01*
X140378000Y-100965000D01*
X140378000Y-99890750D01*
X140632000Y-99890750D01*
X140632000Y-100965000D01*
X141568750Y-100965000D01*
X141727500Y-100806250D01*
X141730572Y-100367000D01*
X141718312Y-100242518D01*
X141682002Y-100122820D01*
X141623037Y-100012506D01*
X141543685Y-99915815D01*
X141446994Y-99836463D01*
X141336680Y-99777498D01*
X141216982Y-99741188D01*
X141092500Y-99728928D01*
X140790750Y-99732000D01*
X140632000Y-99890750D01*
X140378000Y-99890750D01*
X140219250Y-99732000D01*
X139917500Y-99728928D01*
X139905850Y-99730075D01*
X139903000Y-99345750D01*
X139744250Y-99187000D01*
X138795000Y-99187000D01*
X138795000Y-99207000D01*
X138541000Y-99207000D01*
X138541000Y-99187000D01*
X138521000Y-99187000D01*
X138521000Y-98933000D01*
X138541000Y-98933000D01*
X138541000Y-98088250D01*
X138557000Y-98072250D01*
X138557000Y-97883750D01*
X138795000Y-97883750D01*
X138795000Y-98933000D01*
X139744250Y-98933000D01*
X139903000Y-98774250D01*
X139906072Y-98360000D01*
X139898932Y-98287504D01*
X139991000Y-98296572D01*
X140430250Y-98293500D01*
X140589000Y-98134750D01*
X140589000Y-97198000D01*
X140843000Y-97198000D01*
X140843000Y-98134750D01*
X141001750Y-98293500D01*
X141441000Y-98296572D01*
X141565482Y-98284312D01*
X141685180Y-98248002D01*
X141795494Y-98189037D01*
X141892185Y-98109685D01*
X141971537Y-98012994D01*
X142030502Y-97902680D01*
X142066812Y-97782982D01*
X142079072Y-97658500D01*
X142076268Y-97383000D01*
X143924928Y-97383000D01*
X143937188Y-97507482D01*
X143973498Y-97627180D01*
X144032463Y-97737494D01*
X144111815Y-97834185D01*
X144208506Y-97913537D01*
X144318820Y-97972502D01*
X144438518Y-98008812D01*
X144563000Y-98021072D01*
X145002250Y-98018000D01*
X145161000Y-97859250D01*
X145161000Y-96922500D01*
X145415000Y-96922500D01*
X145415000Y-97859250D01*
X145573750Y-98018000D01*
X146013000Y-98021072D01*
X146137482Y-98008812D01*
X146257180Y-97972502D01*
X146367494Y-97913537D01*
X146464185Y-97834185D01*
X146474063Y-97822149D01*
X146487820Y-97829502D01*
X146607518Y-97865812D01*
X146732000Y-97878072D01*
X146846250Y-97875000D01*
X147005000Y-97716250D01*
X147005000Y-96917000D01*
X146255750Y-96917000D01*
X146250250Y-96922500D01*
X145415000Y-96922500D01*
X145161000Y-96922500D01*
X144086750Y-96922500D01*
X143928000Y-97081250D01*
X143924928Y-97383000D01*
X142076268Y-97383000D01*
X142076000Y-97356750D01*
X141917250Y-97198000D01*
X140843000Y-97198000D01*
X140589000Y-97198000D01*
X139935250Y-97198000D01*
X139860250Y-97123000D01*
X138811000Y-97123000D01*
X138811000Y-97867750D01*
X138795000Y-97883750D01*
X138557000Y-97883750D01*
X138557000Y-97123000D01*
X138537000Y-97123000D01*
X138537000Y-96869000D01*
X138557000Y-96869000D01*
X138557000Y-96849000D01*
X138811000Y-96849000D01*
X138811000Y-96869000D01*
X139439750Y-96869000D01*
X139514750Y-96944000D01*
X140589000Y-96944000D01*
X140589000Y-96924000D01*
X140843000Y-96924000D01*
X140843000Y-96944000D01*
X141917250Y-96944000D01*
X142076000Y-96785250D01*
X142079072Y-96483500D01*
X142066812Y-96359018D01*
X142030502Y-96239320D01*
X141971537Y-96129006D01*
X141892185Y-96032315D01*
X141812406Y-95966842D01*
X141818962Y-95961462D01*
X141850178Y-95923425D01*
X141899038Y-95982962D01*
X142033614Y-96093405D01*
X142187150Y-96175472D01*
X142353746Y-96226008D01*
X142527000Y-96243072D01*
X143477000Y-96243072D01*
X143650254Y-96226008D01*
X143816850Y-96175472D01*
X143934315Y-96112685D01*
X143924928Y-96208000D01*
X143928000Y-96509750D01*
X144086750Y-96668500D01*
X145161000Y-96668500D01*
X145161000Y-96648500D01*
X145415000Y-96648500D01*
X145415000Y-96668500D01*
X146489250Y-96668500D01*
X146494750Y-96663000D01*
X147005000Y-96663000D01*
X147005000Y-95863750D01*
X146955000Y-95813750D01*
X146955000Y-95311000D01*
X146935000Y-95311000D01*
X146935000Y-95057000D01*
X146955000Y-95057000D01*
X146955000Y-95037000D01*
X147209000Y-95037000D01*
X147209000Y-95057000D01*
X147229000Y-95057000D01*
X147229000Y-95311000D01*
X147209000Y-95311000D01*
X147209000Y-96060250D01*
X147259000Y-96110250D01*
X147259000Y-96663000D01*
X147279000Y-96663000D01*
X147279000Y-96917000D01*
X147259000Y-96917000D01*
X147259000Y-97716250D01*
X147343607Y-97800857D01*
X147327506Y-97809463D01*
X147230815Y-97888815D01*
X147151463Y-97985506D01*
X147092498Y-98095820D01*
X147056188Y-98215518D01*
X147043928Y-98340000D01*
X147043928Y-98928493D01*
X146614494Y-99357928D01*
X146378000Y-99357928D01*
X146253518Y-99370188D01*
X146133820Y-99406498D01*
X146091273Y-99429240D01*
X146075472Y-99377150D01*
X145993405Y-99223614D01*
X145882962Y-99089038D01*
X145748386Y-98978595D01*
X145594850Y-98896528D01*
X145428254Y-98845992D01*
X145255000Y-98828928D01*
X144305000Y-98828928D01*
X144131746Y-98845992D01*
X143965150Y-98896528D01*
X143811614Y-98978595D01*
X143677038Y-99089038D01*
X143566595Y-99223614D01*
X143484528Y-99377150D01*
X143433992Y-99543746D01*
X143416928Y-99717000D01*
X143416928Y-100392000D01*
X143433992Y-100565254D01*
X143484528Y-100731850D01*
X143566595Y-100885386D01*
X143677038Y-101019962D01*
X143683594Y-101025342D01*
X143603815Y-101090815D01*
X143524463Y-101187506D01*
X143465498Y-101297820D01*
X143429188Y-101417518D01*
X143416928Y-101542000D01*
X143420000Y-101843750D01*
X143578750Y-102002500D01*
X144653000Y-102002500D01*
X144653000Y-101982500D01*
X144907000Y-101982500D01*
X144907000Y-102002500D01*
X144927000Y-102002500D01*
X144927000Y-102256500D01*
X144907000Y-102256500D01*
X144907000Y-103193250D01*
X145065750Y-103352000D01*
X145505000Y-103355072D01*
X145629482Y-103342812D01*
X145749180Y-103306502D01*
X145859494Y-103247537D01*
X145954294Y-103169737D01*
X146023506Y-103226537D01*
X146133820Y-103285502D01*
X146253518Y-103321812D01*
X146378000Y-103334072D01*
X146542250Y-103331000D01*
X146701000Y-103172250D01*
X146701000Y-102423000D01*
X146955000Y-102423000D01*
X146955000Y-103172250D01*
X147113750Y-103331000D01*
X147278000Y-103334072D01*
X147402482Y-103321812D01*
X147522180Y-103285502D01*
X147632494Y-103226537D01*
X147729185Y-103147185D01*
X147808537Y-103050494D01*
X147867502Y-102940180D01*
X147903812Y-102820482D01*
X147916072Y-102696000D01*
X147913000Y-102581750D01*
X147754250Y-102423000D01*
X146955000Y-102423000D01*
X146701000Y-102423000D01*
X146681000Y-102423000D01*
X146681000Y-102169000D01*
X146701000Y-102169000D01*
X146701000Y-102149000D01*
X146955000Y-102149000D01*
X146955000Y-102169000D01*
X147754250Y-102169000D01*
X147838857Y-102084393D01*
X147847463Y-102100494D01*
X147926815Y-102197185D01*
X147943001Y-102210468D01*
X147943001Y-102810514D01*
X147943000Y-102810524D01*
X147943000Y-102810531D01*
X147938719Y-102854000D01*
X147943000Y-102897469D01*
X147943000Y-104520814D01*
X147898685Y-104466815D01*
X147801994Y-104387463D01*
X147691680Y-104328498D01*
X147571982Y-104292188D01*
X147447500Y-104279928D01*
X143795750Y-104283000D01*
X143637000Y-104441750D01*
X143637000Y-105791000D01*
X143657000Y-105791000D01*
X143657000Y-106045000D01*
X143637000Y-106045000D01*
X143637000Y-107394250D01*
X143795750Y-107553000D01*
X147447500Y-107556072D01*
X147571982Y-107543812D01*
X147691680Y-107507502D01*
X147801994Y-107448537D01*
X147898685Y-107369185D01*
X147978037Y-107272494D01*
X148012928Y-107207219D01*
X148012928Y-107584002D01*
X148029992Y-107757256D01*
X148080528Y-107923852D01*
X148162595Y-108077387D01*
X148273038Y-108211962D01*
X148407613Y-108322405D01*
X148561148Y-108404472D01*
X148727744Y-108455008D01*
X148900998Y-108472072D01*
X149726002Y-108472072D01*
X149899256Y-108455008D01*
X150065852Y-108404472D01*
X150219387Y-108322405D01*
X150353962Y-108211962D01*
X150464405Y-108077387D01*
X150546472Y-107923852D01*
X150597008Y-107757256D01*
X150614072Y-107584002D01*
X150614072Y-106283998D01*
X151137928Y-106283998D01*
X151137928Y-107584002D01*
X151154992Y-107757256D01*
X151205528Y-107923852D01*
X151287595Y-108077387D01*
X151398038Y-108211962D01*
X151532613Y-108322405D01*
X151686148Y-108404472D01*
X151852744Y-108455008D01*
X152025998Y-108472072D01*
X152851002Y-108472072D01*
X153024256Y-108455008D01*
X153190852Y-108404472D01*
X153344387Y-108322405D01*
X153478962Y-108211962D01*
X153589405Y-108077387D01*
X153671472Y-107923852D01*
X153686898Y-107873000D01*
X155476671Y-107873000D01*
X155624337Y-108093998D01*
X155866002Y-108335663D01*
X156150169Y-108525537D01*
X156465919Y-108656325D01*
X156801117Y-108723000D01*
X157142883Y-108723000D01*
X157478081Y-108656325D01*
X157793831Y-108525537D01*
X158077998Y-108335663D01*
X158319663Y-108093998D01*
X158509537Y-107809831D01*
X158640325Y-107494081D01*
X158707000Y-107158883D01*
X158707000Y-106817117D01*
X158640325Y-106481919D01*
X158509537Y-106166169D01*
X158319663Y-105882002D01*
X158175661Y-105738000D01*
X158319663Y-105593998D01*
X158509537Y-105309831D01*
X158640325Y-104994081D01*
X158707000Y-104658883D01*
X158707000Y-104317117D01*
X158640325Y-103981919D01*
X158509537Y-103666169D01*
X158319663Y-103382002D01*
X158132373Y-103194712D01*
X160944893Y-103194712D01*
X161052726Y-103469338D01*
X161359384Y-103620216D01*
X161689585Y-103708369D01*
X162030639Y-103730409D01*
X162369439Y-103685489D01*
X162692966Y-103575336D01*
X162891274Y-103469338D01*
X162999107Y-103194712D01*
X161972000Y-102167605D01*
X160944893Y-103194712D01*
X158132373Y-103194712D01*
X158077998Y-103140337D01*
X157857000Y-102992671D01*
X157857000Y-102046639D01*
X160229591Y-102046639D01*
X160274511Y-102385439D01*
X160384664Y-102708966D01*
X160490662Y-102907274D01*
X160765288Y-103015107D01*
X161792395Y-101988000D01*
X162151605Y-101988000D01*
X163178712Y-103015107D01*
X163453338Y-102907274D01*
X163604216Y-102600616D01*
X163692369Y-102270415D01*
X163714409Y-101929361D01*
X163669489Y-101590561D01*
X163559336Y-101267034D01*
X163453338Y-101068726D01*
X163178712Y-100960893D01*
X162151605Y-101988000D01*
X161792395Y-101988000D01*
X160765288Y-100960893D01*
X160490662Y-101068726D01*
X160339784Y-101375384D01*
X160251631Y-101705585D01*
X160229591Y-102046639D01*
X157857000Y-102046639D01*
X157857000Y-100983329D01*
X158077998Y-100835663D01*
X158132373Y-100781288D01*
X160944893Y-100781288D01*
X161972000Y-101808395D01*
X162999107Y-100781288D01*
X162891274Y-100506662D01*
X162584616Y-100355784D01*
X162254415Y-100267631D01*
X161913361Y-100245591D01*
X161574561Y-100290511D01*
X161251034Y-100400664D01*
X161052726Y-100506662D01*
X160944893Y-100781288D01*
X158132373Y-100781288D01*
X158319663Y-100593998D01*
X158509537Y-100309831D01*
X158640325Y-99994081D01*
X158707000Y-99658883D01*
X158707000Y-99317117D01*
X158640325Y-98981919D01*
X158509537Y-98666169D01*
X158319663Y-98382002D01*
X158175661Y-98238000D01*
X158319663Y-98093998D01*
X158509537Y-97809831D01*
X158640325Y-97494081D01*
X158707000Y-97158883D01*
X158707000Y-96817117D01*
X158640325Y-96481919D01*
X158509537Y-96166169D01*
X158319663Y-95882002D01*
X158077998Y-95640337D01*
X157793831Y-95450463D01*
X157478081Y-95319675D01*
X157142883Y-95253000D01*
X156801117Y-95253000D01*
X156465919Y-95319675D01*
X156150169Y-95450463D01*
X155866002Y-95640337D01*
X155624337Y-95882002D01*
X155434463Y-96166169D01*
X155303675Y-96481919D01*
X155237000Y-96817117D01*
X155237000Y-97158883D01*
X155303675Y-97494081D01*
X155434463Y-97809831D01*
X155624337Y-98093998D01*
X155768339Y-98238000D01*
X155624337Y-98382002D01*
X155434463Y-98666169D01*
X155303675Y-98981919D01*
X155237000Y-99317117D01*
X155237000Y-99658883D01*
X155303675Y-99994081D01*
X155434463Y-100309831D01*
X155624337Y-100593998D01*
X155866002Y-100835663D01*
X156087001Y-100983329D01*
X156087000Y-102992671D01*
X155866002Y-103140337D01*
X155624337Y-103382002D01*
X155434463Y-103666169D01*
X155303675Y-103981919D01*
X155237000Y-104317117D01*
X155237000Y-104658883D01*
X155303675Y-104994081D01*
X155434463Y-105309831D01*
X155624337Y-105593998D01*
X155768339Y-105738000D01*
X155624337Y-105882002D01*
X155476671Y-106103000D01*
X153719659Y-106103000D01*
X153671472Y-105944148D01*
X153589405Y-105790613D01*
X153478962Y-105656038D01*
X153344387Y-105545595D01*
X153190852Y-105463528D01*
X153024256Y-105412992D01*
X152851002Y-105395928D01*
X152025998Y-105395928D01*
X151852744Y-105412992D01*
X151686148Y-105463528D01*
X151532613Y-105545595D01*
X151398038Y-105656038D01*
X151287595Y-105790613D01*
X151205528Y-105944148D01*
X151154992Y-106110744D01*
X151137928Y-106283998D01*
X150614072Y-106283998D01*
X150597008Y-106110744D01*
X150546472Y-105944148D01*
X150464405Y-105790613D01*
X150353962Y-105656038D01*
X150219387Y-105545595D01*
X150065852Y-105463528D01*
X149899256Y-105412992D01*
X149726002Y-105395928D01*
X149713000Y-105395928D01*
X149713000Y-104146190D01*
X149860745Y-104191008D01*
X150033999Y-104208072D01*
X150734001Y-104208072D01*
X150907255Y-104191008D01*
X151073851Y-104140472D01*
X151227387Y-104058405D01*
X151361962Y-103947962D01*
X151384000Y-103921109D01*
X151406038Y-103947962D01*
X151540613Y-104058405D01*
X151694149Y-104140472D01*
X151860745Y-104191008D01*
X152033999Y-104208072D01*
X152734001Y-104208072D01*
X152907255Y-104191008D01*
X153073851Y-104140472D01*
X153227387Y-104058405D01*
X153361962Y-103947962D01*
X153472405Y-103813387D01*
X153554472Y-103659851D01*
X153605008Y-103493255D01*
X153622072Y-103320001D01*
X153622072Y-102706730D01*
X154197003Y-102131799D01*
X154226001Y-102108001D01*
X154274905Y-102048411D01*
X154320974Y-101992277D01*
X154391546Y-101860247D01*
X154400293Y-101831410D01*
X154435003Y-101716986D01*
X154446000Y-101605333D01*
X154446000Y-101605324D01*
X154449676Y-101568001D01*
X154446000Y-101530678D01*
X154446000Y-95195872D01*
X154497387Y-95168405D01*
X154631962Y-95057962D01*
X154742405Y-94923387D01*
X154824472Y-94769851D01*
X154875008Y-94603255D01*
X154892072Y-94430001D01*
X154892072Y-93529999D01*
X154875008Y-93356745D01*
X154864132Y-93320890D01*
X161118524Y-93320890D01*
X161163175Y-93468099D01*
X161288359Y-93730920D01*
X161462412Y-93964269D01*
X161678645Y-94159178D01*
X161928748Y-94308157D01*
X162203109Y-94405481D01*
X162433000Y-94284814D01*
X162433000Y-93091000D01*
X162687000Y-93091000D01*
X162687000Y-94284814D01*
X162916891Y-94405481D01*
X163191252Y-94308157D01*
X163441355Y-94159178D01*
X163657588Y-93964269D01*
X163831641Y-93730920D01*
X163956825Y-93468099D01*
X164001476Y-93320890D01*
X163880155Y-93091000D01*
X162687000Y-93091000D01*
X162433000Y-93091000D01*
X161239845Y-93091000D01*
X161118524Y-93320890D01*
X154864132Y-93320890D01*
X154834502Y-93223214D01*
X154834502Y-93149252D01*
X154993250Y-93308000D01*
X155295000Y-93311072D01*
X155419482Y-93298812D01*
X155539180Y-93262502D01*
X155649494Y-93203537D01*
X155746185Y-93124185D01*
X155825537Y-93027494D01*
X155884502Y-92917180D01*
X155920812Y-92797482D01*
X155933072Y-92673000D01*
X155930000Y-92233750D01*
X155771250Y-92075000D01*
X154834500Y-92075000D01*
X154834500Y-92095000D01*
X154580500Y-92095000D01*
X154580500Y-92075000D01*
X154560500Y-92075000D01*
X154560500Y-91821000D01*
X154580500Y-91821000D01*
X154580500Y-90746750D01*
X154446000Y-90612250D01*
X154446000Y-90309000D01*
X154832428Y-90309000D01*
X154832428Y-90312002D01*
X154849492Y-90485256D01*
X154900028Y-90651852D01*
X154910258Y-90670992D01*
X154834500Y-90746750D01*
X154834500Y-91821000D01*
X155771250Y-91821000D01*
X155930000Y-91662250D01*
X155933072Y-91223000D01*
X155930814Y-91200072D01*
X156545502Y-91200072D01*
X156718756Y-91183008D01*
X156885352Y-91132472D01*
X157038887Y-91050405D01*
X157173462Y-90939962D01*
X157283905Y-90805387D01*
X157365972Y-90651852D01*
X157393228Y-90562000D01*
X157957428Y-90562000D01*
X157969688Y-90686482D01*
X158005998Y-90806180D01*
X158064963Y-90916494D01*
X158144315Y-91013185D01*
X158241006Y-91092537D01*
X158351320Y-91151502D01*
X158471018Y-91187812D01*
X158595500Y-91200072D01*
X158972250Y-91197000D01*
X159131000Y-91038250D01*
X159131000Y-89789000D01*
X159385000Y-89789000D01*
X159385000Y-91038250D01*
X159543750Y-91197000D01*
X159920500Y-91200072D01*
X160044982Y-91187812D01*
X160164680Y-91151502D01*
X160274994Y-91092537D01*
X160371685Y-91013185D01*
X160451037Y-90916494D01*
X160510002Y-90806180D01*
X160546312Y-90686482D01*
X160558572Y-90562000D01*
X160555500Y-89947750D01*
X160396750Y-89789000D01*
X159385000Y-89789000D01*
X159131000Y-89789000D01*
X158119250Y-89789000D01*
X157960500Y-89947750D01*
X157957428Y-90562000D01*
X157393228Y-90562000D01*
X157416508Y-90485256D01*
X157433572Y-90312002D01*
X157433572Y-89011998D01*
X157416508Y-88838744D01*
X157393229Y-88762000D01*
X157957428Y-88762000D01*
X157960500Y-89376250D01*
X158119250Y-89535000D01*
X159131000Y-89535000D01*
X159131000Y-88285750D01*
X159385000Y-88285750D01*
X159385000Y-89535000D01*
X160396750Y-89535000D01*
X160555500Y-89376250D01*
X160558572Y-88762000D01*
X160546312Y-88637518D01*
X160510002Y-88517820D01*
X160451037Y-88407506D01*
X160371685Y-88310815D01*
X160274994Y-88231463D01*
X160164680Y-88172498D01*
X160044982Y-88136188D01*
X159920500Y-88123928D01*
X159543750Y-88127000D01*
X159385000Y-88285750D01*
X159131000Y-88285750D01*
X158972250Y-88127000D01*
X158595500Y-88123928D01*
X158471018Y-88136188D01*
X158351320Y-88172498D01*
X158241006Y-88231463D01*
X158144315Y-88310815D01*
X158064963Y-88407506D01*
X158005998Y-88517820D01*
X157969688Y-88637518D01*
X157957428Y-88762000D01*
X157393229Y-88762000D01*
X157365972Y-88672148D01*
X157283905Y-88518613D01*
X157173462Y-88384038D01*
X157057065Y-88288513D01*
X157313045Y-88032533D01*
X157346817Y-88004817D01*
X157457411Y-87870059D01*
X157539589Y-87716313D01*
X157586257Y-87562472D01*
X157590195Y-87549491D01*
X157592608Y-87524986D01*
X157603000Y-87419477D01*
X157603000Y-87419469D01*
X157607281Y-87376000D01*
X157603000Y-87332531D01*
X157603000Y-87331350D01*
X157653629Y-87381979D01*
X157767998Y-87267610D01*
X157954073Y-87608766D01*
X158371409Y-87824513D01*
X158822815Y-87954696D01*
X159290946Y-87994313D01*
X159757811Y-87941842D01*
X160205468Y-87799297D01*
X160561927Y-87608766D01*
X160748003Y-87267609D01*
X159258000Y-85777605D01*
X159243858Y-85791748D01*
X159064252Y-85612142D01*
X159078395Y-85598000D01*
X159437605Y-85598000D01*
X160927609Y-87088003D01*
X161268766Y-86901927D01*
X161484513Y-86484591D01*
X161614696Y-86033185D01*
X161654313Y-85565054D01*
X161601842Y-85098189D01*
X161459297Y-84650532D01*
X161268766Y-84294073D01*
X160927609Y-84107997D01*
X159437605Y-85598000D01*
X159078395Y-85598000D01*
X159064252Y-85583858D01*
X159243858Y-85404252D01*
X159258000Y-85418395D01*
X160748003Y-83928391D01*
X160617433Y-83689000D01*
X161431422Y-83689000D01*
X161675000Y-83932579D01*
X161675001Y-88939375D01*
X161585518Y-88948188D01*
X161465820Y-88984498D01*
X161355506Y-89043463D01*
X161258815Y-89122815D01*
X161179463Y-89219506D01*
X161120498Y-89329820D01*
X161084188Y-89449518D01*
X161071928Y-89574000D01*
X161071928Y-91274000D01*
X161084188Y-91398482D01*
X161120498Y-91518180D01*
X161179463Y-91628494D01*
X161258815Y-91725185D01*
X161355506Y-91804537D01*
X161465820Y-91863502D01*
X161546466Y-91887966D01*
X161462412Y-91963731D01*
X161288359Y-92197080D01*
X161163175Y-92459901D01*
X161118524Y-92607110D01*
X161239845Y-92837000D01*
X162433000Y-92837000D01*
X162433000Y-92817000D01*
X162687000Y-92817000D01*
X162687000Y-92837000D01*
X163880155Y-92837000D01*
X164001476Y-92607110D01*
X163956825Y-92459901D01*
X163831641Y-92197080D01*
X163657588Y-91963731D01*
X163573534Y-91887966D01*
X163654180Y-91863502D01*
X163764494Y-91804537D01*
X163861185Y-91725185D01*
X163940537Y-91628494D01*
X163999502Y-91518180D01*
X164035812Y-91398482D01*
X164048072Y-91274000D01*
X164048072Y-89574000D01*
X164035812Y-89449518D01*
X163999502Y-89329820D01*
X163940537Y-89219506D01*
X163861185Y-89122815D01*
X163764494Y-89043463D01*
X163654180Y-88984498D01*
X163534482Y-88948188D01*
X163445000Y-88939375D01*
X163445000Y-83609469D01*
X163449281Y-83566000D01*
X163445000Y-83522531D01*
X163445000Y-83522523D01*
X163432195Y-83392510D01*
X163381589Y-83225687D01*
X163299411Y-83071941D01*
X163269712Y-83035753D01*
X163216532Y-82970953D01*
X163216530Y-82970951D01*
X163188817Y-82937183D01*
X163155050Y-82909471D01*
X162454534Y-82208956D01*
X162426817Y-82175183D01*
X162292059Y-82064589D01*
X162138313Y-81982411D01*
X161971490Y-81931805D01*
X161841477Y-81919000D01*
X161841469Y-81919000D01*
X161798000Y-81914719D01*
X161754531Y-81919000D01*
X158031465Y-81919000D01*
X157987999Y-81914719D01*
X157944533Y-81919000D01*
X157944523Y-81919000D01*
X157814510Y-81931805D01*
X157647687Y-81982411D01*
X157493941Y-82064589D01*
X157493939Y-82064590D01*
X157493940Y-82064590D01*
X157392953Y-82147468D01*
X157392951Y-82147470D01*
X157359183Y-82175183D01*
X157331470Y-82208951D01*
X156122951Y-83417471D01*
X156089184Y-83445183D01*
X156061471Y-83478951D01*
X156061468Y-83478954D01*
X155978590Y-83579941D01*
X155896412Y-83733687D01*
X155847575Y-83894676D01*
X155698349Y-83745450D01*
X155307721Y-83484440D01*
X154873679Y-83304654D01*
X154412902Y-83213000D01*
X153943098Y-83213000D01*
X153482321Y-83304654D01*
X153237599Y-83406021D01*
X152570032Y-82738454D01*
X152542317Y-82704683D01*
X152407559Y-82594089D01*
X152253813Y-82511911D01*
X152086990Y-82461305D01*
X151956977Y-82448500D01*
X151956969Y-82448500D01*
X151913500Y-82444219D01*
X151870031Y-82448500D01*
X145694995Y-82448500D01*
X145628962Y-82368038D01*
X145622406Y-82362658D01*
X145702185Y-82297185D01*
X145781537Y-82200494D01*
X145840502Y-82090180D01*
X145876812Y-81970482D01*
X145889072Y-81846000D01*
X145886000Y-81544250D01*
X145727250Y-81385500D01*
X144653000Y-81385500D01*
X144653000Y-81405500D01*
X144399000Y-81405500D01*
X144399000Y-81385500D01*
X143324750Y-81385500D01*
X143166000Y-81544250D01*
X143162928Y-81846000D01*
X143175188Y-81970482D01*
X143211498Y-82090180D01*
X143270463Y-82200494D01*
X143349815Y-82297185D01*
X143363606Y-82308503D01*
X143326180Y-82288498D01*
X143206482Y-82252188D01*
X143082000Y-82239928D01*
X142282000Y-82239928D01*
X142157518Y-82252188D01*
X142037820Y-82288498D01*
X141927506Y-82347463D01*
X141830815Y-82426815D01*
X141751463Y-82523506D01*
X141732000Y-82559918D01*
X141712537Y-82523506D01*
X141633185Y-82426815D01*
X141536494Y-82347463D01*
X141426180Y-82288498D01*
X141306482Y-82252188D01*
X141182000Y-82239928D01*
X140382000Y-82239928D01*
X140257518Y-82252188D01*
X140137820Y-82288498D01*
X140027506Y-82347463D01*
X139965972Y-82397962D01*
X139939537Y-82348506D01*
X139860185Y-82251815D01*
X139763494Y-82172463D01*
X139653180Y-82113498D01*
X139533482Y-82077188D01*
X139409000Y-82064928D01*
X138969750Y-82068000D01*
X138811000Y-82226750D01*
X138811000Y-83163500D01*
X138831000Y-83163500D01*
X138831000Y-83417500D01*
X138811000Y-83417500D01*
X138811000Y-83437500D01*
X138557000Y-83437500D01*
X138557000Y-83417500D01*
X136652000Y-83417500D01*
X136652000Y-83437500D01*
X136398000Y-83437500D01*
X136398000Y-83417500D01*
X136378000Y-83417500D01*
X136378000Y-83163500D01*
X136398000Y-83163500D01*
X136398000Y-82226750D01*
X136652000Y-82226750D01*
X136652000Y-83163500D01*
X138557000Y-83163500D01*
X138557000Y-82226750D01*
X138398250Y-82068000D01*
X137959000Y-82064928D01*
X137834518Y-82077188D01*
X137714820Y-82113498D01*
X137604506Y-82172463D01*
X137604500Y-82172468D01*
X137604494Y-82172463D01*
X137494180Y-82113498D01*
X137374482Y-82077188D01*
X137250000Y-82064928D01*
X136810750Y-82068000D01*
X136652000Y-82226750D01*
X136398000Y-82226750D01*
X136239250Y-82068000D01*
X135800000Y-82064928D01*
X135675518Y-82077188D01*
X135555820Y-82113498D01*
X135445506Y-82172463D01*
X135348815Y-82251815D01*
X135269463Y-82348506D01*
X135232431Y-82417787D01*
X135189962Y-82366038D01*
X135055387Y-82255595D01*
X134901851Y-82173528D01*
X134735255Y-82122992D01*
X134562001Y-82105928D01*
X133661999Y-82105928D01*
X133488745Y-82122992D01*
X133322149Y-82173528D01*
X133168613Y-82255595D01*
X133034038Y-82366038D01*
X132923595Y-82500613D01*
X132841528Y-82654149D01*
X132790992Y-82820745D01*
X132773928Y-82993999D01*
X132773928Y-83694001D01*
X132790992Y-83867255D01*
X132841528Y-84033851D01*
X132923595Y-84187387D01*
X133034038Y-84321962D01*
X133060891Y-84344000D01*
X133034038Y-84366038D01*
X132957746Y-84459000D01*
X131869469Y-84459000D01*
X131826000Y-84454719D01*
X131782531Y-84459000D01*
X131782523Y-84459000D01*
X131667306Y-84470348D01*
X131652509Y-84471805D01*
X131601903Y-84487157D01*
X131485687Y-84522411D01*
X131331941Y-84604589D01*
X131331939Y-84604590D01*
X131331940Y-84604590D01*
X131230953Y-84687468D01*
X131230951Y-84687470D01*
X131197183Y-84715183D01*
X131169470Y-84748951D01*
X130764493Y-85153928D01*
X130359999Y-85153928D01*
X130186745Y-85170992D01*
X130020149Y-85221528D01*
X129866613Y-85303595D01*
X129803748Y-85355187D01*
X129721387Y-85287595D01*
X129663000Y-85256386D01*
X129663000Y-84371469D01*
X129667281Y-84328000D01*
X129663000Y-84284531D01*
X129663000Y-84284523D01*
X129650195Y-84154510D01*
X129599589Y-83987687D01*
X129517411Y-83833941D01*
X129504072Y-83817688D01*
X129504072Y-82716000D01*
X129491812Y-82591518D01*
X129455502Y-82471820D01*
X129396537Y-82361506D01*
X129317185Y-82264815D01*
X129220494Y-82185463D01*
X129110180Y-82126498D01*
X128990482Y-82090188D01*
X128866000Y-82077928D01*
X127166000Y-82077928D01*
X127041518Y-82090188D01*
X126921820Y-82126498D01*
X126811506Y-82185463D01*
X126714815Y-82264815D01*
X126635463Y-82361506D01*
X126576498Y-82471820D01*
X126540188Y-82591518D01*
X126527928Y-82716000D01*
X126527928Y-84416000D01*
X126540188Y-84540482D01*
X126576498Y-84660180D01*
X126635463Y-84770494D01*
X126714815Y-84867185D01*
X126811506Y-84946537D01*
X126921820Y-85005502D01*
X127041518Y-85041812D01*
X127166000Y-85054072D01*
X127893001Y-85054072D01*
X127893001Y-85256386D01*
X127834613Y-85287595D01*
X127700038Y-85398038D01*
X127589595Y-85532613D01*
X127507528Y-85686149D01*
X127456992Y-85852745D01*
X127439928Y-86025999D01*
X127439928Y-86640977D01*
X127342753Y-86670454D01*
X127210724Y-86741026D01*
X127210722Y-86741027D01*
X127210723Y-86741027D01*
X127123996Y-86812201D01*
X127123992Y-86812205D01*
X127094999Y-86835999D01*
X127071205Y-86864992D01*
X125755000Y-88181199D01*
X125755000Y-80670000D01*
X143163026Y-80670000D01*
X143162928Y-80671000D01*
%TA.AperFunction,Conductor*%
D20*
G36*
X143162928Y-80671000D02*
G01*
X143166000Y-80972750D01*
X143324750Y-81131500D01*
X144399000Y-81131500D01*
X144399000Y-81111500D01*
X144653000Y-81111500D01*
X144653000Y-81131500D01*
X145727250Y-81131500D01*
X145886000Y-80972750D01*
X145889072Y-80671000D01*
X145888974Y-80670000D01*
X164440000Y-80670000D01*
X164440001Y-109195000D01*
X125755000Y-109195000D01*
X125755000Y-98381801D01*
X126225201Y-98852002D01*
X126248999Y-98881001D01*
X126364724Y-98975974D01*
X126496753Y-99046546D01*
X126640014Y-99090003D01*
X126751667Y-99101000D01*
X126751675Y-99101000D01*
X126789000Y-99104676D01*
X126826325Y-99101000D01*
X129558706Y-99101000D01*
X129596595Y-99171886D01*
X129707038Y-99306462D01*
X129841614Y-99416905D01*
X129957001Y-99478581D01*
X129957000Y-99937746D01*
X129864038Y-100014038D01*
X129753595Y-100148613D01*
X129671528Y-100302149D01*
X129620992Y-100468745D01*
X129603928Y-100641999D01*
X129603928Y-101542001D01*
X129620992Y-101715255D01*
X129671528Y-101881851D01*
X129753595Y-102035387D01*
X129864038Y-102169962D01*
X129998613Y-102280405D01*
X130152149Y-102362472D01*
X130318745Y-102413008D01*
X130491999Y-102430072D01*
X131192001Y-102430072D01*
X131365255Y-102413008D01*
X131531851Y-102362472D01*
X131685387Y-102280405D01*
X131819962Y-102169962D01*
X131842000Y-102143109D01*
X131864038Y-102169962D01*
X131957001Y-102246255D01*
X131957000Y-104279928D01*
X127697500Y-104279928D01*
X127573018Y-104292188D01*
X127453320Y-104328498D01*
X127343006Y-104387463D01*
X127246315Y-104466815D01*
X127166963Y-104563506D01*
X127107998Y-104673820D01*
X127071688Y-104793518D01*
X127059428Y-104918000D01*
X127059428Y-106918000D01*
X127071688Y-107042482D01*
X127107998Y-107162180D01*
X127166963Y-107272494D01*
X127246315Y-107369185D01*
X127343006Y-107448537D01*
X127453320Y-107507502D01*
X127573018Y-107543812D01*
X127697500Y-107556072D01*
X135572500Y-107556072D01*
X135696982Y-107543812D01*
X135816680Y-107507502D01*
X135926994Y-107448537D01*
X136023685Y-107369185D01*
X136103037Y-107272494D01*
X136162002Y-107162180D01*
X136198312Y-107042482D01*
X136210572Y-106918000D01*
X138934428Y-106918000D01*
X138946688Y-107042482D01*
X138982998Y-107162180D01*
X139041963Y-107272494D01*
X139121315Y-107369185D01*
X139218006Y-107448537D01*
X139328320Y-107507502D01*
X139448018Y-107543812D01*
X139572500Y-107556072D01*
X143224250Y-107553000D01*
X143383000Y-107394250D01*
X143383000Y-106045000D01*
X139096250Y-106045000D01*
X138937500Y-106203750D01*
X138934428Y-106918000D01*
X136210572Y-106918000D01*
X136210572Y-104918000D01*
X138934428Y-104918000D01*
X138937500Y-105632250D01*
X139096250Y-105791000D01*
X143383000Y-105791000D01*
X143383000Y-104441750D01*
X143224250Y-104283000D01*
X139572500Y-104279928D01*
X139448018Y-104292188D01*
X139328320Y-104328498D01*
X139218006Y-104387463D01*
X139121315Y-104466815D01*
X139041963Y-104563506D01*
X138982998Y-104673820D01*
X138946688Y-104793518D01*
X138934428Y-104918000D01*
X136210572Y-104918000D01*
X136198312Y-104793518D01*
X136162002Y-104673820D01*
X136103037Y-104563506D01*
X136023685Y-104466815D01*
X135926994Y-104387463D01*
X135816680Y-104328498D01*
X135696982Y-104292188D01*
X135572500Y-104279928D01*
X133727000Y-104279928D01*
X133727000Y-102717000D01*
X143416928Y-102717000D01*
X143429188Y-102841482D01*
X143465498Y-102961180D01*
X143524463Y-103071494D01*
X143603815Y-103168185D01*
X143700506Y-103247537D01*
X143810820Y-103306502D01*
X143930518Y-103342812D01*
X144055000Y-103355072D01*
X144494250Y-103352000D01*
X144653000Y-103193250D01*
X144653000Y-102256500D01*
X143578750Y-102256500D01*
X143420000Y-102415250D01*
X143416928Y-102717000D01*
X133727000Y-102717000D01*
X133727000Y-102272074D01*
X133767614Y-102305405D01*
X133921150Y-102387472D01*
X134087746Y-102438008D01*
X134261000Y-102455072D01*
X134936000Y-102455072D01*
X135109254Y-102438008D01*
X135275850Y-102387472D01*
X135429386Y-102305405D01*
X135563962Y-102194962D01*
X135636000Y-102107183D01*
X135708038Y-102194962D01*
X135842614Y-102305405D01*
X135996150Y-102387472D01*
X136162746Y-102438008D01*
X136336000Y-102455072D01*
X137011000Y-102455072D01*
X137184254Y-102438008D01*
X137350850Y-102387472D01*
X137504386Y-102305405D01*
X137551750Y-102266535D01*
X137599114Y-102305405D01*
X137752650Y-102387472D01*
X137919246Y-102438008D01*
X138092500Y-102455072D01*
X138767500Y-102455072D01*
X138940754Y-102438008D01*
X139107350Y-102387472D01*
X139260886Y-102305405D01*
X139395462Y-102194962D01*
X139400842Y-102188406D01*
X139466315Y-102268185D01*
X139563006Y-102347537D01*
X139673320Y-102406502D01*
X139793018Y-102442812D01*
X139917500Y-102455072D01*
X140219250Y-102452000D01*
X140378000Y-102293250D01*
X140378000Y-101219000D01*
X140632000Y-101219000D01*
X140632000Y-102293250D01*
X140790750Y-102452000D01*
X141092500Y-102455072D01*
X141216982Y-102442812D01*
X141336680Y-102406502D01*
X141446994Y-102347537D01*
X141543685Y-102268185D01*
X141623037Y-102171494D01*
X141682002Y-102061180D01*
X141718312Y-101941482D01*
X141730572Y-101817000D01*
X141727500Y-101377750D01*
X141568750Y-101219000D01*
X140632000Y-101219000D01*
X140378000Y-101219000D01*
X140358000Y-101219000D01*
X140358000Y-100965000D01*
X140378000Y-100965000D01*
X140378000Y-99890750D01*
X140632000Y-99890750D01*
X140632000Y-100965000D01*
X141568750Y-100965000D01*
X141727500Y-100806250D01*
X141730572Y-100367000D01*
X141718312Y-100242518D01*
X141682002Y-100122820D01*
X141623037Y-100012506D01*
X141543685Y-99915815D01*
X141446994Y-99836463D01*
X141336680Y-99777498D01*
X141216982Y-99741188D01*
X141092500Y-99728928D01*
X140790750Y-99732000D01*
X140632000Y-99890750D01*
X140378000Y-99890750D01*
X140219250Y-99732000D01*
X139917500Y-99728928D01*
X139905850Y-99730075D01*
X139903000Y-99345750D01*
X139744250Y-99187000D01*
X138795000Y-99187000D01*
X138795000Y-99207000D01*
X138541000Y-99207000D01*
X138541000Y-99187000D01*
X138521000Y-99187000D01*
X138521000Y-98933000D01*
X138541000Y-98933000D01*
X138541000Y-98088250D01*
X138557000Y-98072250D01*
X138557000Y-97883750D01*
X138795000Y-97883750D01*
X138795000Y-98933000D01*
X139744250Y-98933000D01*
X139903000Y-98774250D01*
X139906072Y-98360000D01*
X139898932Y-98287504D01*
X139991000Y-98296572D01*
X140430250Y-98293500D01*
X140589000Y-98134750D01*
X140589000Y-97198000D01*
X140843000Y-97198000D01*
X140843000Y-98134750D01*
X141001750Y-98293500D01*
X141441000Y-98296572D01*
X141565482Y-98284312D01*
X141685180Y-98248002D01*
X141795494Y-98189037D01*
X141892185Y-98109685D01*
X141971537Y-98012994D01*
X142030502Y-97902680D01*
X142066812Y-97782982D01*
X142079072Y-97658500D01*
X142076268Y-97383000D01*
X143924928Y-97383000D01*
X143937188Y-97507482D01*
X143973498Y-97627180D01*
X144032463Y-97737494D01*
X144111815Y-97834185D01*
X144208506Y-97913537D01*
X144318820Y-97972502D01*
X144438518Y-98008812D01*
X144563000Y-98021072D01*
X145002250Y-98018000D01*
X145161000Y-97859250D01*
X145161000Y-96922500D01*
X145415000Y-96922500D01*
X145415000Y-97859250D01*
X145573750Y-98018000D01*
X146013000Y-98021072D01*
X146137482Y-98008812D01*
X146257180Y-97972502D01*
X146367494Y-97913537D01*
X146464185Y-97834185D01*
X146474063Y-97822149D01*
X146487820Y-97829502D01*
X146607518Y-97865812D01*
X146732000Y-97878072D01*
X146846250Y-97875000D01*
X147005000Y-97716250D01*
X147005000Y-96917000D01*
X146255750Y-96917000D01*
X146250250Y-96922500D01*
X145415000Y-96922500D01*
X145161000Y-96922500D01*
X144086750Y-96922500D01*
X143928000Y-97081250D01*
X143924928Y-97383000D01*
X142076268Y-97383000D01*
X142076000Y-97356750D01*
X141917250Y-97198000D01*
X140843000Y-97198000D01*
X140589000Y-97198000D01*
X139935250Y-97198000D01*
X139860250Y-97123000D01*
X138811000Y-97123000D01*
X138811000Y-97867750D01*
X138795000Y-97883750D01*
X138557000Y-97883750D01*
X138557000Y-97123000D01*
X138537000Y-97123000D01*
X138537000Y-96869000D01*
X138557000Y-96869000D01*
X138557000Y-96849000D01*
X138811000Y-96849000D01*
X138811000Y-96869000D01*
X139439750Y-96869000D01*
X139514750Y-96944000D01*
X140589000Y-96944000D01*
X140589000Y-96924000D01*
X140843000Y-96924000D01*
X140843000Y-96944000D01*
X141917250Y-96944000D01*
X142076000Y-96785250D01*
X142079072Y-96483500D01*
X142066812Y-96359018D01*
X142030502Y-96239320D01*
X141971537Y-96129006D01*
X141892185Y-96032315D01*
X141812406Y-95966842D01*
X141818962Y-95961462D01*
X141850178Y-95923425D01*
X141899038Y-95982962D01*
X142033614Y-96093405D01*
X142187150Y-96175472D01*
X142353746Y-96226008D01*
X142527000Y-96243072D01*
X143477000Y-96243072D01*
X143650254Y-96226008D01*
X143816850Y-96175472D01*
X143934315Y-96112685D01*
X143924928Y-96208000D01*
X143928000Y-96509750D01*
X144086750Y-96668500D01*
X145161000Y-96668500D01*
X145161000Y-96648500D01*
X145415000Y-96648500D01*
X145415000Y-96668500D01*
X146489250Y-96668500D01*
X146494750Y-96663000D01*
X147005000Y-96663000D01*
X147005000Y-95863750D01*
X146955000Y-95813750D01*
X146955000Y-95311000D01*
X146935000Y-95311000D01*
X146935000Y-95057000D01*
X146955000Y-95057000D01*
X146955000Y-95037000D01*
X147209000Y-95037000D01*
X147209000Y-95057000D01*
X147229000Y-95057000D01*
X147229000Y-95311000D01*
X147209000Y-95311000D01*
X147209000Y-96060250D01*
X147259000Y-96110250D01*
X147259000Y-96663000D01*
X147279000Y-96663000D01*
X147279000Y-96917000D01*
X147259000Y-96917000D01*
X147259000Y-97716250D01*
X147343607Y-97800857D01*
X147327506Y-97809463D01*
X147230815Y-97888815D01*
X147151463Y-97985506D01*
X147092498Y-98095820D01*
X147056188Y-98215518D01*
X147043928Y-98340000D01*
X147043928Y-98928493D01*
X146614494Y-99357928D01*
X146378000Y-99357928D01*
X146253518Y-99370188D01*
X146133820Y-99406498D01*
X146091273Y-99429240D01*
X146075472Y-99377150D01*
X145993405Y-99223614D01*
X145882962Y-99089038D01*
X145748386Y-98978595D01*
X145594850Y-98896528D01*
X145428254Y-98845992D01*
X145255000Y-98828928D01*
X144305000Y-98828928D01*
X144131746Y-98845992D01*
X143965150Y-98896528D01*
X143811614Y-98978595D01*
X143677038Y-99089038D01*
X143566595Y-99223614D01*
X143484528Y-99377150D01*
X143433992Y-99543746D01*
X143416928Y-99717000D01*
X143416928Y-100392000D01*
X143433992Y-100565254D01*
X143484528Y-100731850D01*
X143566595Y-100885386D01*
X143677038Y-101019962D01*
X143683594Y-101025342D01*
X143603815Y-101090815D01*
X143524463Y-101187506D01*
X143465498Y-101297820D01*
X143429188Y-101417518D01*
X143416928Y-101542000D01*
X143420000Y-101843750D01*
X143578750Y-102002500D01*
X144653000Y-102002500D01*
X144653000Y-101982500D01*
X144907000Y-101982500D01*
X144907000Y-102002500D01*
X144927000Y-102002500D01*
X144927000Y-102256500D01*
X144907000Y-102256500D01*
X144907000Y-103193250D01*
X145065750Y-103352000D01*
X145505000Y-103355072D01*
X145629482Y-103342812D01*
X145749180Y-103306502D01*
X145859494Y-103247537D01*
X145954294Y-103169737D01*
X146023506Y-103226537D01*
X146133820Y-103285502D01*
X146253518Y-103321812D01*
X146378000Y-103334072D01*
X146542250Y-103331000D01*
X146701000Y-103172250D01*
X146701000Y-102423000D01*
X146955000Y-102423000D01*
X146955000Y-103172250D01*
X147113750Y-103331000D01*
X147278000Y-103334072D01*
X147402482Y-103321812D01*
X147522180Y-103285502D01*
X147632494Y-103226537D01*
X147729185Y-103147185D01*
X147808537Y-103050494D01*
X147867502Y-102940180D01*
X147903812Y-102820482D01*
X147916072Y-102696000D01*
X147913000Y-102581750D01*
X147754250Y-102423000D01*
X146955000Y-102423000D01*
X146701000Y-102423000D01*
X146681000Y-102423000D01*
X146681000Y-102169000D01*
X146701000Y-102169000D01*
X146701000Y-102149000D01*
X146955000Y-102149000D01*
X146955000Y-102169000D01*
X147754250Y-102169000D01*
X147838857Y-102084393D01*
X147847463Y-102100494D01*
X147926815Y-102197185D01*
X147943001Y-102210468D01*
X147943001Y-102810514D01*
X147943000Y-102810524D01*
X147943000Y-102810531D01*
X147938719Y-102854000D01*
X147943000Y-102897469D01*
X147943000Y-104520814D01*
X147898685Y-104466815D01*
X147801994Y-104387463D01*
X147691680Y-104328498D01*
X147571982Y-104292188D01*
X147447500Y-104279928D01*
X143795750Y-104283000D01*
X143637000Y-104441750D01*
X143637000Y-105791000D01*
X143657000Y-105791000D01*
X143657000Y-106045000D01*
X143637000Y-106045000D01*
X143637000Y-107394250D01*
X143795750Y-107553000D01*
X147447500Y-107556072D01*
X147571982Y-107543812D01*
X147691680Y-107507502D01*
X147801994Y-107448537D01*
X147898685Y-107369185D01*
X147978037Y-107272494D01*
X148012928Y-107207219D01*
X148012928Y-107584002D01*
X148029992Y-107757256D01*
X148080528Y-107923852D01*
X148162595Y-108077387D01*
X148273038Y-108211962D01*
X148407613Y-108322405D01*
X148561148Y-108404472D01*
X148727744Y-108455008D01*
X148900998Y-108472072D01*
X149726002Y-108472072D01*
X149899256Y-108455008D01*
X150065852Y-108404472D01*
X150219387Y-108322405D01*
X150353962Y-108211962D01*
X150464405Y-108077387D01*
X150546472Y-107923852D01*
X150597008Y-107757256D01*
X150614072Y-107584002D01*
X150614072Y-106283998D01*
X151137928Y-106283998D01*
X151137928Y-107584002D01*
X151154992Y-107757256D01*
X151205528Y-107923852D01*
X151287595Y-108077387D01*
X151398038Y-108211962D01*
X151532613Y-108322405D01*
X151686148Y-108404472D01*
X151852744Y-108455008D01*
X152025998Y-108472072D01*
X152851002Y-108472072D01*
X153024256Y-108455008D01*
X153190852Y-108404472D01*
X153344387Y-108322405D01*
X153478962Y-108211962D01*
X153589405Y-108077387D01*
X153671472Y-107923852D01*
X153686898Y-107873000D01*
X155476671Y-107873000D01*
X155624337Y-108093998D01*
X155866002Y-108335663D01*
X156150169Y-108525537D01*
X156465919Y-108656325D01*
X156801117Y-108723000D01*
X157142883Y-108723000D01*
X157478081Y-108656325D01*
X157793831Y-108525537D01*
X158077998Y-108335663D01*
X158319663Y-108093998D01*
X158509537Y-107809831D01*
X158640325Y-107494081D01*
X158707000Y-107158883D01*
X158707000Y-106817117D01*
X158640325Y-106481919D01*
X158509537Y-106166169D01*
X158319663Y-105882002D01*
X158175661Y-105738000D01*
X158319663Y-105593998D01*
X158509537Y-105309831D01*
X158640325Y-104994081D01*
X158707000Y-104658883D01*
X158707000Y-104317117D01*
X158640325Y-103981919D01*
X158509537Y-103666169D01*
X158319663Y-103382002D01*
X158132373Y-103194712D01*
X160944893Y-103194712D01*
X161052726Y-103469338D01*
X161359384Y-103620216D01*
X161689585Y-103708369D01*
X162030639Y-103730409D01*
X162369439Y-103685489D01*
X162692966Y-103575336D01*
X162891274Y-103469338D01*
X162999107Y-103194712D01*
X161972000Y-102167605D01*
X160944893Y-103194712D01*
X158132373Y-103194712D01*
X158077998Y-103140337D01*
X157857000Y-102992671D01*
X157857000Y-102046639D01*
X160229591Y-102046639D01*
X160274511Y-102385439D01*
X160384664Y-102708966D01*
X160490662Y-102907274D01*
X160765288Y-103015107D01*
X161792395Y-101988000D01*
X162151605Y-101988000D01*
X163178712Y-103015107D01*
X163453338Y-102907274D01*
X163604216Y-102600616D01*
X163692369Y-102270415D01*
X163714409Y-101929361D01*
X163669489Y-101590561D01*
X163559336Y-101267034D01*
X163453338Y-101068726D01*
X163178712Y-100960893D01*
X162151605Y-101988000D01*
X161792395Y-101988000D01*
X160765288Y-100960893D01*
X160490662Y-101068726D01*
X160339784Y-101375384D01*
X160251631Y-101705585D01*
X160229591Y-102046639D01*
X157857000Y-102046639D01*
X157857000Y-100983329D01*
X158077998Y-100835663D01*
X158132373Y-100781288D01*
X160944893Y-100781288D01*
X161972000Y-101808395D01*
X162999107Y-100781288D01*
X162891274Y-100506662D01*
X162584616Y-100355784D01*
X162254415Y-100267631D01*
X161913361Y-100245591D01*
X161574561Y-100290511D01*
X161251034Y-100400664D01*
X161052726Y-100506662D01*
X160944893Y-100781288D01*
X158132373Y-100781288D01*
X158319663Y-100593998D01*
X158509537Y-100309831D01*
X158640325Y-99994081D01*
X158707000Y-99658883D01*
X158707000Y-99317117D01*
X158640325Y-98981919D01*
X158509537Y-98666169D01*
X158319663Y-98382002D01*
X158175661Y-98238000D01*
X158319663Y-98093998D01*
X158509537Y-97809831D01*
X158640325Y-97494081D01*
X158707000Y-97158883D01*
X158707000Y-96817117D01*
X158640325Y-96481919D01*
X158509537Y-96166169D01*
X158319663Y-95882002D01*
X158077998Y-95640337D01*
X157793831Y-95450463D01*
X157478081Y-95319675D01*
X157142883Y-95253000D01*
X156801117Y-95253000D01*
X156465919Y-95319675D01*
X156150169Y-95450463D01*
X155866002Y-95640337D01*
X155624337Y-95882002D01*
X155434463Y-96166169D01*
X155303675Y-96481919D01*
X155237000Y-96817117D01*
X155237000Y-97158883D01*
X155303675Y-97494081D01*
X155434463Y-97809831D01*
X155624337Y-98093998D01*
X155768339Y-98238000D01*
X155624337Y-98382002D01*
X155434463Y-98666169D01*
X155303675Y-98981919D01*
X155237000Y-99317117D01*
X155237000Y-99658883D01*
X155303675Y-99994081D01*
X155434463Y-100309831D01*
X155624337Y-100593998D01*
X155866002Y-100835663D01*
X156087001Y-100983329D01*
X156087000Y-102992671D01*
X155866002Y-103140337D01*
X155624337Y-103382002D01*
X155434463Y-103666169D01*
X155303675Y-103981919D01*
X155237000Y-104317117D01*
X155237000Y-104658883D01*
X155303675Y-104994081D01*
X155434463Y-105309831D01*
X155624337Y-105593998D01*
X155768339Y-105738000D01*
X155624337Y-105882002D01*
X155476671Y-106103000D01*
X153719659Y-106103000D01*
X153671472Y-105944148D01*
X153589405Y-105790613D01*
X153478962Y-105656038D01*
X153344387Y-105545595D01*
X153190852Y-105463528D01*
X153024256Y-105412992D01*
X152851002Y-105395928D01*
X152025998Y-105395928D01*
X151852744Y-105412992D01*
X151686148Y-105463528D01*
X151532613Y-105545595D01*
X151398038Y-105656038D01*
X151287595Y-105790613D01*
X151205528Y-105944148D01*
X151154992Y-106110744D01*
X151137928Y-106283998D01*
X150614072Y-106283998D01*
X150597008Y-106110744D01*
X150546472Y-105944148D01*
X150464405Y-105790613D01*
X150353962Y-105656038D01*
X150219387Y-105545595D01*
X150065852Y-105463528D01*
X149899256Y-105412992D01*
X149726002Y-105395928D01*
X149713000Y-105395928D01*
X149713000Y-104146190D01*
X149860745Y-104191008D01*
X150033999Y-104208072D01*
X150734001Y-104208072D01*
X150907255Y-104191008D01*
X151073851Y-104140472D01*
X151227387Y-104058405D01*
X151361962Y-103947962D01*
X151384000Y-103921109D01*
X151406038Y-103947962D01*
X151540613Y-104058405D01*
X151694149Y-104140472D01*
X151860745Y-104191008D01*
X152033999Y-104208072D01*
X152734001Y-104208072D01*
X152907255Y-104191008D01*
X153073851Y-104140472D01*
X153227387Y-104058405D01*
X153361962Y-103947962D01*
X153472405Y-103813387D01*
X153554472Y-103659851D01*
X153605008Y-103493255D01*
X153622072Y-103320001D01*
X153622072Y-102706730D01*
X154197003Y-102131799D01*
X154226001Y-102108001D01*
X154274905Y-102048411D01*
X154320974Y-101992277D01*
X154391546Y-101860247D01*
X154400293Y-101831410D01*
X154435003Y-101716986D01*
X154446000Y-101605333D01*
X154446000Y-101605324D01*
X154449676Y-101568001D01*
X154446000Y-101530678D01*
X154446000Y-95195872D01*
X154497387Y-95168405D01*
X154631962Y-95057962D01*
X154742405Y-94923387D01*
X154824472Y-94769851D01*
X154875008Y-94603255D01*
X154892072Y-94430001D01*
X154892072Y-93529999D01*
X154875008Y-93356745D01*
X154864132Y-93320890D01*
X161118524Y-93320890D01*
X161163175Y-93468099D01*
X161288359Y-93730920D01*
X161462412Y-93964269D01*
X161678645Y-94159178D01*
X161928748Y-94308157D01*
X162203109Y-94405481D01*
X162433000Y-94284814D01*
X162433000Y-93091000D01*
X162687000Y-93091000D01*
X162687000Y-94284814D01*
X162916891Y-94405481D01*
X163191252Y-94308157D01*
X163441355Y-94159178D01*
X163657588Y-93964269D01*
X163831641Y-93730920D01*
X163956825Y-93468099D01*
X164001476Y-93320890D01*
X163880155Y-93091000D01*
X162687000Y-93091000D01*
X162433000Y-93091000D01*
X161239845Y-93091000D01*
X161118524Y-93320890D01*
X154864132Y-93320890D01*
X154834502Y-93223214D01*
X154834502Y-93149252D01*
X154993250Y-93308000D01*
X155295000Y-93311072D01*
X155419482Y-93298812D01*
X155539180Y-93262502D01*
X155649494Y-93203537D01*
X155746185Y-93124185D01*
X155825537Y-93027494D01*
X155884502Y-92917180D01*
X155920812Y-92797482D01*
X155933072Y-92673000D01*
X155930000Y-92233750D01*
X155771250Y-92075000D01*
X154834500Y-92075000D01*
X154834500Y-92095000D01*
X154580500Y-92095000D01*
X154580500Y-92075000D01*
X154560500Y-92075000D01*
X154560500Y-91821000D01*
X154580500Y-91821000D01*
X154580500Y-90746750D01*
X154446000Y-90612250D01*
X154446000Y-90309000D01*
X154832428Y-90309000D01*
X154832428Y-90312002D01*
X154849492Y-90485256D01*
X154900028Y-90651852D01*
X154910258Y-90670992D01*
X154834500Y-90746750D01*
X154834500Y-91821000D01*
X155771250Y-91821000D01*
X155930000Y-91662250D01*
X155933072Y-91223000D01*
X155930814Y-91200072D01*
X156545502Y-91200072D01*
X156718756Y-91183008D01*
X156885352Y-91132472D01*
X157038887Y-91050405D01*
X157173462Y-90939962D01*
X157283905Y-90805387D01*
X157365972Y-90651852D01*
X157393228Y-90562000D01*
X157957428Y-90562000D01*
X157969688Y-90686482D01*
X158005998Y-90806180D01*
X158064963Y-90916494D01*
X158144315Y-91013185D01*
X158241006Y-91092537D01*
X158351320Y-91151502D01*
X158471018Y-91187812D01*
X158595500Y-91200072D01*
X158972250Y-91197000D01*
X159131000Y-91038250D01*
X159131000Y-89789000D01*
X159385000Y-89789000D01*
X159385000Y-91038250D01*
X159543750Y-91197000D01*
X159920500Y-91200072D01*
X160044982Y-91187812D01*
X160164680Y-91151502D01*
X160274994Y-91092537D01*
X160371685Y-91013185D01*
X160451037Y-90916494D01*
X160510002Y-90806180D01*
X160546312Y-90686482D01*
X160558572Y-90562000D01*
X160555500Y-89947750D01*
X160396750Y-89789000D01*
X159385000Y-89789000D01*
X159131000Y-89789000D01*
X158119250Y-89789000D01*
X157960500Y-89947750D01*
X157957428Y-90562000D01*
X157393228Y-90562000D01*
X157416508Y-90485256D01*
X157433572Y-90312002D01*
X157433572Y-89011998D01*
X157416508Y-88838744D01*
X157393229Y-88762000D01*
X157957428Y-88762000D01*
X157960500Y-89376250D01*
X158119250Y-89535000D01*
X159131000Y-89535000D01*
X159131000Y-88285750D01*
X159385000Y-88285750D01*
X159385000Y-89535000D01*
X160396750Y-89535000D01*
X160555500Y-89376250D01*
X160558572Y-88762000D01*
X160546312Y-88637518D01*
X160510002Y-88517820D01*
X160451037Y-88407506D01*
X160371685Y-88310815D01*
X160274994Y-88231463D01*
X160164680Y-88172498D01*
X160044982Y-88136188D01*
X159920500Y-88123928D01*
X159543750Y-88127000D01*
X159385000Y-88285750D01*
X159131000Y-88285750D01*
X158972250Y-88127000D01*
X158595500Y-88123928D01*
X158471018Y-88136188D01*
X158351320Y-88172498D01*
X158241006Y-88231463D01*
X158144315Y-88310815D01*
X158064963Y-88407506D01*
X158005998Y-88517820D01*
X157969688Y-88637518D01*
X157957428Y-88762000D01*
X157393229Y-88762000D01*
X157365972Y-88672148D01*
X157283905Y-88518613D01*
X157173462Y-88384038D01*
X157057065Y-88288513D01*
X157313045Y-88032533D01*
X157346817Y-88004817D01*
X157457411Y-87870059D01*
X157539589Y-87716313D01*
X157586257Y-87562472D01*
X157590195Y-87549491D01*
X157592608Y-87524986D01*
X157603000Y-87419477D01*
X157603000Y-87419469D01*
X157607281Y-87376000D01*
X157603000Y-87332531D01*
X157603000Y-87331350D01*
X157653629Y-87381979D01*
X157767998Y-87267610D01*
X157954073Y-87608766D01*
X158371409Y-87824513D01*
X158822815Y-87954696D01*
X159290946Y-87994313D01*
X159757811Y-87941842D01*
X160205468Y-87799297D01*
X160561927Y-87608766D01*
X160748003Y-87267609D01*
X159258000Y-85777605D01*
X159243858Y-85791748D01*
X159064252Y-85612142D01*
X159078395Y-85598000D01*
X159437605Y-85598000D01*
X160927609Y-87088003D01*
X161268766Y-86901927D01*
X161484513Y-86484591D01*
X161614696Y-86033185D01*
X161654313Y-85565054D01*
X161601842Y-85098189D01*
X161459297Y-84650532D01*
X161268766Y-84294073D01*
X160927609Y-84107997D01*
X159437605Y-85598000D01*
X159078395Y-85598000D01*
X159064252Y-85583858D01*
X159243858Y-85404252D01*
X159258000Y-85418395D01*
X160748003Y-83928391D01*
X160617433Y-83689000D01*
X161431422Y-83689000D01*
X161675000Y-83932579D01*
X161675001Y-88939375D01*
X161585518Y-88948188D01*
X161465820Y-88984498D01*
X161355506Y-89043463D01*
X161258815Y-89122815D01*
X161179463Y-89219506D01*
X161120498Y-89329820D01*
X161084188Y-89449518D01*
X161071928Y-89574000D01*
X161071928Y-91274000D01*
X161084188Y-91398482D01*
X161120498Y-91518180D01*
X161179463Y-91628494D01*
X161258815Y-91725185D01*
X161355506Y-91804537D01*
X161465820Y-91863502D01*
X161546466Y-91887966D01*
X161462412Y-91963731D01*
X161288359Y-92197080D01*
X161163175Y-92459901D01*
X161118524Y-92607110D01*
X161239845Y-92837000D01*
X162433000Y-92837000D01*
X162433000Y-92817000D01*
X162687000Y-92817000D01*
X162687000Y-92837000D01*
X163880155Y-92837000D01*
X164001476Y-92607110D01*
X163956825Y-92459901D01*
X163831641Y-92197080D01*
X163657588Y-91963731D01*
X163573534Y-91887966D01*
X163654180Y-91863502D01*
X163764494Y-91804537D01*
X163861185Y-91725185D01*
X163940537Y-91628494D01*
X163999502Y-91518180D01*
X164035812Y-91398482D01*
X164048072Y-91274000D01*
X164048072Y-89574000D01*
X164035812Y-89449518D01*
X163999502Y-89329820D01*
X163940537Y-89219506D01*
X163861185Y-89122815D01*
X163764494Y-89043463D01*
X163654180Y-88984498D01*
X163534482Y-88948188D01*
X163445000Y-88939375D01*
X163445000Y-83609469D01*
X163449281Y-83566000D01*
X163445000Y-83522531D01*
X163445000Y-83522523D01*
X163432195Y-83392510D01*
X163381589Y-83225687D01*
X163299411Y-83071941D01*
X163269712Y-83035753D01*
X163216532Y-82970953D01*
X163216530Y-82970951D01*
X163188817Y-82937183D01*
X163155050Y-82909471D01*
X162454534Y-82208956D01*
X162426817Y-82175183D01*
X162292059Y-82064589D01*
X162138313Y-81982411D01*
X161971490Y-81931805D01*
X161841477Y-81919000D01*
X161841469Y-81919000D01*
X161798000Y-81914719D01*
X161754531Y-81919000D01*
X158031465Y-81919000D01*
X157987999Y-81914719D01*
X157944533Y-81919000D01*
X157944523Y-81919000D01*
X157814510Y-81931805D01*
X157647687Y-81982411D01*
X157493941Y-82064589D01*
X157493939Y-82064590D01*
X157493940Y-82064590D01*
X157392953Y-82147468D01*
X157392951Y-82147470D01*
X157359183Y-82175183D01*
X157331470Y-82208951D01*
X156122951Y-83417471D01*
X156089184Y-83445183D01*
X156061471Y-83478951D01*
X156061468Y-83478954D01*
X155978590Y-83579941D01*
X155896412Y-83733687D01*
X155847575Y-83894676D01*
X155698349Y-83745450D01*
X155307721Y-83484440D01*
X154873679Y-83304654D01*
X154412902Y-83213000D01*
X153943098Y-83213000D01*
X153482321Y-83304654D01*
X153237599Y-83406021D01*
X152570032Y-82738454D01*
X152542317Y-82704683D01*
X152407559Y-82594089D01*
X152253813Y-82511911D01*
X152086990Y-82461305D01*
X151956977Y-82448500D01*
X151956969Y-82448500D01*
X151913500Y-82444219D01*
X151870031Y-82448500D01*
X145694995Y-82448500D01*
X145628962Y-82368038D01*
X145622406Y-82362658D01*
X145702185Y-82297185D01*
X145781537Y-82200494D01*
X145840502Y-82090180D01*
X145876812Y-81970482D01*
X145889072Y-81846000D01*
X145886000Y-81544250D01*
X145727250Y-81385500D01*
X144653000Y-81385500D01*
X144653000Y-81405500D01*
X144399000Y-81405500D01*
X144399000Y-81385500D01*
X143324750Y-81385500D01*
X143166000Y-81544250D01*
X143162928Y-81846000D01*
X143175188Y-81970482D01*
X143211498Y-82090180D01*
X143270463Y-82200494D01*
X143349815Y-82297185D01*
X143363606Y-82308503D01*
X143326180Y-82288498D01*
X143206482Y-82252188D01*
X143082000Y-82239928D01*
X142282000Y-82239928D01*
X142157518Y-82252188D01*
X142037820Y-82288498D01*
X141927506Y-82347463D01*
X141830815Y-82426815D01*
X141751463Y-82523506D01*
X141732000Y-82559918D01*
X141712537Y-82523506D01*
X141633185Y-82426815D01*
X141536494Y-82347463D01*
X141426180Y-82288498D01*
X141306482Y-82252188D01*
X141182000Y-82239928D01*
X140382000Y-82239928D01*
X140257518Y-82252188D01*
X140137820Y-82288498D01*
X140027506Y-82347463D01*
X139965972Y-82397962D01*
X139939537Y-82348506D01*
X139860185Y-82251815D01*
X139763494Y-82172463D01*
X139653180Y-82113498D01*
X139533482Y-82077188D01*
X139409000Y-82064928D01*
X138969750Y-82068000D01*
X138811000Y-82226750D01*
X138811000Y-83163500D01*
X138831000Y-83163500D01*
X138831000Y-83417500D01*
X138811000Y-83417500D01*
X138811000Y-83437500D01*
X138557000Y-83437500D01*
X138557000Y-83417500D01*
X136652000Y-83417500D01*
X136652000Y-83437500D01*
X136398000Y-83437500D01*
X136398000Y-83417500D01*
X136378000Y-83417500D01*
X136378000Y-83163500D01*
X136398000Y-83163500D01*
X136398000Y-82226750D01*
X136652000Y-82226750D01*
X136652000Y-83163500D01*
X138557000Y-83163500D01*
X138557000Y-82226750D01*
X138398250Y-82068000D01*
X137959000Y-82064928D01*
X137834518Y-82077188D01*
X137714820Y-82113498D01*
X137604506Y-82172463D01*
X137604500Y-82172468D01*
X137604494Y-82172463D01*
X137494180Y-82113498D01*
X137374482Y-82077188D01*
X137250000Y-82064928D01*
X136810750Y-82068000D01*
X136652000Y-82226750D01*
X136398000Y-82226750D01*
X136239250Y-82068000D01*
X135800000Y-82064928D01*
X135675518Y-82077188D01*
X135555820Y-82113498D01*
X135445506Y-82172463D01*
X135348815Y-82251815D01*
X135269463Y-82348506D01*
X135232431Y-82417787D01*
X135189962Y-82366038D01*
X135055387Y-82255595D01*
X134901851Y-82173528D01*
X134735255Y-82122992D01*
X134562001Y-82105928D01*
X133661999Y-82105928D01*
X133488745Y-82122992D01*
X133322149Y-82173528D01*
X133168613Y-82255595D01*
X133034038Y-82366038D01*
X132923595Y-82500613D01*
X132841528Y-82654149D01*
X132790992Y-82820745D01*
X132773928Y-82993999D01*
X132773928Y-83694001D01*
X132790992Y-83867255D01*
X132841528Y-84033851D01*
X132923595Y-84187387D01*
X133034038Y-84321962D01*
X133060891Y-84344000D01*
X133034038Y-84366038D01*
X132957746Y-84459000D01*
X131869469Y-84459000D01*
X131826000Y-84454719D01*
X131782531Y-84459000D01*
X131782523Y-84459000D01*
X131667306Y-84470348D01*
X131652509Y-84471805D01*
X131601903Y-84487157D01*
X131485687Y-84522411D01*
X131331941Y-84604589D01*
X131331939Y-84604590D01*
X131331940Y-84604590D01*
X131230953Y-84687468D01*
X131230951Y-84687470D01*
X131197183Y-84715183D01*
X131169470Y-84748951D01*
X130764493Y-85153928D01*
X130359999Y-85153928D01*
X130186745Y-85170992D01*
X130020149Y-85221528D01*
X129866613Y-85303595D01*
X129803748Y-85355187D01*
X129721387Y-85287595D01*
X129663000Y-85256386D01*
X129663000Y-84371469D01*
X129667281Y-84328000D01*
X129663000Y-84284531D01*
X129663000Y-84284523D01*
X129650195Y-84154510D01*
X129599589Y-83987687D01*
X129517411Y-83833941D01*
X129504072Y-83817688D01*
X129504072Y-82716000D01*
X129491812Y-82591518D01*
X129455502Y-82471820D01*
X129396537Y-82361506D01*
X129317185Y-82264815D01*
X129220494Y-82185463D01*
X129110180Y-82126498D01*
X128990482Y-82090188D01*
X128866000Y-82077928D01*
X127166000Y-82077928D01*
X127041518Y-82090188D01*
X126921820Y-82126498D01*
X126811506Y-82185463D01*
X126714815Y-82264815D01*
X126635463Y-82361506D01*
X126576498Y-82471820D01*
X126540188Y-82591518D01*
X126527928Y-82716000D01*
X126527928Y-84416000D01*
X126540188Y-84540482D01*
X126576498Y-84660180D01*
X126635463Y-84770494D01*
X126714815Y-84867185D01*
X126811506Y-84946537D01*
X126921820Y-85005502D01*
X127041518Y-85041812D01*
X127166000Y-85054072D01*
X127893001Y-85054072D01*
X127893001Y-85256386D01*
X127834613Y-85287595D01*
X127700038Y-85398038D01*
X127589595Y-85532613D01*
X127507528Y-85686149D01*
X127456992Y-85852745D01*
X127439928Y-86025999D01*
X127439928Y-86640977D01*
X127342753Y-86670454D01*
X127210724Y-86741026D01*
X127210722Y-86741027D01*
X127210723Y-86741027D01*
X127123996Y-86812201D01*
X127123992Y-86812205D01*
X127094999Y-86835999D01*
X127071205Y-86864992D01*
X125755000Y-88181199D01*
X125755000Y-80670000D01*
X143163026Y-80670000D01*
X143162928Y-80671000D01*
G37*
%TD.AperFunction*%
D19*
X133639463Y-94099494D02*
X133718815Y-94196185D01*
X133815506Y-94275537D01*
X133925820Y-94334502D01*
X134045518Y-94370812D01*
X134170000Y-94383072D01*
X135070000Y-94383072D01*
X135194482Y-94370812D01*
X135215653Y-94364390D01*
X135178992Y-94485246D01*
X135161928Y-94658500D01*
X135161928Y-95333500D01*
X135178992Y-95506754D01*
X135229528Y-95673350D01*
X135311595Y-95826886D01*
X135422038Y-95961462D01*
X135509817Y-96033500D01*
X135422038Y-96105538D01*
X135384865Y-96150833D01*
X135298180Y-96104498D01*
X135178482Y-96068188D01*
X135054000Y-96055928D01*
X134154000Y-96055928D01*
X134029518Y-96068188D01*
X133909820Y-96104498D01*
X133799506Y-96163463D01*
X133702815Y-96242815D01*
X133623463Y-96339506D01*
X133564498Y-96449820D01*
X133528188Y-96569518D01*
X133515928Y-96694000D01*
X133515928Y-97205905D01*
X133505185Y-97192815D01*
X133408494Y-97113463D01*
X133298180Y-97054498D01*
X133178482Y-97018188D01*
X133054000Y-97005928D01*
X132154000Y-97005928D01*
X132152283Y-97006097D01*
X132160812Y-96977982D01*
X132173072Y-96853500D01*
X132170000Y-96551750D01*
X132011250Y-96393000D01*
X130937000Y-96393000D01*
X130937000Y-96413000D01*
X130683000Y-96413000D01*
X130683000Y-96393000D01*
X129608750Y-96393000D01*
X129450000Y-96551750D01*
X129449431Y-96607646D01*
X129336155Y-96393000D01*
X128143000Y-96393000D01*
X128143000Y-96413000D01*
X127889000Y-96413000D01*
X127889000Y-96393000D01*
X127869000Y-96393000D01*
X127869000Y-96139000D01*
X127889000Y-96139000D01*
X127889000Y-96119000D01*
X128143000Y-96119000D01*
X128143000Y-96139000D01*
X129336155Y-96139000D01*
X129449431Y-95924354D01*
X129450000Y-95980250D01*
X129608750Y-96139000D01*
X130683000Y-96139000D01*
X130683000Y-94509500D01*
X130937000Y-94509500D01*
X130937000Y-96139000D01*
X132011250Y-96139000D01*
X132170000Y-95980250D01*
X132173072Y-95678500D01*
X132160812Y-95554018D01*
X132124502Y-95434320D01*
X132065667Y-95324250D01*
X132066406Y-95322869D01*
X132170000Y-95333072D01*
X132334250Y-95330000D01*
X132493000Y-95171250D01*
X132493000Y-94422000D01*
X132747000Y-94422000D01*
X132747000Y-95171250D01*
X132905750Y-95330000D01*
X133070000Y-95333072D01*
X133194482Y-95320812D01*
X133314180Y-95284502D01*
X133424494Y-95225537D01*
X133521185Y-95146185D01*
X133600537Y-95049494D01*
X133659502Y-94939180D01*
X133695812Y-94819482D01*
X133708072Y-94695000D01*
X133705000Y-94580750D01*
X133546250Y-94422000D01*
X132747000Y-94422000D01*
X132493000Y-94422000D01*
X131693750Y-94422000D01*
X131606250Y-94509500D01*
X130937000Y-94509500D01*
X130683000Y-94509500D01*
X130663000Y-94509500D01*
X130663000Y-94255500D01*
X130683000Y-94255500D01*
X130683000Y-94235500D01*
X130937000Y-94235500D01*
X130937000Y-94255500D01*
X132011250Y-94255500D01*
X132098750Y-94168000D01*
X132493000Y-94168000D01*
X132493000Y-94148000D01*
X132747000Y-94148000D01*
X132747000Y-94168000D01*
X133546250Y-94168000D01*
X133630857Y-94083393D01*
X133639463Y-94099494D01*
%TA.AperFunction,Conductor*%
D20*
G36*
X133639463Y-94099494D02*
G01*
X133718815Y-94196185D01*
X133815506Y-94275537D01*
X133925820Y-94334502D01*
X134045518Y-94370812D01*
X134170000Y-94383072D01*
X135070000Y-94383072D01*
X135194482Y-94370812D01*
X135215653Y-94364390D01*
X135178992Y-94485246D01*
X135161928Y-94658500D01*
X135161928Y-95333500D01*
X135178992Y-95506754D01*
X135229528Y-95673350D01*
X135311595Y-95826886D01*
X135422038Y-95961462D01*
X135509817Y-96033500D01*
X135422038Y-96105538D01*
X135384865Y-96150833D01*
X135298180Y-96104498D01*
X135178482Y-96068188D01*
X135054000Y-96055928D01*
X134154000Y-96055928D01*
X134029518Y-96068188D01*
X133909820Y-96104498D01*
X133799506Y-96163463D01*
X133702815Y-96242815D01*
X133623463Y-96339506D01*
X133564498Y-96449820D01*
X133528188Y-96569518D01*
X133515928Y-96694000D01*
X133515928Y-97205905D01*
X133505185Y-97192815D01*
X133408494Y-97113463D01*
X133298180Y-97054498D01*
X133178482Y-97018188D01*
X133054000Y-97005928D01*
X132154000Y-97005928D01*
X132152283Y-97006097D01*
X132160812Y-96977982D01*
X132173072Y-96853500D01*
X132170000Y-96551750D01*
X132011250Y-96393000D01*
X130937000Y-96393000D01*
X130937000Y-96413000D01*
X130683000Y-96413000D01*
X130683000Y-96393000D01*
X129608750Y-96393000D01*
X129450000Y-96551750D01*
X129449431Y-96607646D01*
X129336155Y-96393000D01*
X128143000Y-96393000D01*
X128143000Y-96413000D01*
X127889000Y-96413000D01*
X127889000Y-96393000D01*
X127869000Y-96393000D01*
X127869000Y-96139000D01*
X127889000Y-96139000D01*
X127889000Y-96119000D01*
X128143000Y-96119000D01*
X128143000Y-96139000D01*
X129336155Y-96139000D01*
X129449431Y-95924354D01*
X129450000Y-95980250D01*
X129608750Y-96139000D01*
X130683000Y-96139000D01*
X130683000Y-94509500D01*
X130937000Y-94509500D01*
X130937000Y-96139000D01*
X132011250Y-96139000D01*
X132170000Y-95980250D01*
X132173072Y-95678500D01*
X132160812Y-95554018D01*
X132124502Y-95434320D01*
X132065667Y-95324250D01*
X132066406Y-95322869D01*
X132170000Y-95333072D01*
X132334250Y-95330000D01*
X132493000Y-95171250D01*
X132493000Y-94422000D01*
X132747000Y-94422000D01*
X132747000Y-95171250D01*
X132905750Y-95330000D01*
X133070000Y-95333072D01*
X133194482Y-95320812D01*
X133314180Y-95284502D01*
X133424494Y-95225537D01*
X133521185Y-95146185D01*
X133600537Y-95049494D01*
X133659502Y-94939180D01*
X133695812Y-94819482D01*
X133708072Y-94695000D01*
X133705000Y-94580750D01*
X133546250Y-94422000D01*
X132747000Y-94422000D01*
X132493000Y-94422000D01*
X131693750Y-94422000D01*
X131606250Y-94509500D01*
X130937000Y-94509500D01*
X130683000Y-94509500D01*
X130663000Y-94509500D01*
X130663000Y-94255500D01*
X130683000Y-94255500D01*
X130683000Y-94235500D01*
X130937000Y-94235500D01*
X130937000Y-94255500D01*
X132011250Y-94255500D01*
X132098750Y-94168000D01*
X132493000Y-94168000D01*
X132493000Y-94148000D01*
X132747000Y-94148000D01*
X132747000Y-94168000D01*
X133546250Y-94168000D01*
X133630857Y-94083393D01*
X133639463Y-94099494D01*
G37*
%TD.AperFunction*%
%TD*%
M02*
